<?xml version="1.0" encoding="UTF-8" standalone="no"?>
<!DOCTYPE svg PUBLIC "-//W3C//DTD SVG 1.1//EN"
 "http://www.w3.org/Graphics/SVG/1.1/DTD/svg11.dtd">
<!-- Generated by graphviz version 2.44.1 (20200629.0846)
 -->
<!-- Title: D Pages: 1 -->
<svg width="182pt" height="98pt"
 viewBox="0.00 0.00 182.00 98.00" xmlns="http://www.w3.org/2000/svg" xmlns:xlink="http://www.w3.org/1999/xlink">
<g id="graph0" class="graph" transform="scale(1 1) rotate(0) translate(4 94)">
<title>D</title>
<polygon fill="white" stroke="transparent" points="-4,4 -4,-94 178,-94 178,4 -4,4"/>
<!-- vendor -->
<g id="node1" class="node">
<title>vendor</title>
<polygon fill="none" stroke="black" points="76.5,-90 22.5,-90 22.5,-54 76.5,-54 76.5,-90"/>
<text text-anchor="middle" x="49.5" y="-69.8" font-family="Helvetica,sans-Serif" font-size="9.00">Vendor</text>
</g>
<!-- endpoint -->
<g id="node2" class="node">
<title>endpoint</title>
<polygon fill="none" stroke="black" points="174,-90 120,-90 120,-54 174,-54 174,-90"/>
<text text-anchor="middle" x="147" y="-69.8" font-family="Helvetica,sans-Serif" font-size="9.00">Endpoint</text>
</g>
<!-- vendor&#45;&gt;endpoint -->
<g id="edge1" class="edge">
<title>vendor&#45;&gt;endpoint</title>
<path fill="none" stroke="black" d="M76.66,-72C90.18,-72 106.48,-72 119.99,-72"/>
<text text-anchor="middle" x="106.49" y="-66.4" font-family="Helvetica,sans-Serif" font-size="7.00">exposes</text>
</g>
<!-- organization -->
<g id="node3" class="node">
<title>organization</title>
<polygon fill="none" stroke="black" points="84,-36 15,-36 15,0 84,0 84,-36"/>
<text text-anchor="middle" x="49.5" y="-15.8" font-family="Helvetica,sans-Serif" font-size="9.00">Organization</text>
</g>
<!-- vendor&#45;&gt;organization -->
<g id="edge2" class="edge">
<title>vendor&#45;&gt;organization</title>
<path fill="none" stroke="black" d="M50,-53.72C50,-48.09 50,-41.89 50,-36.26"/>
<text text-anchor="middle" x="25" y="-38.66" font-family="Helvetica,sans-Serif" font-size="7.00">registers clients</text>
</g>
<!-- service -->
<g id="node4" class="node">
<title>service</title>
<polygon fill="none" stroke="black" points="174,-36 120,-36 120,0 174,0 174,-36"/>
<text text-anchor="middle" x="147" y="-15.8" font-family="Helvetica,sans-Serif" font-size="9.00">Service</text>
</g>
<!-- organization&#45;&gt;service -->
<g id="edge3" class="edge">
<title>organization&#45;&gt;service</title>
<path fill="none" stroke="black" d="M96.15,-18C96.15,-18 119.81,-18 119.81,-18"/>
<polygon fill="black" stroke="black" points="96.15,-18 90.15,-22 84.15,-18 90.15,-14 96.15,-18"/>
<text text-anchor="middle" x="110.31" y="-12.4" font-family="Helvetica,sans-Serif" font-size="7.00">offers</text>
</g>
<!-- service&#45;&gt;endpoint -->
<g id="edge4" class="edge">
<title>service&#45;&gt;endpoint</title>
<path fill="none" stroke="black" d="M147,-36.28C147,-41.91 147,-48.11 147,-53.74"/>
<text text-anchor="middle" x="118" y="-48.14" font-family="Helvetica,sans-Serif" font-size="7.00">offers functionality</text>
<text text-anchor="middle" x="118" y="-40.14" font-family="Helvetica,sans-Serif" font-size="7.00">through</text>
</g>
</g>
</svg>
