<?xml version="1.0" encoding="UTF-8" standalone="no"?>
<!DOCTYPE svg PUBLIC "-//W3C//DTD SVG 1.1//EN"
 "http://www.w3.org/Graphics/SVG/1.1/DTD/svg11.dtd">
<!-- Generated by graphviz version 5.0.1 (20220820.1526)
 -->
<!-- Title: D Pages: 1 -->
<svg width="2590pt" height="463pt"
 viewBox="0.00 0.00 2590.00 463.00" xmlns="http://www.w3.org/2000/svg" xmlns:xlink="http://www.w3.org/1999/xlink">
<g id="graph0" class="graph" transform="scale(1 1) rotate(0) translate(4 459)">
<title>D</title>
<polygon fill="white" stroke="none" points="-4,4 -4,-459 2586,-459 2586,4 -4,4"/>
<g id="clust1" class="cluster">
<title>cluster_internal</title>
<polygon fill="none" stroke="black" points="8,-8 8,-447 854,-447 854,-8 8,-8"/>
</g>
<g id="clust2" class="cluster">
<title>cluster_external</title>
<polygon fill="none" stroke="black" points="862,-82 862,-151 2574,-151 2574,-82 862,-82"/>
</g>
<!-- RFC001 -->
<g id="node1" class="node">
<title>RFC001</title>
<g id="a_node1"><a xlink:href="rfc001-nuts-start-architecture" xlink:title="RFC001\nNuts Start Architecture">
<polygon fill="none" stroke="black" points="714,-54 562,-54 562,-16 714,-16 714,-54"/>
<text text-anchor="middle" x="638" y="-38.8" font-family="Helvetica,sans-Serif" font-size="14.00">RFC001</text>
<text text-anchor="middle" x="638" y="-23.8" font-family="Helvetica,sans-Serif" font-size="14.00">Nuts Start Architecture</text>
</a>
</g>
</g>
<!-- RFC002 -->
<g id="node2" class="node">
<title>RFC002</title>
<g id="a_node2"><a xlink:href="rfc002-authentication-token" xlink:title="RFC002\nAuthentication token">
<polygon fill="none" stroke="black" points="807.5,-135.5 668.5,-135.5 668.5,-97.5 807.5,-97.5 807.5,-135.5"/>
<text text-anchor="middle" x="738" y="-120.3" font-family="Helvetica,sans-Serif" font-size="14.00">RFC002</text>
<text text-anchor="middle" x="738" y="-105.3" font-family="Helvetica,sans-Serif" font-size="14.00">Authentication token</text>
</a>
</g>
</g>
<!-- RFC002&#45;&gt;RFC001 -->
<g id="edge1" class="edge">
<title>RFC002&#45;&gt;RFC001</title>
<path fill="none" stroke="black" d="M715.31,-97.46C701.6,-86.56 683.93,-72.52 668.95,-60.61"/>
<polygon fill="black" stroke="black" points="670.95,-57.73 660.95,-54.24 666.6,-63.21 670.95,-57.73"/>
</g>
<!-- RFC003 -->
<g id="node3" class="node">
<title>RFC003</title>
<g id="a_node3"><a xlink:href="rfc003-oauth2-authorization" xlink:title="RFC003\nOAuth2 Authorization">
<polygon fill="none" stroke="black" points="812,-217 666,-217 666,-179 812,-179 812,-217"/>
<text text-anchor="middle" x="739" y="-201.8" font-family="Helvetica,sans-Serif" font-size="14.00">RFC003</text>
<text text-anchor="middle" x="739" y="-186.8" font-family="Helvetica,sans-Serif" font-size="14.00">OAuth2 Authorization</text>
</a>
</g>
</g>
<!-- RFC003&#45;&gt;RFC001 -->
<g id="edge2" class="edge">
<title>RFC003&#45;&gt;RFC001</title>
<path fill="none" stroke="black" d="M692.2,-178.92C679.67,-171.96 667.32,-162.78 659,-151 641.05,-125.58 637.07,-89.36 636.76,-64.4"/>
<polygon fill="black" stroke="black" points="640.26,-64.15 636.83,-54.12 633.26,-64.1 640.26,-64.15"/>
</g>
<!-- RFC003&#45;&gt;RFC002 -->
<g id="edge3" class="edge">
<title>RFC003&#45;&gt;RFC002</title>
<path fill="none" stroke="black" d="M738.77,-178.96C738.65,-169.17 738.49,-156.85 738.36,-145.81"/>
<polygon fill="black" stroke="black" points="741.86,-145.7 738.23,-135.74 734.86,-145.79 741.86,-145.7"/>
</g>
<!-- RFC7662_EXT -->
<g id="node15" class="node">
<title>RFC7662_EXT</title>
<g id="a_node15"><a xlink:href="https://tools.ietf.org/html/rfc7662" xlink:title="RFC7662\nOAuth 2.0 Token Introspection">
<polygon fill="#e0eeee" stroke="black" points="1275.5,-135.5 1076.5,-135.5 1076.5,-97.5 1275.5,-97.5 1275.5,-135.5"/>
<text text-anchor="middle" x="1176" y="-120.3" font-family="Helvetica,sans-Serif" font-size="14.00">RFC7662</text>
<text text-anchor="middle" x="1176" y="-105.3" font-family="Helvetica,sans-Serif" font-size="14.00">OAuth 2.0 Token Introspection</text>
</a>
</g>
</g>
<!-- RFC003&#45;&gt;RFC7662_EXT -->
<g id="edge4" class="edge">
<title>RFC003&#45;&gt;RFC7662_EXT</title>
<path fill="none" stroke="black" d="M812.22,-190.1C879.09,-183 980.42,-170.25 1067,-151 1082.22,-147.62 1098.39,-143.14 1113.48,-138.57"/>
<polygon fill="black" stroke="black" points="1114.71,-141.86 1123.23,-135.57 1112.64,-135.17 1114.71,-141.86"/>
</g>
<!-- RFC7523_EXT -->
<g id="node16" class="node">
<title>RFC7523_EXT</title>
<g id="a_node16"><a xlink:href="https://tools.ietf.org/html/rfc7523" xlink:title="RFC7523\nJSON Web Token (JWT) Profile\nfor OAuth 2.0 Client Authentication and Authorization Grants">
<polygon fill="#e0eeee" stroke="black" points="1672.5,-143 1293.5,-143 1293.5,-90 1672.5,-90 1672.5,-143"/>
<text text-anchor="middle" x="1483" y="-127.8" font-family="Helvetica,sans-Serif" font-size="14.00">RFC7523</text>
<text text-anchor="middle" x="1483" y="-112.8" font-family="Helvetica,sans-Serif" font-size="14.00">JSON Web Token (JWT) Profile</text>
<text text-anchor="middle" x="1483" y="-97.8" font-family="Helvetica,sans-Serif" font-size="14.00">for OAuth 2.0 Client Authentication and Authorization Grants</text>
</a>
</g>
</g>
<!-- RFC003&#45;&gt;RFC7523_EXT -->
<g id="edge5" class="edge">
<title>RFC003&#45;&gt;RFC7523_EXT</title>
<path fill="none" stroke="black" d="M812.12,-189.25C844.54,-185.91 883.15,-182.08 918,-179 1080.95,-164.59 1122.63,-170.89 1285,-151 1300.12,-149.15 1315.84,-146.95 1331.52,-144.59"/>
<polygon fill="black" stroke="black" points="1332.46,-147.98 1341.81,-143.01 1331.4,-141.06 1332.46,-147.98"/>
</g>
<!-- RFC7515_EXT -->
<g id="node17" class="node">
<title>RFC7515_EXT</title>
<g id="a_node17"><a xlink:href="https://tools.ietf.org/html/rfc7515" xlink:title="RFC7515\nJSON Web Signature (JWS)">
<polygon fill="#e0eeee" stroke="black" points="1058,-135.5 870,-135.5 870,-97.5 1058,-97.5 1058,-135.5"/>
<text text-anchor="middle" x="964" y="-120.3" font-family="Helvetica,sans-Serif" font-size="14.00">RFC7515</text>
<text text-anchor="middle" x="964" y="-105.3" font-family="Helvetica,sans-Serif" font-size="14.00">JSON Web Signature (JWS)</text>
</a>
</g>
</g>
<!-- RFC003&#45;&gt;RFC7515_EXT -->
<g id="edge6" class="edge">
<title>RFC003&#45;&gt;RFC7515_EXT</title>
<path fill="none" stroke="black" d="M790.06,-178.96C823.6,-167.11 867.65,-151.55 903.02,-139.04"/>
<polygon fill="black" stroke="black" points="904.49,-142.24 912.76,-135.61 902.16,-135.64 904.49,-142.24"/>
</g>
<!-- RFC004 -->
<g id="node4" class="node">
<title>RFC004</title>
<g id="a_node4"><a xlink:href="rfc004-verifiable-transactional-graph" xlink:title="RFC004\nVerifiable Transactional Graph">
<polygon fill="none" stroke="black" points="598,-217 398,-217 398,-179 598,-179 598,-217"/>
<text text-anchor="middle" x="498" y="-201.8" font-family="Helvetica,sans-Serif" font-size="14.00">RFC004</text>
<text text-anchor="middle" x="498" y="-186.8" font-family="Helvetica,sans-Serif" font-size="14.00">Verifiable Transactional Graph</text>
</a>
</g>
</g>
<!-- RFC004&#45;&gt;RFC001 -->
<g id="edge7" class="edge">
<title>RFC004&#45;&gt;RFC001</title>
<path fill="none" stroke="black" d="M513.79,-178.84C538.58,-150.34 586.73,-94.96 615.25,-62.16"/>
<polygon fill="black" stroke="black" points="618.13,-64.18 622.06,-54.34 612.85,-59.59 618.13,-64.18"/>
</g>
<!-- RFC008 -->
<g id="node7" class="node">
<title>RFC008</title>
<g id="a_node7"><a xlink:href="rfc008-certificate-structure" xlink:title="RFC008\nCertificate Structure">
<polygon fill="none" stroke="black" points="447,-135.5 311,-135.5 311,-97.5 447,-97.5 447,-135.5"/>
<text text-anchor="middle" x="379" y="-120.3" font-family="Helvetica,sans-Serif" font-size="14.00">RFC008</text>
<text text-anchor="middle" x="379" y="-105.3" font-family="Helvetica,sans-Serif" font-size="14.00">Certificate Structure</text>
</a>
</g>
</g>
<!-- RFC004&#45;&gt;RFC008 -->
<g id="edge9" class="edge">
<title>RFC004&#45;&gt;RFC008</title>
<path fill="none" stroke="black" d="M471,-178.96C454.38,-167.86 432.88,-153.5 414.85,-141.45"/>
<polygon fill="black" stroke="black" points="416.57,-138.39 406.31,-135.74 412.68,-144.21 416.57,-138.39"/>
</g>
<!-- RFC004&#45;&gt;RFC7515_EXT -->
<g id="edge8" class="edge">
<title>RFC004&#45;&gt;RFC7515_EXT</title>
<path fill="none" stroke="black" d="M598.34,-185.11C695.96,-173.4 833.12,-156.48 858,-151 873,-147.7 888.91,-143.21 903.73,-138.6"/>
<polygon fill="black" stroke="black" points="904.81,-141.93 913.28,-135.56 902.69,-135.26 904.81,-141.93"/>
</g>
<!-- RFC005 -->
<g id="node5" class="node">
<title>RFC005</title>
<g id="a_node5"><a xlink:href="rfc005-distributed-document-network-grpc" xlink:title="RFC005\nDistributed Document Network using gRPC">
<polygon fill="none" stroke="black" points="367,-291 91,-291 91,-253 367,-253 367,-291"/>
<text text-anchor="middle" x="229" y="-275.8" font-family="Helvetica,sans-Serif" font-size="14.00">RFC005</text>
<text text-anchor="middle" x="229" y="-260.8" font-family="Helvetica,sans-Serif" font-size="14.00">Distributed Document Network using gRPC</text>
</a>
</g>
</g>
<!-- RFC005&#45;&gt;RFC004 -->
<g id="edge10" class="edge">
<title>RFC005&#45;&gt;RFC004</title>
<path fill="none" stroke="black" d="M296.53,-252.92C334.27,-242.82 381.44,-230.2 420.65,-219.7"/>
<polygon fill="black" stroke="black" points="421.68,-223.05 430.44,-217.08 419.87,-216.29 421.68,-223.05"/>
</g>
<!-- RFC006 -->
<g id="node6" class="node">
<title>RFC006</title>
<g id="a_node6"><a xlink:href="rfc006-distributed-registry" xlink:title="RFC006\nDistributed Registry using DIDs">
<polygon fill="none" stroke="black" points="589,-291 385,-291 385,-253 589,-253 589,-291"/>
<text text-anchor="middle" x="487" y="-275.8" font-family="Helvetica,sans-Serif" font-size="14.00">RFC006</text>
<text text-anchor="middle" x="487" y="-260.8" font-family="Helvetica,sans-Serif" font-size="14.00">Distributed Registry using DIDs</text>
</a>
</g>
</g>
<!-- RFC006&#45;&gt;RFC004 -->
<g id="edge11" class="edge">
<title>RFC006&#45;&gt;RFC004</title>
<path fill="none" stroke="black" d="M489.78,-252.83C490.95,-245.13 492.35,-235.97 493.66,-227.42"/>
<polygon fill="black" stroke="black" points="497.14,-227.83 495.19,-217.41 490.22,-226.77 497.14,-227.83"/>
</g>
<!-- RFC006&#45;&gt;RFC008 -->
<g id="edge12" class="edge">
<title>RFC006&#45;&gt;RFC008</title>
<path fill="none" stroke="black" d="M433.33,-252.96C416.48,-244.64 399.54,-232.97 389,-217 375.17,-196.06 373.77,-167.03 375.17,-145.74"/>
<polygon fill="black" stroke="black" points="378.67,-145.95 376.08,-135.68 371.7,-145.33 378.67,-145.95"/>
</g>
<!-- DID_EXT -->
<g id="node18" class="node">
<title>DID_EXT</title>
<g id="a_node18"><a xlink:href="https://www.w3.org/TR/did-core/" xlink:title="W3C DID\nDecentralized Identifiers (DIDs) v1.0">
<polygon fill="#e0eeee" stroke="black" points="1923.5,-135.5 1690.5,-135.5 1690.5,-97.5 1923.5,-97.5 1923.5,-135.5"/>
<text text-anchor="middle" x="1807" y="-120.3" font-family="Helvetica,sans-Serif" font-size="14.00">W3C DID</text>
<text text-anchor="middle" x="1807" y="-105.3" font-family="Helvetica,sans-Serif" font-size="14.00">Decentralized Identifiers (DIDs) v1.0</text>
</a>
</g>
</g>
<!-- RFC006&#45;&gt;DID_EXT -->
<g id="edge13" class="edge">
<title>RFC006&#45;&gt;DID_EXT</title>
<path fill="none" stroke="black" d="M589.17,-255.75C655.4,-245.55 743.47,-231.4 821,-217 901.82,-201.99 920.43,-189.17 1002,-179 1302.15,-141.57 1382.99,-196.65 1682,-151 1701.29,-148.05 1721.88,-143.25 1740.67,-138.19"/>
<polygon fill="black" stroke="black" points="1741.6,-141.56 1750.31,-135.53 1739.74,-134.82 1741.6,-141.56"/>
</g>
<!-- RFC011 -->
<g id="node8" class="node">
<title>RFC011</title>
<g id="a_node8"><a xlink:href="rfc011-verifiable-credential" xlink:title="RFC011\nVerifiable Credentials">
<polygon fill="none" stroke="black" points="812.5,-291 667.5,-291 667.5,-253 812.5,-253 812.5,-291"/>
<text text-anchor="middle" x="740" y="-275.8" font-family="Helvetica,sans-Serif" font-size="14.00">RFC011</text>
<text text-anchor="middle" x="740" y="-260.8" font-family="Helvetica,sans-Serif" font-size="14.00">Verifiable Credentials</text>
</a>
</g>
</g>
<!-- RFC011&#45;&gt;RFC003 -->
<g id="edge14" class="edge">
<title>RFC011&#45;&gt;RFC003</title>
<path fill="none" stroke="black" d="M739.75,-252.83C739.64,-245.13 739.51,-235.97 739.39,-227.42"/>
<polygon fill="black" stroke="black" points="742.89,-227.36 739.26,-217.41 735.9,-227.46 742.89,-227.36"/>
</g>
<!-- RFC011&#45;&gt;RFC004 -->
<g id="edge15" class="edge">
<title>RFC011&#45;&gt;RFC004</title>
<path fill="none" stroke="black" d="M679.25,-252.92C645.59,-242.91 603.58,-230.41 568.48,-219.97"/>
<polygon fill="black" stroke="black" points="569.36,-216.58 558.78,-217.08 567.37,-223.29 569.36,-216.58"/>
</g>
<!-- RFC7779_EXT -->
<g id="node14" class="node">
<title>RFC7779_EXT</title>
<g id="a_node14"><a xlink:href="https://datatracker.ietf.org/doc/html/rfc7797" xlink:title="RFC7779\nJSON Web Signature (JWS) Unencoded Payload Option">
<polygon fill="#e0eeee" stroke="black" points="2300,-135.5 1942,-135.5 1942,-97.5 2300,-97.5 2300,-135.5"/>
<text text-anchor="middle" x="2121" y="-120.3" font-family="Helvetica,sans-Serif" font-size="14.00">RFC7779</text>
<text text-anchor="middle" x="2121" y="-105.3" font-family="Helvetica,sans-Serif" font-size="14.00">JSON Web Signature (JWS) Unencoded Payload Option</text>
</a>
</g>
</g>
<!-- RFC011&#45;&gt;RFC7779_EXT -->
<g id="edge16" class="edge">
<title>RFC011&#45;&gt;RFC7779_EXT</title>
<path fill="none" stroke="black" d="M802.08,-252.9C892.17,-226.68 1049.89,-181.05 1063,-179 1445.24,-119.34 1548.23,-191.26 1933,-151 1963.07,-147.85 1995.57,-142.7 2024.96,-137.36"/>
<polygon fill="black" stroke="black" points="2025.6,-140.81 2034.8,-135.55 2024.33,-133.92 2025.6,-140.81"/>
</g>
<!-- VC_EXT -->
<g id="node19" class="node">
<title>VC_EXT</title>
<g id="a_node19"><a xlink:href="https://www.w3.org/TR/vc-data-model/" xlink:title="W3C VC\nVerifiable Credentials Data Model v1.1">
<polygon fill="#e0eeee" stroke="black" points="2566,-135.5 2318,-135.5 2318,-97.5 2566,-97.5 2566,-135.5"/>
<text text-anchor="middle" x="2442" y="-120.3" font-family="Helvetica,sans-Serif" font-size="14.00">W3C VC</text>
<text text-anchor="middle" x="2442" y="-105.3" font-family="Helvetica,sans-Serif" font-size="14.00">Verifiable Credentials Data Model v1.1</text>
</a>
</g>
</g>
<!-- RFC011&#45;&gt;VC_EXT -->
<g id="edge17" class="edge">
<title>RFC011&#45;&gt;VC_EXT</title>
<path fill="none" stroke="black" d="M812.64,-259.77C867.64,-250.49 944.78,-235.8 1011,-217 1057.54,-203.79 1065.49,-188.14 1113,-179 1374.07,-128.79 2045.57,-186.8 2309,-151 2329.88,-148.16 2352.23,-143.28 2372.52,-138.11"/>
<polygon fill="black" stroke="black" points="2373.52,-141.47 2382.31,-135.56 2371.75,-134.7 2373.52,-141.47"/>
</g>
<!-- RFC012 -->
<g id="node9" class="node">
<title>RFC012</title>
<g id="a_node9"><a xlink:href="rfc012-nuts-organization-credential" xlink:title="RFC012\nNuts Organization Credential">
<polygon fill="none" stroke="black" points="405.5,-365 214.5,-365 214.5,-327 405.5,-327 405.5,-365"/>
<text text-anchor="middle" x="310" y="-349.8" font-family="Helvetica,sans-Serif" font-size="14.00">RFC012</text>
<text text-anchor="middle" x="310" y="-334.8" font-family="Helvetica,sans-Serif" font-size="14.00">Nuts Organization Credential</text>
</a>
</g>
</g>
<!-- RFC012&#45;&gt;RFC003 -->
<g id="edge18" class="edge">
<title>RFC012&#45;&gt;RFC003</title>
<path fill="none" stroke="black" d="M405.55,-327.88C487.72,-313.03 593.74,-293.53 598,-291 616.74,-279.87 611.94,-266.56 629,-253 644.82,-240.43 664.03,-229.76 681.95,-221.3"/>
<polygon fill="black" stroke="black" points="683.54,-224.43 691.18,-217.09 680.63,-218.06 683.54,-224.43"/>
</g>
<!-- RFC012&#45;&gt;RFC006 -->
<g id="edge19" class="edge">
<title>RFC012&#45;&gt;RFC006</title>
<path fill="none" stroke="black" d="M354.66,-326.83C378.55,-317.12 408.13,-305.08 433.26,-294.86"/>
<polygon fill="black" stroke="black" points="434.71,-298.05 442.66,-291.04 432.07,-291.56 434.71,-298.05"/>
</g>
<!-- RFC012&#45;&gt;RFC011 -->
<g id="edge20" class="edge">
<title>RFC012&#45;&gt;RFC011</title>
<path fill="none" stroke="black" d="M405.57,-328.6C408.75,-328.06 411.9,-327.52 415,-327 497.48,-313.08 591.78,-297.44 657.49,-286.59"/>
<polygon fill="black" stroke="black" points="658.08,-290.04 667.38,-284.96 656.94,-283.13 658.08,-290.04"/>
</g>
<!-- RFC012&#45;&gt;VC_EXT -->
<g id="edge21" class="edge">
<title>RFC012&#45;&gt;VC_EXT</title>
<path fill="none" stroke="black" d="M405.52,-328.29C408.72,-327.83 411.88,-327.4 415,-327 595.09,-303.64 641.53,-311.21 822,-291 1190.17,-249.78 1278.98,-211.76 1648,-179 1940.89,-153 2018.02,-193.35 2309,-151 2329.46,-148.02 2351.34,-143.21 2371.33,-138.15"/>
<polygon fill="black" stroke="black" points="2372.47,-141.47 2381.28,-135.57 2370.72,-134.69 2372.47,-141.47"/>
</g>
<!-- RFC013 -->
<g id="node10" class="node">
<title>RFC013</title>
<g id="a_node10"><a xlink:href="rfc013-vc-irma-proof" xlink:title="RFC013\nVerifiable Credential IRMA Proof">
<polygon fill="none" stroke="black" points="846,-365 634,-365 634,-327 846,-327 846,-365"/>
<text text-anchor="middle" x="740" y="-349.8" font-family="Helvetica,sans-Serif" font-size="14.00">RFC013</text>
<text text-anchor="middle" x="740" y="-334.8" font-family="Helvetica,sans-Serif" font-size="14.00">Verifiable Credential IRMA Proof</text>
</a>
</g>
</g>
<!-- RFC013&#45;&gt;RFC011 -->
<g id="edge22" class="edge">
<title>RFC013&#45;&gt;RFC011</title>
<path fill="none" stroke="black" d="M740,-326.83C740,-319.13 740,-309.97 740,-301.42"/>
<polygon fill="black" stroke="black" points="743.5,-301.41 740,-291.41 736.5,-301.41 743.5,-301.41"/>
</g>
<!-- RFC013&#45;&gt;VC_EXT -->
<g id="edge23" class="edge">
<title>RFC013&#45;&gt;VC_EXT</title>
<path fill="none" stroke="black" d="M846.1,-342.14C1001.09,-337 1298.25,-323.53 1549,-291 1808.49,-257.33 1869.19,-223.79 2127,-179 2207.63,-164.99 2228.79,-167.23 2309,-151 2327.5,-147.26 2347.29,-142.62 2365.8,-138"/>
<polygon fill="black" stroke="black" points="2366.8,-141.36 2375.64,-135.52 2365.09,-134.57 2366.8,-141.36"/>
</g>
<!-- RFC014 -->
<g id="node11" class="node">
<title>RFC014</title>
<g id="a_node11"><a xlink:href="rfc014-authorization-credential" xlink:title="RFC014\nNuts Authorization Credential">
<polygon fill="none" stroke="black" points="616,-365 424,-365 424,-327 616,-327 616,-365"/>
<text text-anchor="middle" x="520" y="-349.8" font-family="Helvetica,sans-Serif" font-size="14.00">RFC014</text>
<text text-anchor="middle" x="520" y="-334.8" font-family="Helvetica,sans-Serif" font-size="14.00">Nuts Authorization Credential</text>
</a>
</g>
</g>
<!-- RFC014&#45;&gt;RFC001 -->
<g id="edge24" class="edge">
<title>RFC014&#45;&gt;RFC001</title>
<path fill="none" stroke="black" d="M558.59,-326.83C573.19,-318.03 588.54,-306.07 598,-291 609.93,-271.98 627.7,-126.47 634.85,-64.16"/>
<polygon fill="black" stroke="black" points="638.33,-64.56 635.98,-54.23 631.37,-63.77 638.33,-64.56"/>
</g>
<!-- RFC014&#45;&gt;RFC003 -->
<g id="edge25" class="edge">
<title>RFC014&#45;&gt;RFC003</title>
<path fill="none" stroke="black" d="M572.46,-326.96C592.85,-318.24 615.47,-306.29 633,-291 648.23,-277.71 643.75,-267.34 658,-253 669.43,-241.5 683.68,-231.03 697.02,-222.43"/>
<polygon fill="black" stroke="black" points="698.99,-225.33 705.62,-217.07 695.28,-219.39 698.99,-225.33"/>
</g>
<!-- RFC014&#45;&gt;RFC011 -->
<g id="edge26" class="edge">
<title>RFC014&#45;&gt;RFC011</title>
<path fill="none" stroke="black" d="M575.23,-326.92C605.57,-317 643.37,-304.63 675.11,-294.24"/>
<polygon fill="black" stroke="black" points="676.33,-297.52 684.75,-291.08 674.15,-290.87 676.33,-297.52"/>
</g>
<!-- RFC014&#45;&gt;VC_EXT -->
<g id="edge27" class="edge">
<title>RFC014&#45;&gt;VC_EXT</title>
<path fill="none" stroke="black" d="M616.07,-328.13C619.08,-327.73 622.06,-327.35 625,-327 853.25,-299.54 912.38,-315.11 1141,-291 1494.54,-253.72 1579.55,-217.11 1933,-179 2099.61,-161.04 2143.58,-177.79 2309,-151 2329.01,-147.76 2350.41,-142.97 2370.08,-138.02"/>
<polygon fill="black" stroke="black" points="2371.06,-141.38 2379.88,-135.51 2369.32,-134.6 2371.06,-141.38"/>
</g>
<!-- RFC015 -->
<g id="node12" class="node">
<title>RFC015</title>
<g id="a_node12"><a xlink:href="rfc015-node-identity" xlink:title="RFC015\nNode Identity">
<polygon fill="none" stroke="black" points="233,-439 137,-439 137,-401 233,-401 233,-439"/>
<text text-anchor="middle" x="185" y="-423.8" font-family="Helvetica,sans-Serif" font-size="14.00">RFC015</text>
<text text-anchor="middle" x="185" y="-408.8" font-family="Helvetica,sans-Serif" font-size="14.00">Node Identity</text>
</a>
</g>
</g>
<!-- RFC015&#45;&gt;RFC005 -->
<g id="edge28" class="edge">
<title>RFC015&#45;&gt;RFC005</title>
<path fill="none" stroke="black" d="M183.03,-400.78C181.65,-381.78 181.36,-351.43 190,-327 193.43,-317.29 199.2,-307.8 205.26,-299.55"/>
<polygon fill="black" stroke="black" points="208.19,-301.48 211.59,-291.45 202.67,-297.17 208.19,-301.48"/>
</g>
<!-- RFC015&#45;&gt;RFC006 -->
<g id="edge29" class="edge">
<title>RFC015&#45;&gt;RFC006</title>
<path fill="none" stroke="black" d="M186.62,-400.6C189.11,-376.76 194.7,-337.04 205,-327 211.38,-320.77 298.72,-304.64 374.52,-291.62"/>
<polygon fill="black" stroke="black" points="375.39,-295.02 384.65,-289.88 374.21,-288.12 375.39,-295.02"/>
</g>
<!-- RFC017 -->
<g id="node13" class="node">
<title>RFC017</title>
<g id="a_node13"><a xlink:href="rfc017-distributed-network-grpc-v2" xlink:title="RFC017\nV2 Network Protocol">
<polygon fill="none" stroke="black" points="156,-365 16,-365 16,-327 156,-327 156,-365"/>
<text text-anchor="middle" x="86" y="-349.8" font-family="Helvetica,sans-Serif" font-size="14.00">RFC017</text>
<text text-anchor="middle" x="86" y="-334.8" font-family="Helvetica,sans-Serif" font-size="14.00">V2 Network Protocol</text>
</a>
</g>
</g>
<!-- RFC015&#45;&gt;RFC017 -->
<g id="edge30" class="edge">
<title>RFC015&#45;&gt;RFC017</title>
<path fill="none" stroke="black" d="M154.07,-400.83C140.88,-391.88 125.71,-380.96 112.98,-371.3"/>
<polygon fill="black" stroke="black" points="115.08,-368.49 105.02,-365.16 110.81,-374.04 115.08,-368.49"/>
</g>
<!-- RFC015&#45;&gt;DID_EXT -->
<g id="edge31" class="edge">
<title>RFC015&#45;&gt;DID_EXT</title>
<path fill="none" stroke="black" d="M233.28,-417.96C343.97,-414.97 624.27,-403.85 855,-365 1194.25,-307.88 1589.09,-187.39 1741.96,-138.64"/>
<polygon fill="black" stroke="black" points="1743.21,-141.91 1751.67,-135.54 1741.08,-135.25 1743.21,-141.91"/>
</g>
<!-- RFC015&#45;&gt;VC_EXT -->
<g id="edge32" class="edge">
<title>RFC015&#45;&gt;VC_EXT</title>
<path fill="none" stroke="black" d="M233,-417.15C355.26,-412.13 688.21,-396.44 964,-365 1565.4,-296.45 1716.04,-272.6 2309,-151 2327.39,-147.23 2347.06,-142.6 2365.49,-138.01"/>
<polygon fill="black" stroke="black" points="2366.45,-141.38 2375.29,-135.54 2364.74,-134.59 2366.45,-141.38"/>
</g>
<!-- RFC017&#45;&gt;RFC004 -->
<g id="edge33" class="edge">
<title>RFC017&#45;&gt;RFC004</title>
<path fill="none" stroke="black" d="M78.5,-326.65C71.45,-306.1 64.38,-273.06 82,-253 101.98,-230.26 271.51,-214.28 387.89,-205.87"/>
<polygon fill="black" stroke="black" points="388.2,-209.36 397.92,-205.15 387.7,-202.37 388.2,-209.36"/>
</g>
<!-- RFC017&#45;&gt;RFC005 -->
<g id="edge34" class="edge">
<title>RFC017&#45;&gt;RFC005</title>
<path fill="none" stroke="black" d="M122.08,-326.83C140.8,-317.41 163.84,-305.81 183.74,-295.79"/>
<polygon fill="black" stroke="black" points="185.57,-298.79 192.93,-291.16 182.42,-292.53 185.57,-298.79"/>
</g>
<!-- RFC017&#45;&gt;RFC008 -->
<g id="edge35" class="edge">
<title>RFC017&#45;&gt;RFC008</title>
<path fill="none" stroke="black" d="M74.91,-326.92C64.4,-307.22 52.24,-275.5 67,-253 118.43,-174.59 226.09,-141.32 300.44,-127.36"/>
<polygon fill="black" stroke="black" points="301.48,-130.73 310.7,-125.52 300.24,-123.84 301.48,-130.73"/>
</g>
<!-- RFC017&#45;&gt;RFC015 -->
<g id="edge36" class="edge">
<title>RFC017&#45;&gt;RFC015</title>
<path fill="none" stroke="black" d="M116.93,-365.16C130.11,-374.12 145.28,-385.04 158.01,-394.7"/>
<polygon fill="black" stroke="black" points="155.91,-397.5 165.97,-400.83 160.18,-391.96 155.91,-397.5"/>
</g>
</g>
</svg>
