<?xml version="1.0" encoding="UTF-8" standalone="no"?>
<!DOCTYPE svg PUBLIC "-//W3C//DTD SVG 1.1//EN"
 "http://www.w3.org/Graphics/SVG/1.1/DTD/svg11.dtd">
<!-- Generated by graphviz version 8.0.1 (20230327.1645)
 -->
<!-- Title: D Pages: 1 -->
<svg width="2711pt" height="463pt"
 viewBox="0.00 0.00 2711.00 463.00" xmlns="http://www.w3.org/2000/svg" xmlns:xlink="http://www.w3.org/1999/xlink">
<g id="graph0" class="graph" transform="scale(1 1) rotate(0) translate(4 459)">
<title>D</title>
<polygon fill="white" stroke="none" points="-4,4 -4,-459 2707,-459 2707,4 -4,4"/>
<g id="clust1" class="cluster">
<title>cluster_internal</title>
<polygon fill="none" stroke="black" points="8,-8 8,-447 974,-447 974,-8 8,-8"/>
</g>
<g id="clust2" class="cluster">
<title>cluster_external</title>
<polygon fill="none" stroke="black" points="982,-82 982,-151 2695,-151 2695,-82 982,-82"/>
</g>
<!-- RFC001 -->
<g id="node1" class="node">
<title>RFC001</title>
<g id="a_node1"><a xlink:href="rfc001-nuts-start-architecture" xlink:title="RFC001\nNuts Start Architecture">
<polygon fill="none" stroke="black" points="701,-54 549,-54 549,-16 701,-16 701,-54"/>
<text text-anchor="middle" x="625" y="-38.8" font-family="Helvetica,sans-Serif" font-size="14.00">RFC001</text>
<text text-anchor="middle" x="625" y="-23.8" font-family="Helvetica,sans-Serif" font-size="14.00">Nuts Start Architecture</text>
</a>
</g>
</g>
<!-- RFC002 -->
<g id="node2" class="node">
<title>RFC002</title>
<g id="a_node2"><a xlink:href="rfc002-authentication-token" xlink:title="RFC002\nAuthentication token">
<polygon fill="none" stroke="black" points="746.5,-135.5 607.5,-135.5 607.5,-97.5 746.5,-97.5 746.5,-135.5"/>
<text text-anchor="middle" x="677" y="-120.3" font-family="Helvetica,sans-Serif" font-size="14.00">RFC002</text>
<text text-anchor="middle" x="677" y="-105.3" font-family="Helvetica,sans-Serif" font-size="14.00">Authentication token</text>
</a>
</g>
</g>
<!-- RFC002&#45;&gt;RFC001 -->
<g id="edge1" class="edge">
<title>RFC002&#45;&gt;RFC001</title>
<path fill="none" stroke="black" d="M664.94,-97.06C658.38,-87.03 650.13,-74.42 642.84,-63.27"/>
<polygon fill="black" stroke="black" points="645.4,-61.79 637,-55.34 639.54,-65.62 645.4,-61.79"/>
</g>
<!-- RFC003 -->
<g id="node3" class="node">
<title>RFC003</title>
<g id="a_node3"><a xlink:href="rfc003-oauth2-authorization" xlink:title="RFC003\nOAuth2 Authorization">
<polygon fill="none" stroke="black" points="874,-217 728,-217 728,-179 874,-179 874,-217"/>
<text text-anchor="middle" x="801" y="-201.8" font-family="Helvetica,sans-Serif" font-size="14.00">RFC003</text>
<text text-anchor="middle" x="801" y="-186.8" font-family="Helvetica,sans-Serif" font-size="14.00">OAuth2 Authorization</text>
</a>
</g>
</g>
<!-- RFC003&#45;&gt;RFC001 -->
<g id="edge2" class="edge">
<title>RFC003&#45;&gt;RFC001</title>
<path fill="none" stroke="black" d="M798.48,-178.86C794.06,-153.75 782.61,-108.51 755,-82 742.7,-70.19 727.19,-61.39 711.19,-54.84"/>
<polygon fill="black" stroke="black" points="712.79,-51.32 702.2,-51.05 710.31,-57.87 712.79,-51.32"/>
</g>
<!-- RFC003&#45;&gt;RFC002 -->
<g id="edge3" class="edge">
<title>RFC003&#45;&gt;RFC002</title>
<path fill="none" stroke="black" d="M772.24,-178.56C755.1,-167.57 733.16,-153.5 714.65,-141.64"/>
<polygon fill="black" stroke="black" points="716.91,-138.29 706.6,-135.84 713.13,-144.18 716.91,-138.29"/>
</g>
<!-- RFC7662_EXT -->
<g id="node17" class="node">
<title>RFC7662_EXT</title>
<g id="a_node17"><a xlink:href="https://tools.ietf.org/html/rfc7662" xlink:title="RFC7662\nOAuth 2.0 Token Introspection">
<polygon fill="#e0eeee" stroke="black" points="1792.5,-135.5 1593.5,-135.5 1593.5,-97.5 1792.5,-97.5 1792.5,-135.5"/>
<text text-anchor="middle" x="1693" y="-120.3" font-family="Helvetica,sans-Serif" font-size="14.00">RFC7662</text>
<text text-anchor="middle" x="1693" y="-105.3" font-family="Helvetica,sans-Serif" font-size="14.00">OAuth 2.0 Token Introspection</text>
</a>
</g>
</g>
<!-- RFC003&#45;&gt;RFC7662_EXT -->
<g id="edge4" class="edge">
<title>RFC003&#45;&gt;RFC7662_EXT</title>
<path fill="none" stroke="black" d="M874.4,-194.96C1042.24,-189.93 1449.93,-175.54 1585,-151 1600.54,-148.18 1616.97,-143.82 1632.21,-139.17"/>
<polygon fill="black" stroke="black" points="1633.05,-142.26 1641.54,-135.93 1630.95,-135.59 1633.05,-142.26"/>
</g>
<!-- RFC7523_EXT -->
<g id="node18" class="node">
<title>RFC7523_EXT</title>
<g id="a_node18"><a xlink:href="https://tools.ietf.org/html/rfc7523" xlink:title="RFC7523\nJSON Web Token (JWT) Profile\nfor OAuth 2.0 Client Authentication and Authorization Grants">
<polygon fill="#e0eeee" stroke="black" points="1575.5,-143 1196.5,-143 1196.5,-90 1575.5,-90 1575.5,-143"/>
<text text-anchor="middle" x="1386" y="-127.8" font-family="Helvetica,sans-Serif" font-size="14.00">RFC7523</text>
<text text-anchor="middle" x="1386" y="-112.8" font-family="Helvetica,sans-Serif" font-size="14.00">JSON Web Token (JWT) Profile</text>
<text text-anchor="middle" x="1386" y="-97.8" font-family="Helvetica,sans-Serif" font-size="14.00">for OAuth 2.0 Client Authentication and Authorization Grants</text>
</a>
</g>
</g>
<!-- RFC003&#45;&gt;RFC7523_EXT -->
<g id="edge5" class="edge">
<title>RFC003&#45;&gt;RFC7523_EXT</title>
<path fill="none" stroke="black" d="M874.42,-189.31C952.18,-180.93 1078.45,-166.6 1187,-151 1199.66,-149.18 1212.75,-147.2 1225.89,-145.14"/>
<polygon fill="black" stroke="black" points="1226.11,-148.49 1235.44,-143.47 1225.02,-141.58 1226.11,-148.49"/>
</g>
<!-- RFC7515_EXT -->
<g id="node19" class="node">
<title>RFC7515_EXT</title>
<g id="a_node19"><a xlink:href="https://tools.ietf.org/html/rfc7515" xlink:title="RFC7515\nJSON Web Signature (JWS)">
<polygon fill="#e0eeee" stroke="black" points="1178,-135.5 990,-135.5 990,-97.5 1178,-97.5 1178,-135.5"/>
<text text-anchor="middle" x="1084" y="-120.3" font-family="Helvetica,sans-Serif" font-size="14.00">RFC7515</text>
<text text-anchor="middle" x="1084" y="-105.3" font-family="Helvetica,sans-Serif" font-size="14.00">JSON Web Signature (JWS)</text>
</a>
</g>
</g>
<!-- RFC003&#45;&gt;RFC7515_EXT -->
<g id="edge6" class="edge">
<title>RFC003&#45;&gt;RFC7515_EXT</title>
<path fill="none" stroke="black" d="M874.43,-178.82C906.36,-170.69 944.13,-160.75 978,-151 990.73,-147.34 1004.26,-143.23 1017.24,-139.18"/>
<polygon fill="black" stroke="black" points="1018.01,-142.29 1026.5,-135.95 1015.91,-135.61 1018.01,-142.29"/>
</g>
<!-- RFC004 -->
<g id="node4" class="node">
<title>RFC004</title>
<g id="a_node4"><a xlink:href="rfc004-verifiable-transactional-graph" xlink:title="RFC004\nVerifiable Transactional Graph">
<polygon fill="none" stroke="black" points="553,-217 353,-217 353,-179 553,-179 553,-217"/>
<text text-anchor="middle" x="453" y="-201.8" font-family="Helvetica,sans-Serif" font-size="14.00">RFC004</text>
<text text-anchor="middle" x="453" y="-186.8" font-family="Helvetica,sans-Serif" font-size="14.00">Verifiable Transactional Graph</text>
</a>
</g>
</g>
<!-- RFC004&#45;&gt;RFC001 -->
<g id="edge7" class="edge">
<title>RFC004&#45;&gt;RFC001</title>
<path fill="none" stroke="black" d="M469.97,-178.87C491.93,-155.69 531.67,-114.65 568,-82 575.71,-75.07 584.29,-67.89 592.4,-61.32"/>
<polygon fill="black" stroke="black" points="594.34,-63.45 599.96,-54.47 589.96,-57.99 594.34,-63.45"/>
</g>
<!-- RFC008 -->
<g id="node7" class="node">
<title>RFC008</title>
<g id="a_node7"><a xlink:href="rfc008-certificate-structure" xlink:title="RFC008\nCertificate Structure">
<polygon fill="none" stroke="black" points="402,-135.5 266,-135.5 266,-97.5 402,-97.5 402,-135.5"/>
<text text-anchor="middle" x="334" y="-120.3" font-family="Helvetica,sans-Serif" font-size="14.00">RFC008</text>
<text text-anchor="middle" x="334" y="-105.3" font-family="Helvetica,sans-Serif" font-size="14.00">Certificate Structure</text>
</a>
</g>
</g>
<!-- RFC004&#45;&gt;RFC008 -->
<g id="edge9" class="edge">
<title>RFC004&#45;&gt;RFC008</title>
<path fill="none" stroke="black" d="M425.4,-178.56C409.03,-167.62 388.08,-153.63 370.37,-141.8"/>
<polygon fill="black" stroke="black" points="372.71,-138.48 362.45,-135.84 368.82,-144.3 372.71,-138.48"/>
</g>
<!-- RFC004&#45;&gt;RFC7515_EXT -->
<g id="edge8" class="edge">
<title>RFC004&#45;&gt;RFC7515_EXT</title>
<path fill="none" stroke="black" d="M553.37,-189.4C694.14,-178.55 937.59,-159.05 978,-151 992.77,-148.06 1008.39,-143.79 1022.97,-139.29"/>
<polygon fill="black" stroke="black" points="1023.9,-142.35 1032.37,-135.98 1021.78,-135.68 1023.9,-142.35"/>
</g>
<!-- RFC005 -->
<g id="node5" class="node">
<title>RFC005</title>
<g id="a_node5"><a xlink:href="rfc005-distributed-document-network-grpc" xlink:title="RFC005\nDistributed Document Network using gRPC">
<polygon fill="none" stroke="black" points="332,-291 56,-291 56,-253 332,-253 332,-291"/>
<text text-anchor="middle" x="194" y="-275.8" font-family="Helvetica,sans-Serif" font-size="14.00">RFC005</text>
<text text-anchor="middle" x="194" y="-260.8" font-family="Helvetica,sans-Serif" font-size="14.00">Distributed Document Network using gRPC</text>
</a>
</g>
</g>
<!-- RFC005&#45;&gt;RFC004 -->
<g id="edge10" class="edge">
<title>RFC005&#45;&gt;RFC004</title>
<path fill="none" stroke="black" d="M260.36,-252.55C295.85,-242.69 339.7,-230.5 376.6,-220.24"/>
<polygon fill="black" stroke="black" points="377.11,-223.45 385.81,-217.4 375.24,-216.71 377.11,-223.45"/>
</g>
<!-- RFC006 -->
<g id="node6" class="node">
<title>RFC006</title>
<g id="a_node6"><a xlink:href="rfc006-distributed-registry" xlink:title="RFC006\nDistributed Registry using DIDs">
<polygon fill="none" stroke="black" points="554,-291 350,-291 350,-253 554,-253 554,-291"/>
<text text-anchor="middle" x="452" y="-275.8" font-family="Helvetica,sans-Serif" font-size="14.00">RFC006</text>
<text text-anchor="middle" x="452" y="-260.8" font-family="Helvetica,sans-Serif" font-size="14.00">Distributed Registry using DIDs</text>
</a>
</g>
</g>
<!-- RFC006&#45;&gt;RFC004 -->
<g id="edge11" class="edge">
<title>RFC006&#45;&gt;RFC004</title>
<path fill="none" stroke="black" d="M452.25,-252.83C452.36,-245.38 452.48,-236.58 452.59,-228.26"/>
<polygon fill="black" stroke="black" points="456.1,-228.46 452.74,-218.41 449.11,-228.36 456.1,-228.46"/>
</g>
<!-- RFC006&#45;&gt;RFC008 -->
<g id="edge12" class="edge">
<title>RFC006&#45;&gt;RFC008</title>
<path fill="none" stroke="black" d="M389.58,-252.59C372.16,-244.44 355.01,-232.96 344,-217 329.88,-196.52 328.43,-167.81 329.9,-146.48"/>
<polygon fill="black" stroke="black" points="333.45,-147.08 330.91,-136.79 326.48,-146.42 333.45,-147.08"/>
</g>
<!-- DID_EXT -->
<g id="node20" class="node">
<title>DID_EXT</title>
<g id="a_node20"><a xlink:href="https://www.w3.org/TR/2022/REC-did-core-20220719/" xlink:title="W3C DID\nDecentralized Identifiers (DIDs) v1.0">
<polygon fill="#e0eeee" stroke="black" points="2420.5,-135.5 2187.5,-135.5 2187.5,-97.5 2420.5,-97.5 2420.5,-135.5"/>
<text text-anchor="middle" x="2304" y="-120.3" font-family="Helvetica,sans-Serif" font-size="14.00">W3C DID</text>
<text text-anchor="middle" x="2304" y="-105.3" font-family="Helvetica,sans-Serif" font-size="14.00">Decentralized Identifiers (DIDs) v1.0</text>
</a>
</g>
</g>
<!-- RFC006&#45;&gt;DID_EXT -->
<g id="edge13" class="edge">
<title>RFC006&#45;&gt;DID_EXT</title>
<path fill="none" stroke="black" d="M554.18,-256.23C563.91,-255.04 573.63,-253.94 583,-253 936.39,-217.47 1827.47,-208.24 2178,-151 2196.3,-148.01 2215.79,-143.51 2233.84,-138.76"/>
<polygon fill="black" stroke="black" points="2234.53,-141.93 2243.27,-135.95 2232.71,-135.17 2234.53,-141.93"/>
</g>
<!-- RFC011 -->
<g id="node8" class="node">
<title>RFC011</title>
<g id="a_node8"><a xlink:href="rfc011-verifiable-credential" xlink:title="RFC011\nVerifiable Credentials">
<polygon fill="none" stroke="black" points="965.5,-291 820.5,-291 820.5,-253 965.5,-253 965.5,-291"/>
<text text-anchor="middle" x="893" y="-275.8" font-family="Helvetica,sans-Serif" font-size="14.00">RFC011</text>
<text text-anchor="middle" x="893" y="-260.8" font-family="Helvetica,sans-Serif" font-size="14.00">Verifiable Credentials</text>
</a>
</g>
</g>
<!-- RFC011&#45;&gt;RFC003 -->
<g id="edge14" class="edge">
<title>RFC011&#45;&gt;RFC003</title>
<path fill="none" stroke="black" d="M869.78,-252.83C858.65,-244.12 845.13,-233.53 833.03,-224.07"/>
<polygon fill="black" stroke="black" points="835.56,-220.82 825.53,-217.41 831.25,-226.33 835.56,-220.82"/>
</g>
<!-- RFC011&#45;&gt;RFC004 -->
<g id="edge15" class="edge">
<title>RFC011&#45;&gt;RFC004</title>
<path fill="none" stroke="black" d="M820.34,-259.11C750.61,-247.7 644.34,-230.31 564,-217.16"/>
<polygon fill="black" stroke="black" points="564.78,-213.58 554.35,-215.42 563.65,-220.49 564.78,-213.58"/>
</g>
<!-- RFC7779_EXT -->
<g id="node16" class="node">
<title>RFC7779_EXT</title>
<g id="a_node16"><a xlink:href="https://datatracker.ietf.org/doc/html/rfc7797" xlink:title="RFC7779\nJSON Web Signature (JWS) Unencoded Payload Option">
<polygon fill="#e0eeee" stroke="black" points="2169,-135.5 1811,-135.5 1811,-97.5 2169,-97.5 2169,-135.5"/>
<text text-anchor="middle" x="1990" y="-120.3" font-family="Helvetica,sans-Serif" font-size="14.00">RFC7779</text>
<text text-anchor="middle" x="1990" y="-105.3" font-family="Helvetica,sans-Serif" font-size="14.00">JSON Web Signature (JWS) Unencoded Payload Option</text>
</a>
</g>
</g>
<!-- RFC011&#45;&gt;RFC7779_EXT -->
<g id="edge16" class="edge">
<title>RFC011&#45;&gt;RFC7779_EXT</title>
<path fill="none" stroke="black" d="M965.92,-262.51C1120.4,-244.26 1491.92,-199.07 1802,-151 1827.48,-147.05 1854.84,-142.41 1880.57,-137.86"/>
<polygon fill="black" stroke="black" points="1880.87,-141.18 1890.11,-135.98 1879.65,-134.29 1880.87,-141.18"/>
</g>
<!-- VC_EXT -->
<g id="node21" class="node">
<title>VC_EXT</title>
<g id="a_node21"><a xlink:href="https://www.w3.org/TR/2022/REC-vc-data-model-20220303/" xlink:title="W3C VC\nVerifiable Credentials Data Model v1.1">
<polygon fill="#e0eeee" stroke="black" points="2687,-135.5 2439,-135.5 2439,-97.5 2687,-97.5 2687,-135.5"/>
<text text-anchor="middle" x="2563" y="-120.3" font-family="Helvetica,sans-Serif" font-size="14.00">W3C VC</text>
<text text-anchor="middle" x="2563" y="-105.3" font-family="Helvetica,sans-Serif" font-size="14.00">Verifiable Credentials Data Model v1.1</text>
</a>
</g>
</g>
<!-- RFC011&#45;&gt;VC_EXT -->
<g id="edge17" class="edge">
<title>RFC011&#45;&gt;VC_EXT</title>
<path fill="none" stroke="black" d="M965.85,-269.15C1180.07,-263.46 1805.57,-244.85 2008,-217 2082.98,-206.68 2099.37,-191.58 2174,-179 2286.86,-159.98 2317.35,-171.25 2430,-151 2448.6,-147.66 2468.45,-143.17 2486.99,-138.56"/>
<polygon fill="black" stroke="black" points="2487.59,-141.77 2496.43,-135.92 2485.88,-134.98 2487.59,-141.77"/>
</g>
<!-- RFC012 -->
<g id="node9" class="node">
<title>RFC012</title>
<g id="a_node9"><a xlink:href="rfc012-nuts-organization-credential" xlink:title="RFC012\nNuts Organization Credential">
<polygon fill="none" stroke="black" points="525.5,-365 334.5,-365 334.5,-327 525.5,-327 525.5,-365"/>
<text text-anchor="middle" x="430" y="-349.8" font-family="Helvetica,sans-Serif" font-size="14.00">RFC012</text>
<text text-anchor="middle" x="430" y="-334.8" font-family="Helvetica,sans-Serif" font-size="14.00">Nuts Organization Credential</text>
</a>
</g>
</g>
<!-- RFC012&#45;&gt;RFC003 -->
<g id="edge18" class="edge">
<title>RFC012&#45;&gt;RFC003</title>
<path fill="none" stroke="black" d="M525.84,-328.5C528.93,-327.99 531.99,-327.49 535,-327 587.37,-318.52 730.54,-325.32 771,-291 776.02,-286.74 786.15,-253.19 793.24,-227.82"/>
<polygon fill="black" stroke="black" points="796.88,-228.79 796.16,-218.22 790.13,-226.93 796.88,-228.79"/>
</g>
<!-- RFC012&#45;&gt;RFC006 -->
<g id="edge19" class="edge">
<title>RFC012&#45;&gt;RFC006</title>
<path fill="none" stroke="black" d="M435.55,-326.83C437.88,-319.22 440.64,-310.18 443.23,-301.7"/>
<polygon fill="black" stroke="black" points="446.8,-303 446.37,-292.41 440.1,-300.95 446.8,-303"/>
</g>
<!-- RFC012&#45;&gt;RFC011 -->
<g id="edge20" class="edge">
<title>RFC012&#45;&gt;RFC011</title>
<path fill="none" stroke="black" d="M525.83,-328.46C528.92,-327.96 531.99,-327.47 535,-327 646.33,-309.48 674.65,-308.35 786,-291 793.61,-289.81 801.53,-288.55 809.45,-287.26"/>
<polygon fill="black" stroke="black" points="809.93,-290.56 819.23,-285.49 808.79,-283.65 809.93,-290.56"/>
</g>
<!-- RFC012&#45;&gt;VC_EXT -->
<g id="edge21" class="edge">
<title>RFC012&#45;&gt;VC_EXT</title>
<path fill="none" stroke="black" d="M525.79,-328.17C528.89,-327.76 531.97,-327.36 535,-327 882.23,-285.18 1758.45,-264.12 2105,-217 2239.56,-198.7 2393.33,-161.97 2484.07,-138.62"/>
<polygon fill="black" stroke="black" points="2484.74,-141.81 2493.54,-135.91 2482.99,-135.03 2484.74,-141.81"/>
</g>
<!-- RFC013 -->
<g id="node10" class="node">
<title>RFC013</title>
<g id="a_node10"><a xlink:href="rfc013-vc-irma-proof" xlink:title="RFC013\nVerifiable Credential IRMA Proof">
<polygon fill="none" stroke="black" points="966,-365 754,-365 754,-327 966,-327 966,-365"/>
<text text-anchor="middle" x="860" y="-349.8" font-family="Helvetica,sans-Serif" font-size="14.00">RFC013</text>
<text text-anchor="middle" x="860" y="-334.8" font-family="Helvetica,sans-Serif" font-size="14.00">Verifiable Credential IRMA Proof</text>
</a>
</g>
</g>
<!-- RFC013&#45;&gt;RFC011 -->
<g id="edge22" class="edge">
<title>RFC013&#45;&gt;RFC011</title>
<path fill="none" stroke="black" d="M868.33,-326.83C871.9,-319.05 876.15,-309.77 880.1,-301.13"/>
<polygon fill="black" stroke="black" points="883.58,-302.96 884.56,-292.41 877.21,-300.05 883.58,-302.96"/>
</g>
<!-- RFC013&#45;&gt;VC_EXT -->
<g id="edge23" class="edge">
<title>RFC013&#45;&gt;VC_EXT</title>
<path fill="none" stroke="black" d="M966.38,-343.82C1271.75,-340.02 2137.1,-326.25 2260,-291 2368.24,-259.96 2478.93,-182.62 2531.53,-142.51"/>
<polygon fill="black" stroke="black" points="2533.27,-144.81 2539.06,-135.94 2529,-139.27 2533.27,-144.81"/>
</g>
<!-- RFC014 -->
<g id="node11" class="node">
<title>RFC014</title>
<g id="a_node11"><a xlink:href="rfc014-authorization-credential" xlink:title="RFC014\nNuts Authorization Credential">
<polygon fill="none" stroke="black" points="736,-365 544,-365 544,-327 736,-327 736,-365"/>
<text text-anchor="middle" x="640" y="-349.8" font-family="Helvetica,sans-Serif" font-size="14.00">RFC014</text>
<text text-anchor="middle" x="640" y="-334.8" font-family="Helvetica,sans-Serif" font-size="14.00">Nuts Authorization Credential</text>
</a>
</g>
</g>
<!-- RFC014&#45;&gt;RFC001 -->
<g id="edge24" class="edge">
<title>RFC014&#45;&gt;RFC001</title>
<path fill="none" stroke="black" d="M612.21,-326.52C600.91,-317.33 589.09,-305.15 583,-291 566.94,-253.65 546.91,-241.97 598,-82 599.99,-75.78 602.92,-69.5 606.14,-63.67"/>
<polygon fill="black" stroke="black" points="609.58,-65.73 611.7,-55.35 603.57,-62.15 609.58,-65.73"/>
</g>
<!-- RFC014&#45;&gt;RFC003 -->
<g id="edge25" class="edge">
<title>RFC014&#45;&gt;RFC003</title>
<path fill="none" stroke="black" d="M734.16,-326.58C753.81,-318.64 772.6,-307.27 786,-291 800.28,-273.67 803.48,-248.09 803.43,-228.31"/>
<polygon fill="black" stroke="black" points="806.9,-228.31 803.08,-218.43 799.9,-228.54 806.9,-228.31"/>
</g>
<!-- RFC014&#45;&gt;RFC011 -->
<g id="edge26" class="edge">
<title>RFC014&#45;&gt;RFC011</title>
<path fill="none" stroke="black" d="M704.83,-326.55C739.34,-316.73 781.96,-304.6 817.91,-294.37"/>
<polygon fill="black" stroke="black" points="818.68,-297.5 827.34,-291.4 816.77,-290.77 818.68,-297.5"/>
</g>
<!-- RFC014&#45;&gt;VC_EXT -->
<g id="edge27" class="edge">
<title>RFC014&#45;&gt;VC_EXT</title>
<path fill="none" stroke="black" d="M736.34,-327.93C739.25,-327.59 742.15,-327.28 745,-327 906.17,-311.28 2047.41,-339.22 2202,-291 2231.42,-281.82 2233.04,-267.92 2260,-253 2328.91,-214.87 2349.09,-211.1 2421,-179 2450.26,-165.94 2483.08,-151.7 2509.78,-140.22"/>
<polygon fill="black" stroke="black" points="2510.89,-143.12 2518.7,-135.96 2508.13,-136.69 2510.89,-143.12"/>
</g>
<!-- RFC015 -->
<g id="node12" class="node">
<title>RFC015</title>
<g id="a_node12"><a xlink:href="rfc015-node-identity" xlink:title="RFC015\nNode Identity">
<polygon fill="none" stroke="black" points="333,-439 237,-439 237,-401 333,-401 333,-439"/>
<text text-anchor="middle" x="285" y="-423.8" font-family="Helvetica,sans-Serif" font-size="14.00">RFC015</text>
<text text-anchor="middle" x="285" y="-408.8" font-family="Helvetica,sans-Serif" font-size="14.00">Node Identity</text>
</a>
</g>
</g>
<!-- RFC015&#45;&gt;RFC005 -->
<g id="edge28" class="edge">
<title>RFC015&#45;&gt;RFC005</title>
<path fill="none" stroke="black" d="M284.69,-400.65C283.56,-381.01 279.4,-349.61 265,-327 257.78,-315.67 247.31,-305.83 236.61,-297.75"/>
<polygon fill="black" stroke="black" points="238.82,-294.32 228.64,-291.39 234.78,-300.03 238.82,-294.32"/>
</g>
<!-- RFC015&#45;&gt;RFC006 -->
<g id="edge29" class="edge">
<title>RFC015&#45;&gt;RFC006</title>
<path fill="none" stroke="black" d="M285.23,-400.8C286.45,-380.39 291.44,-347.48 310,-327 322.29,-313.44 338.35,-303.27 355.23,-295.64"/>
<polygon fill="black" stroke="black" points="356.38,-298.53 364.24,-291.43 353.67,-292.08 356.38,-298.53"/>
</g>
<!-- RFC017 -->
<g id="node13" class="node">
<title>RFC017</title>
<g id="a_node13"><a xlink:href="rfc017-distributed-network-grpc-v2" xlink:title="RFC017\nV2 Network Protocol">
<polygon fill="none" stroke="black" points="256,-365 116,-365 116,-327 256,-327 256,-365"/>
<text text-anchor="middle" x="186" y="-349.8" font-family="Helvetica,sans-Serif" font-size="14.00">RFC017</text>
<text text-anchor="middle" x="186" y="-334.8" font-family="Helvetica,sans-Serif" font-size="14.00">V2 Network Protocol</text>
</a>
</g>
</g>
<!-- RFC015&#45;&gt;RFC017 -->
<g id="edge30" class="edge">
<title>RFC015&#45;&gt;RFC017</title>
<path fill="none" stroke="black" d="M253.79,-400.65C240.97,-391.93 226.3,-381.38 213.84,-371.95"/>
<polygon fill="black" stroke="black" points="216.29,-368.64 206.22,-365.32 212.02,-374.19 216.29,-368.64"/>
</g>
<!-- RFC015&#45;&gt;DID_EXT -->
<g id="edge31" class="edge">
<title>RFC015&#45;&gt;DID_EXT</title>
<path fill="none" stroke="black" d="M333.23,-412.56C362.61,-408.79 400.92,-404.18 435,-401 674.49,-378.66 736.23,-394.11 975,-365 1514.07,-299.28 1647.79,-268.43 2178,-151 2194.47,-147.35 2212.03,-142.99 2228.65,-138.64"/>
<polygon fill="black" stroke="black" points="2229.09,-141.88 2237.86,-135.93 2227.3,-135.11 2229.09,-141.88"/>
</g>
<!-- RFC015&#45;&gt;VC_EXT -->
<g id="edge32" class="edge">
<title>RFC015&#45;&gt;VC_EXT</title>
<path fill="none" stroke="black" d="M333.22,-412.37C362.58,-408.55 400.9,-403.93 435,-401 742.73,-374.59 820.64,-382.57 1129,-365 1658.94,-334.81 1809.2,-431.74 2321,-291 2390.38,-271.92 2407.02,-259.62 2465,-217 2494.02,-195.67 2522.35,-165.6 2541.03,-144.1"/>
<polygon fill="black" stroke="black" points="2544.33,-146.63 2548.18,-136.76 2539.02,-142.08 2544.33,-146.63"/>
</g>
<!-- RFC017&#45;&gt;RFC004 -->
<g id="edge33" class="edge">
<title>RFC017&#45;&gt;RFC004</title>
<path fill="none" stroke="black" d="M115.81,-334.75C89.74,-327.17 62.72,-313.97 47,-291 37.46,-277.06 35.87,-265.71 47,-253 66.26,-231.01 228.3,-214.99 341.75,-206.34"/>
<polygon fill="black" stroke="black" points="341.86,-209.77 351.57,-205.53 341.33,-202.79 341.86,-209.77"/>
</g>
<!-- RFC017&#45;&gt;RFC005 -->
<g id="edge34" class="edge">
<title>RFC017&#45;&gt;RFC005</title>
<path fill="none" stroke="black" d="M188.02,-326.83C188.85,-319.38 189.82,-310.58 190.75,-302.26"/>
<polygon fill="black" stroke="black" points="194.33,-302.74 191.95,-292.41 187.37,-301.97 194.33,-302.74"/>
</g>
<!-- RFC017&#45;&gt;RFC008 -->
<g id="edge35" class="edge">
<title>RFC017&#45;&gt;RFC008</title>
<path fill="none" stroke="black" d="M115.88,-337.51C86.15,-330.46 54.22,-316.93 36,-291 26.29,-277.18 26.86,-267.2 36,-253 83.99,-178.46 184.14,-144.45 255.07,-129.25"/>
<polygon fill="black" stroke="black" points="255.66,-132.5 264.75,-127.06 254.25,-125.64 255.66,-132.5"/>
</g>
<!-- RFC017&#45;&gt;RFC015 -->
<g id="edge36" class="edge">
<title>RFC017&#45;&gt;RFC015</title>
<path fill="none" stroke="black" d="M217.29,-365.41C230.16,-374.16 244.88,-384.75 257.35,-394.2"/>
<polygon fill="black" stroke="black" points="254.91,-397.51 264.97,-400.83 259.18,-391.96 254.91,-397.51"/>
</g>
<!-- RFC019 -->
<g id="node14" class="node">
<title>RFC019</title>
<g id="a_node14"><a xlink:href="rfc019-employee-identity-means" xlink:title="RFC019\nEmployee Identity Means">
<polygon fill="none" stroke="black" points="762,-291 592,-291 592,-253 762,-253 762,-291"/>
<text text-anchor="middle" x="677" y="-275.8" font-family="Helvetica,sans-Serif" font-size="14.00">RFC019</text>
<text text-anchor="middle" x="677" y="-260.8" font-family="Helvetica,sans-Serif" font-size="14.00">Employee Identity Means</text>
</a>
</g>
</g>
<!-- RFC019&#45;&gt;RFC002 -->
<g id="edge38" class="edge">
<title>RFC019&#45;&gt;RFC002</title>
<path fill="none" stroke="black" d="M677,-252.79C677,-226.48 677,-177.57 677,-146.32"/>
<polygon fill="black" stroke="black" points="680.5,-146.69 677,-136.69 673.5,-146.69 680.5,-146.69"/>
</g>
<!-- RFC019&#45;&gt;RFC003 -->
<g id="edge39" class="edge">
<title>RFC019&#45;&gt;RFC003</title>
<path fill="none" stroke="black" d="M708.61,-252.65C724.35,-243.51 743.57,-232.35 760.39,-222.58"/>
<polygon fill="black" stroke="black" points="761.56,-225.37 768.45,-217.32 758.04,-219.32 761.56,-225.37"/>
</g>
<!-- RFC019&#45;&gt;VC_EXT -->
<g id="edge37" class="edge">
<title>RFC019&#45;&gt;VC_EXT</title>
<path fill="none" stroke="black" d="M762.21,-258.51C778.7,-256.41 795.87,-254.45 812,-253 1154.99,-222.21 1242.43,-240.45 1586,-217 1773.88,-204.18 1820.26,-193.68 2008,-179 2195.4,-164.35 2244.33,-180.3 2430,-151 2449.35,-147.95 2470,-143.4 2489.11,-138.63"/>
<polygon fill="black" stroke="black" points="2489.73,-141.83 2498.55,-135.96 2488,-135.04 2489.73,-141.83"/>
</g>
<!-- RFC020 -->
<g id="node15" class="node">
<title>RFC020</title>
<g id="a_node15"><a xlink:href="rfc020-authorization-credential-extension" xlink:title="RFC020\nAuthorization Credential Extension">
<polygon fill="none" stroke="black" points="668,-439 444,-439 444,-401 668,-401 668,-439"/>
<text text-anchor="middle" x="556" y="-423.8" font-family="Helvetica,sans-Serif" font-size="14.00">RFC020</text>
<text text-anchor="middle" x="556" y="-408.8" font-family="Helvetica,sans-Serif" font-size="14.00">Authorization Credential Extension</text>
</a>
</g>
</g>
<!-- RFC020&#45;&gt;RFC014 -->
<g id="edge40" class="edge">
<title>RFC020&#45;&gt;RFC014</title>
<path fill="none" stroke="black" d="M577.2,-400.83C587.27,-392.2 599.47,-381.74 610.43,-372.34"/>
<polygon fill="black" stroke="black" points="612.2,-374.58 617.52,-365.41 607.65,-369.26 612.2,-374.58"/>
</g>
<!-- RFC020&#45;&gt;RFC019 -->
<g id="edge41" class="edge">
<title>RFC020&#45;&gt;RFC019</title>
<path fill="none" stroke="black" d="M443.52,-409.33C365.93,-398.3 283.62,-375.11 325,-327 359.88,-286.45 510.14,-299.17 563,-291 568.96,-290.08 575.1,-289.12 581.29,-288.16"/>
<polygon fill="black" stroke="black" points="581.39,-291.53 590.73,-286.53 580.31,-284.61 581.39,-291.53"/>
</g>
</g>
</svg>
