<?xml version="1.0" encoding="UTF-8" standalone="no"?>
<!DOCTYPE svg PUBLIC "-//W3C//DTD SVG 1.1//EN"
 "http://www.w3.org/Graphics/SVG/1.1/DTD/svg11.dtd">
<!-- Generated by graphviz version 2.43.0 (0)
 -->
<!-- Title: D Pages: 1 -->
<svg width="1969pt" height="378pt"
 viewBox="0.00 0.00 1969.00 378.00" xmlns="http://www.w3.org/2000/svg" xmlns:xlink="http://www.w3.org/1999/xlink">
<g id="graph0" class="graph" transform="scale(1 1) rotate(0) translate(4 374)">
<title>D</title>
<polygon fill="white" stroke="transparent" points="-4,4 -4,-374 1965,-374 1965,4 -4,4"/>
<g id="clust1" class="cluster">
<title>cluster_internal</title>
<polygon fill="none" stroke="black" points="8,-8 8,-362 722,-362 722,-8 8,-8"/>
</g>
<g id="clust2" class="cluster">
<title>cluster_external</title>
<polygon fill="none" stroke="black" points="730,-80 730,-146 1953,-146 1953,-80 730,-80"/>
</g>
<!-- RFC001 -->
<g id="node1" class="node">
<title>RFC001</title>
<g id="a_node1"><a xlink:href="rfc001-nuts-start-architecture" xlink:title="RFC001\nNuts Start Architecture">
<polygon fill="none" stroke="black" points="628.06,-52 471.94,-52 471.94,-16 628.06,-16 628.06,-52"/>
<text text-anchor="middle" x="550" y="-36.8" font-family="Helvetica,sans-Serif" font-size="14.00">RFC001</text>
<text text-anchor="middle" x="550" y="-22.8" font-family="Helvetica,sans-Serif" font-size="14.00">Nuts Start Architecture</text>
</a>
</g>
</g>
<!-- RFC002 -->
<g id="node2" class="node">
<title>RFC002</title>
<g id="a_node2"><a xlink:href="rfc002-authentication-token" xlink:title="RFC002\nAuthentication token">
<polygon fill="none" stroke="black" points="621.37,-131 478.63,-131 478.63,-95 621.37,-95 621.37,-131"/>
<text text-anchor="middle" x="550" y="-115.8" font-family="Helvetica,sans-Serif" font-size="14.00">RFC002</text>
<text text-anchor="middle" x="550" y="-101.8" font-family="Helvetica,sans-Serif" font-size="14.00">Authentication token</text>
</a>
</g>
</g>
<!-- RFC002&#45;&gt;RFC001 -->
<g id="edge1" class="edge">
<title>RFC002&#45;&gt;RFC001</title>
<path fill="none" stroke="black" d="M550,-94.91C550,-85.34 550,-73.18 550,-62.32"/>
<polygon fill="black" stroke="black" points="553.5,-62.04 550,-52.04 546.5,-62.04 553.5,-62.04"/>
</g>
<!-- RFC003 -->
<g id="node3" class="node">
<title>RFC003</title>
<g id="a_node3"><a xlink:href="rfc003-oauth2-authorization" xlink:title="RFC003\nOAuth2 Authorization">
<polygon fill="none" stroke="black" points="714.32,-210 565.68,-210 565.68,-174 714.32,-174 714.32,-210"/>
<text text-anchor="middle" x="640" y="-194.8" font-family="Helvetica,sans-Serif" font-size="14.00">RFC003</text>
<text text-anchor="middle" x="640" y="-180.8" font-family="Helvetica,sans-Serif" font-size="14.00">OAuth2 Authorization</text>
</a>
</g>
</g>
<!-- RFC003&#45;&gt;RFC001 -->
<g id="edge2" class="edge">
<title>RFC003&#45;&gt;RFC001</title>
<path fill="none" stroke="black" d="M643.1,-173.63C646.29,-150.34 648.49,-108.59 630,-80 624.04,-70.78 615.49,-63.26 606.18,-57.2"/>
<polygon fill="black" stroke="black" points="607.85,-54.12 597.46,-52.03 604.28,-60.15 607.85,-54.12"/>
</g>
<!-- RFC003&#45;&gt;RFC002 -->
<g id="edge3" class="edge">
<title>RFC003&#45;&gt;RFC002</title>
<path fill="none" stroke="black" d="M620.03,-173.91C607.56,-163.24 591.33,-149.36 577.64,-137.65"/>
<polygon fill="black" stroke="black" points="579.79,-134.88 569.92,-131.04 575.24,-140.2 579.79,-134.88"/>
</g>
<!-- RFC7662_EXT -->
<g id="node13" class="node">
<title>RFC7662_EXT</title>
<g id="a_node13"><a xlink:href="https://tools.ietf.org/html/rfc7662" xlink:title="RFC7662\nOAuth 2.0 Token Introspection">
<polygon fill="#e0eeee" stroke="black" points="1559.09,-131 1354.91,-131 1354.91,-95 1559.09,-95 1559.09,-131"/>
<text text-anchor="middle" x="1457" y="-115.8" font-family="Helvetica,sans-Serif" font-size="14.00">RFC7662</text>
<text text-anchor="middle" x="1457" y="-101.8" font-family="Helvetica,sans-Serif" font-size="14.00">OAuth 2.0 Token Introspection</text>
</a>
</g>
</g>
<!-- RFC003&#45;&gt;RFC7662_EXT -->
<g id="edge4" class="edge">
<title>RFC003&#45;&gt;RFC7662_EXT</title>
<path fill="none" stroke="black" d="M714.31,-191.54C843.67,-191.3 1118.21,-185.61 1346,-146 1362.69,-143.1 1380.45,-138.63 1396.76,-133.94"/>
<polygon fill="black" stroke="black" points="1398.1,-137.19 1406.7,-131 1396.12,-130.48 1398.1,-137.19"/>
</g>
<!-- RFC7523_EXT -->
<g id="node14" class="node">
<title>RFC7523_EXT</title>
<g id="a_node14"><a xlink:href="https://tools.ietf.org/html/rfc7523" xlink:title="RFC7523\nJSON Web Token (JWT) Profile\nfor OAuth 2.0 Client Authentication and Authorization Grants">
<polygon fill="#e0eeee" stroke="black" points="1337.3,-138 948.7,-138 948.7,-88 1337.3,-88 1337.3,-138"/>
<text text-anchor="middle" x="1143" y="-122.8" font-family="Helvetica,sans-Serif" font-size="14.00">RFC7523</text>
<text text-anchor="middle" x="1143" y="-108.8" font-family="Helvetica,sans-Serif" font-size="14.00">JSON Web Token (JWT) Profile</text>
<text text-anchor="middle" x="1143" y="-94.8" font-family="Helvetica,sans-Serif" font-size="14.00">for OAuth 2.0 Client Authentication and Authorization Grants</text>
</a>
</g>
</g>
<!-- RFC003&#45;&gt;RFC7523_EXT -->
<g id="edge5" class="edge">
<title>RFC003&#45;&gt;RFC7523_EXT</title>
<path fill="none" stroke="black" d="M714.36,-179.94C774.87,-170.91 862.47,-157.76 939,-146 952.4,-143.94 966.3,-141.79 980.24,-139.62"/>
<polygon fill="black" stroke="black" points="981.06,-143.04 990.4,-138.04 979.98,-136.12 981.06,-143.04"/>
</g>
<!-- RFC7515_EXT -->
<g id="node15" class="node">
<title>RFC7515_EXT</title>
<g id="a_node15"><a xlink:href="https://tools.ietf.org/html/rfc7515" xlink:title="RFC7515\nJSON Web Signature (JWS)">
<polygon fill="#e0eeee" stroke="black" points="930.35,-131 737.65,-131 737.65,-95 930.35,-95 930.35,-131"/>
<text text-anchor="middle" x="834" y="-115.8" font-family="Helvetica,sans-Serif" font-size="14.00">RFC7515</text>
<text text-anchor="middle" x="834" y="-101.8" font-family="Helvetica,sans-Serif" font-size="14.00">JSON Web Signature (JWS)</text>
</a>
</g>
</g>
<!-- RFC003&#45;&gt;RFC7515_EXT -->
<g id="edge6" class="edge">
<title>RFC003&#45;&gt;RFC7515_EXT</title>
<path fill="none" stroke="black" d="M683.05,-173.91C712.19,-162.35 750.85,-147 781.74,-134.74"/>
<polygon fill="black" stroke="black" points="783.06,-137.98 791.07,-131.04 780.48,-131.48 783.06,-137.98"/>
</g>
<!-- RFC004 -->
<g id="node4" class="node">
<title>RFC004</title>
<g id="a_node4"><a xlink:href="rfc004-verifiable-transactional-graph" xlink:title="RFC004\nVerifiable Transactional Graph">
<polygon fill="none" stroke="black" points="517.57,-210 314.43,-210 314.43,-174 517.57,-174 517.57,-210"/>
<text text-anchor="middle" x="416" y="-194.8" font-family="Helvetica,sans-Serif" font-size="14.00">RFC004</text>
<text text-anchor="middle" x="416" y="-180.8" font-family="Helvetica,sans-Serif" font-size="14.00">Verifiable Transactional Graph</text>
</a>
</g>
</g>
<!-- RFC004&#45;&gt;RFC001 -->
<g id="edge7" class="edge">
<title>RFC004&#45;&gt;RFC001</title>
<path fill="none" stroke="black" d="M420.82,-173.7C428.13,-150.1 443.99,-107.61 470,-80 478.45,-71.03 489.1,-63.37 499.84,-57.05"/>
<polygon fill="black" stroke="black" points="501.8,-59.97 508.85,-52.06 498.4,-53.85 501.8,-59.97"/>
</g>
<!-- RFC008 -->
<g id="node7" class="node">
<title>RFC008</title>
<g id="a_node7"><a xlink:href="rfc008-certificate-structure" xlink:title="RFC008\nCertificate Structure">
<polygon fill="none" stroke="black" points="293.71,-131 154.29,-131 154.29,-95 293.71,-95 293.71,-131"/>
<text text-anchor="middle" x="224" y="-115.8" font-family="Helvetica,sans-Serif" font-size="14.00">RFC008</text>
<text text-anchor="middle" x="224" y="-101.8" font-family="Helvetica,sans-Serif" font-size="14.00">Certificate Structure</text>
</a>
</g>
</g>
<!-- RFC004&#45;&gt;RFC008 -->
<g id="edge9" class="edge">
<title>RFC004&#45;&gt;RFC008</title>
<path fill="none" stroke="black" d="M373.39,-173.91C344.68,-162.4 306.63,-147.14 276.11,-134.9"/>
<polygon fill="black" stroke="black" points="277.08,-131.51 266.49,-131.04 274.47,-138.01 277.08,-131.51"/>
</g>
<!-- RFC004&#45;&gt;RFC7515_EXT -->
<g id="edge8" class="edge">
<title>RFC004&#45;&gt;RFC7515_EXT</title>
<path fill="none" stroke="black" d="M517.81,-177.83C592.5,-167.86 687.36,-154.48 726,-146 741.12,-142.68 757.22,-138.35 772.24,-133.96"/>
<polygon fill="black" stroke="black" points="773.35,-137.28 781.93,-131.07 771.35,-130.57 773.35,-137.28"/>
</g>
<!-- RFC005 -->
<g id="node5" class="node">
<title>RFC005</title>
<g id="a_node5"><a xlink:href="rfc005-distributed-document-network-grpc" xlink:title="RFC005\nDistributed Document Network using gRPC">
<polygon fill="none" stroke="black" points="528.44,-282 243.56,-282 243.56,-246 528.44,-246 528.44,-282"/>
<text text-anchor="middle" x="386" y="-266.8" font-family="Helvetica,sans-Serif" font-size="14.00">RFC005</text>
<text text-anchor="middle" x="386" y="-252.8" font-family="Helvetica,sans-Serif" font-size="14.00">Distributed Document Network using gRPC</text>
</a>
</g>
</g>
<!-- RFC005&#45;&gt;RFC004 -->
<g id="edge10" class="edge">
<title>RFC005&#45;&gt;RFC004</title>
<path fill="none" stroke="black" d="M393.42,-245.7C396.79,-237.81 400.87,-228.3 404.62,-219.55"/>
<polygon fill="black" stroke="black" points="407.95,-220.67 408.67,-210.1 401.51,-217.92 407.95,-220.67"/>
</g>
<!-- RFC006 -->
<g id="node6" class="node">
<title>RFC006</title>
<g id="a_node6"><a xlink:href="rfc006-distributed-registry" xlink:title="RFC006\nDistributed Registry using DIDs">
<polygon fill="none" stroke="black" points="226.01,-282 15.99,-282 15.99,-246 226.01,-246 226.01,-282"/>
<text text-anchor="middle" x="121" y="-266.8" font-family="Helvetica,sans-Serif" font-size="14.00">RFC006</text>
<text text-anchor="middle" x="121" y="-252.8" font-family="Helvetica,sans-Serif" font-size="14.00">Distributed Registry using DIDs</text>
</a>
</g>
</g>
<!-- RFC006&#45;&gt;RFC004 -->
<g id="edge11" class="edge">
<title>RFC006&#45;&gt;RFC004</title>
<path fill="none" stroke="black" d="M192.79,-245.97C235.52,-235.83 289.88,-222.93 334.26,-212.4"/>
<polygon fill="black" stroke="black" points="335.22,-215.76 344.15,-210.05 333.61,-208.95 335.22,-215.76"/>
</g>
<!-- RFC006&#45;&gt;RFC008 -->
<g id="edge12" class="edge">
<title>RFC006&#45;&gt;RFC008</title>
<path fill="none" stroke="black" d="M132.82,-245.91C150.8,-219.89 185.18,-170.16 206.2,-139.75"/>
<polygon fill="black" stroke="black" points="209.2,-141.57 212.01,-131.35 203.44,-137.59 209.2,-141.57"/>
</g>
<!-- RFC009 -->
<g id="node8" class="node">
<title>RFC009</title>
<g id="a_node8"><a xlink:href="rfc009-verifiable-presentations" xlink:title="RFC009\nVerifiable Presentations">
<polygon fill="none" stroke="black" points="713.6,-354 550.4,-354 550.4,-318 713.6,-318 713.6,-354"/>
<text text-anchor="middle" x="632" y="-338.8" font-family="Helvetica,sans-Serif" font-size="14.00">RFC009</text>
<text text-anchor="middle" x="632" y="-324.8" font-family="Helvetica,sans-Serif" font-size="14.00">Verifiable Presentations</text>
</a>
</g>
</g>
<!-- RFC011 -->
<g id="node9" class="node">
<title>RFC011</title>
<g id="a_node9"><a xlink:href="rfc011-verifiable-credential" xlink:title="RFC011\nVerifiable Credentials">
<polygon fill="none" stroke="black" points="714.3,-282 565.7,-282 565.7,-246 714.3,-246 714.3,-282"/>
<text text-anchor="middle" x="640" y="-266.8" font-family="Helvetica,sans-Serif" font-size="14.00">RFC011</text>
<text text-anchor="middle" x="640" y="-252.8" font-family="Helvetica,sans-Serif" font-size="14.00">Verifiable Credentials</text>
</a>
</g>
</g>
<!-- RFC011&#45;&gt;RFC003 -->
<g id="edge13" class="edge">
<title>RFC011&#45;&gt;RFC003</title>
<path fill="none" stroke="black" d="M640,-245.7C640,-237.98 640,-228.71 640,-220.11"/>
<polygon fill="black" stroke="black" points="643.5,-220.1 640,-210.1 636.5,-220.1 643.5,-220.1"/>
</g>
<!-- RFC011&#45;&gt;RFC004 -->
<g id="edge14" class="edge">
<title>RFC011&#45;&gt;RFC004</title>
<path fill="none" stroke="black" d="M585.49,-245.97C553.78,-236.06 513.64,-223.51 480.39,-213.12"/>
<polygon fill="black" stroke="black" points="481.34,-209.75 470.75,-210.11 479.26,-216.43 481.34,-209.75"/>
</g>
<!-- RFC7779_EXT -->
<g id="node12" class="node">
<title>RFC7779_EXT</title>
<g id="a_node12"><a xlink:href="https://datatracker.ietf.org/doc/html/rfc7797" xlink:title="RFC7779\nJSON Web Signature (JWS) Unencoded Payload Option">
<polygon fill="#e0eeee" stroke="black" points="1944.98,-131 1577.02,-131 1577.02,-95 1944.98,-95 1944.98,-131"/>
<text text-anchor="middle" x="1761" y="-115.8" font-family="Helvetica,sans-Serif" font-size="14.00">RFC7779</text>
<text text-anchor="middle" x="1761" y="-101.8" font-family="Helvetica,sans-Serif" font-size="14.00">JSON Web Signature (JWS) Unencoded Payload Option</text>
</a>
</g>
</g>
<!-- RFC011&#45;&gt;RFC7779_EXT -->
<g id="edge15" class="edge">
<title>RFC011&#45;&gt;RFC7779_EXT</title>
<path fill="none" stroke="black" d="M714.41,-254.61C872.07,-236.63 1251.25,-192.21 1568,-146 1595.54,-141.98 1625.22,-137.26 1652.85,-132.69"/>
<polygon fill="black" stroke="black" points="1653.64,-136.11 1662.93,-131.02 1652.49,-129.2 1653.64,-136.11"/>
</g>
<!-- RFC012 -->
<g id="node10" class="node">
<title>RFC012</title>
<g id="a_node10"><a xlink:href="rfc012-nuts-organization-credential" xlink:title="RFC012\nNuts Organization Credential">
<polygon fill="none" stroke="black" points="297.76,-354 102.24,-354 102.24,-318 297.76,-318 297.76,-354"/>
<text text-anchor="middle" x="200" y="-338.8" font-family="Helvetica,sans-Serif" font-size="14.00">RFC012</text>
<text text-anchor="middle" x="200" y="-324.8" font-family="Helvetica,sans-Serif" font-size="14.00">Nuts Organization Credential</text>
</a>
</g>
</g>
<!-- RFC012&#45;&gt;RFC003 -->
<g id="edge16" class="edge">
<title>RFC012&#45;&gt;RFC003</title>
<path fill="none" stroke="black" d="M297.96,-319.43C301.01,-318.95 304.03,-318.47 307,-318 409.2,-301.88 452.16,-341.23 537,-282 552.01,-271.52 544.46,-259.33 557,-246 568.24,-234.05 582.72,-223.61 596.43,-215.23"/>
<polygon fill="black" stroke="black" points="598.44,-218.11 605.29,-210.02 594.89,-212.07 598.44,-218.11"/>
</g>
<!-- RFC012&#45;&gt;RFC006 -->
<g id="edge17" class="edge">
<title>RFC012&#45;&gt;RFC006</title>
<path fill="none" stroke="black" d="M180.47,-317.7C170.62,-308.97 158.51,-298.24 147.8,-288.75"/>
<polygon fill="black" stroke="black" points="150.11,-286.12 140.3,-282.1 145.47,-291.36 150.11,-286.12"/>
</g>
<!-- RFC012&#45;&gt;RFC011 -->
<g id="edge18" class="edge">
<title>RFC012&#45;&gt;RFC011</title>
<path fill="none" stroke="black" d="M297.95,-319.39C301,-318.92 304.03,-318.45 307,-318 415.79,-301.37 443.5,-300.44 552,-282 553.11,-281.81 554.23,-281.62 555.36,-281.42"/>
<polygon fill="black" stroke="black" points="556.39,-284.8 565.63,-279.61 555.17,-277.9 556.39,-284.8"/>
</g>
<!-- RFC013 -->
<g id="node11" class="node">
<title>RFC013</title>
<g id="a_node11"><a xlink:href="rfc013-vc-irma-proof" xlink:title="RFC013\nVerifiable Credential IRMA Proof">
<polygon fill="none" stroke="black" points="532.28,-354 315.72,-354 315.72,-318 532.28,-318 532.28,-354"/>
<text text-anchor="middle" x="424" y="-338.8" font-family="Helvetica,sans-Serif" font-size="14.00">RFC013</text>
<text text-anchor="middle" x="424" y="-324.8" font-family="Helvetica,sans-Serif" font-size="14.00">Verifiable Credential IRMA Proof</text>
</a>
</g>
</g>
<!-- RFC013&#45;&gt;RFC011 -->
<g id="edge19" class="edge">
<title>RFC013&#45;&gt;RFC011</title>
<path fill="none" stroke="black" d="M476.56,-317.97C507.01,-308.1 545.51,-295.62 577.5,-285.25"/>
<polygon fill="black" stroke="black" points="578.77,-288.52 587.2,-282.11 576.61,-281.86 578.77,-288.52"/>
</g>
</g>
</svg>
