<?xml version="1.0" encoding="UTF-8" standalone="no"?>
<!DOCTYPE svg PUBLIC "-//W3C//DTD SVG 1.1//EN"
 "http://www.w3.org/Graphics/SVG/1.1/DTD/svg11.dtd">
<!-- Generated by graphviz version 2.44.1 (20200629.0846)
 -->
<!-- Title: D Pages: 1 -->
<svg width="1327pt" height="345pt"
 viewBox="0.00 0.00 1327.00 345.00" xmlns="http://www.w3.org/2000/svg" xmlns:xlink="http://www.w3.org/1999/xlink">
<g id="graph0" class="graph" transform="scale(1 1) rotate(0) translate(4 341)">
<title>D</title>
<polygon fill="white" stroke="transparent" points="-4,4 -4,-341 1323,-341 1323,4 -4,4"/>
<g id="clust1" class="cluster">
<title>cluster_internal</title>
<polygon fill="none" stroke="black" points="8,-15.5 8,-329 484,-329 484,-15.5 8,-15.5"/>
</g>
<g id="clust2" class="cluster">
<title>cluster_external</title>
<polygon fill="none" stroke="black" points="492,-8 492,-77 1311,-77 1311,-8 492,-8"/>
</g>
<!-- RFC001 -->
<g id="node1" class="node">
<title>RFC001</title>
<g id="a_node1"><a xlink:href="rfc001-nuts-start-architecture" xlink:title="RFC001\nNuts Start Architecture">
<polygon fill="none" stroke="black" points="435,-61.5 283,-61.5 283,-23.5 435,-23.5 435,-61.5"/>
<text text-anchor="middle" x="359" y="-46.3" font-family="Helvetica,sans-Serif" font-size="14.00">RFC001</text>
<text text-anchor="middle" x="359" y="-31.3" font-family="Helvetica,sans-Serif" font-size="14.00">Nuts Start Architecture</text>
</a>
</g>
</g>
<!-- RFC002 -->
<g id="node2" class="node">
<title>RFC002</title>
<g id="a_node2"><a xlink:href="rfc002-authentication-token" xlink:title="RFC002\nAuthentication token">
<polygon fill="none" stroke="black" points="428.5,-143 289.5,-143 289.5,-105 428.5,-105 428.5,-143"/>
<text text-anchor="middle" x="359" y="-127.8" font-family="Helvetica,sans-Serif" font-size="14.00">RFC002</text>
<text text-anchor="middle" x="359" y="-112.8" font-family="Helvetica,sans-Serif" font-size="14.00">Authentication token</text>
</a>
</g>
</g>
<!-- RFC002&#45;&gt;RFC001 -->
<g id="edge1" class="edge">
<title>RFC002&#45;&gt;RFC001</title>
<path fill="none" stroke="black" d="M359,-104.96C359,-95.17 359,-82.85 359,-71.81"/>
<polygon fill="black" stroke="black" points="362.5,-71.74 359,-61.74 355.5,-71.74 362.5,-71.74"/>
</g>
<!-- RFC003 -->
<g id="node3" class="node">
<title>RFC003</title>
<g id="a_node3"><a xlink:href="rfc003-oauth2-authorization" xlink:title="RFC003\nOAuth2 Authorization">
<polygon fill="none" stroke="black" points="476,-224.5 330,-224.5 330,-186.5 476,-186.5 476,-224.5"/>
<text text-anchor="middle" x="403" y="-209.3" font-family="Helvetica,sans-Serif" font-size="14.00">RFC003</text>
<text text-anchor="middle" x="403" y="-194.3" font-family="Helvetica,sans-Serif" font-size="14.00">OAuth2 Authorization</text>
</a>
</g>
</g>
<!-- RFC003&#45;&gt;RFC001 -->
<g id="edge2" class="edge">
<title>RFC003&#45;&gt;RFC001</title>
<path fill="none" stroke="black" d="M417.89,-186.38C432.67,-166.04 451.35,-132.31 438,-105 430.48,-89.61 417.04,-76.96 403.36,-67.21"/>
<polygon fill="black" stroke="black" points="405.11,-64.18 394.85,-61.52 401.22,-69.99 405.11,-64.18"/>
</g>
<!-- RFC003&#45;&gt;RFC002 -->
<g id="edge3" class="edge">
<title>RFC003&#45;&gt;RFC002</title>
<path fill="none" stroke="black" d="M393.02,-186.46C387.43,-176.37 380.35,-163.58 374.1,-152.29"/>
<polygon fill="black" stroke="black" points="377,-150.3 369.1,-143.24 370.88,-153.69 377,-150.3"/>
</g>
<!-- RFC7662_EXT -->
<g id="node9" class="node">
<title>RFC7662_EXT</title>
<g id="a_node9"><a xlink:href="https://tools.ietf.org/html/rfc7662" xlink:title="RFC7662\nOAuth 2.0 Token Introspection">
<polygon fill="#e0eeee" stroke="black" points="905.5,-61.5 706.5,-61.5 706.5,-23.5 905.5,-23.5 905.5,-61.5"/>
<text text-anchor="middle" x="806" y="-46.3" font-family="Helvetica,sans-Serif" font-size="14.00">RFC7662</text>
<text text-anchor="middle" x="806" y="-31.3" font-family="Helvetica,sans-Serif" font-size="14.00">OAuth 2.0 Token Introspection</text>
</a>
</g>
</g>
<!-- RFC003&#45;&gt;RFC7662_EXT -->
<g id="edge4" class="edge">
<title>RFC003&#45;&gt;RFC7662_EXT</title>
<path fill="none" stroke="black" d="M448.06,-186.5C522.56,-156.73 671.17,-97.36 751.48,-65.28"/>
<polygon fill="black" stroke="black" points="752.94,-68.47 760.93,-61.51 750.34,-61.97 752.94,-68.47"/>
</g>
<!-- RFC7523_EXT -->
<g id="node10" class="node">
<title>RFC7523_EXT</title>
<g id="a_node10"><a xlink:href="https://tools.ietf.org/html/rfc7523" xlink:title="RFC7523\nJSON Web Token (JWT) Profile\nfor OAuth 2.0 Client Authentication and Authorization Grants">
<polygon fill="#e0eeee" stroke="black" points="1302.5,-69 923.5,-69 923.5,-16 1302.5,-16 1302.5,-69"/>
<text text-anchor="middle" x="1113" y="-53.8" font-family="Helvetica,sans-Serif" font-size="14.00">RFC7523</text>
<text text-anchor="middle" x="1113" y="-38.8" font-family="Helvetica,sans-Serif" font-size="14.00">JSON Web Token (JWT) Profile</text>
<text text-anchor="middle" x="1113" y="-23.8" font-family="Helvetica,sans-Serif" font-size="14.00">for OAuth 2.0 Client Authentication and Authorization Grants</text>
</a>
</g>
</g>
<!-- RFC003&#45;&gt;RFC7523_EXT -->
<g id="edge5" class="edge">
<title>RFC003&#45;&gt;RFC7523_EXT</title>
<path fill="none" stroke="black" d="M476.31,-187.88C597.79,-160.33 842.1,-104.93 990.24,-71.34"/>
<polygon fill="black" stroke="black" points="991.32,-74.68 1000.3,-69.06 989.77,-67.85 991.32,-74.68"/>
</g>
<!-- RFC7515_EXT -->
<g id="node11" class="node">
<title>RFC7515_EXT</title>
<g id="a_node11"><a xlink:href="https://tools.ietf.org/html/rfc7515" xlink:title="RFC7515\nJSON Web Signature (JWS)">
<polygon fill="#e0eeee" stroke="black" points="688,-61.5 500,-61.5 500,-23.5 688,-23.5 688,-61.5"/>
<text text-anchor="middle" x="594" y="-46.3" font-family="Helvetica,sans-Serif" font-size="14.00">RFC7515</text>
<text text-anchor="middle" x="594" y="-31.3" font-family="Helvetica,sans-Serif" font-size="14.00">JSON Web Signature (JWS)</text>
</a>
</g>
</g>
<!-- RFC003&#45;&gt;RFC7515_EXT -->
<g id="edge6" class="edge">
<title>RFC003&#45;&gt;RFC7515_EXT</title>
<path fill="none" stroke="black" d="M424.54,-186.34C458.88,-157.4 526.09,-100.75 564.75,-68.16"/>
<polygon fill="black" stroke="black" points="567.15,-70.71 572.54,-61.59 562.64,-65.36 567.15,-70.71"/>
</g>
<!-- RFC004 -->
<g id="node4" class="node">
<title>RFC004</title>
<g id="a_node4"><a xlink:href="rfc004-distributed-document-format" xlink:title="RFC004\nDistributed Document Format">
<polygon fill="none" stroke="black" points="271,-143 77,-143 77,-105 271,-105 271,-143"/>
<text text-anchor="middle" x="174" y="-127.8" font-family="Helvetica,sans-Serif" font-size="14.00">RFC004</text>
<text text-anchor="middle" x="174" y="-112.8" font-family="Helvetica,sans-Serif" font-size="14.00">Distributed Document Format</text>
</a>
</g>
</g>
<!-- RFC004&#45;&gt;RFC001 -->
<g id="edge7" class="edge">
<title>RFC004&#45;&gt;RFC001</title>
<path fill="none" stroke="black" d="M215.98,-104.96C243.09,-93.31 278.54,-78.08 307.37,-65.69"/>
<polygon fill="black" stroke="black" points="309.06,-68.77 316.87,-61.61 306.3,-62.34 309.06,-68.77"/>
</g>
<!-- RFC008 -->
<g id="node7" class="node">
<title>RFC008</title>
<g id="a_node7"><a xlink:href="rfc008-certificate-structure" xlink:title="RFC008\nCertificate Structure">
<polygon fill="none" stroke="black" points="242,-61.5 106,-61.5 106,-23.5 242,-23.5 242,-61.5"/>
<text text-anchor="middle" x="174" y="-46.3" font-family="Helvetica,sans-Serif" font-size="14.00">RFC008</text>
<text text-anchor="middle" x="174" y="-31.3" font-family="Helvetica,sans-Serif" font-size="14.00">Certificate Structure</text>
</a>
</g>
</g>
<!-- RFC004&#45;&gt;RFC008 -->
<g id="edge9" class="edge">
<title>RFC004&#45;&gt;RFC008</title>
<path fill="none" stroke="black" d="M174,-104.96C174,-95.17 174,-82.85 174,-71.81"/>
<polygon fill="black" stroke="black" points="177.5,-71.74 174,-61.74 170.5,-71.74 177.5,-71.74"/>
</g>
<!-- RFC004&#45;&gt;RFC7515_EXT -->
<g id="edge8" class="edge">
<title>RFC004&#45;&gt;RFC7515_EXT</title>
<path fill="none" stroke="black" d="M271.02,-106.39C274.05,-105.91 277.05,-105.45 280,-105 372.22,-90.97 396.97,-97.35 488,-77 502.77,-73.7 518.43,-69.28 533.06,-64.73"/>
<polygon fill="black" stroke="black" points="534.53,-67.94 543,-61.58 532.41,-61.27 534.53,-67.94"/>
</g>
<!-- RFC005 -->
<g id="node5" class="node">
<title>RFC005</title>
<g id="a_node5"><a xlink:href="rfc005-distributed-document-network-grpc" xlink:title="RFC005\nDistributed Document Network using gRPC\n(Planned)">
<polygon fill="none" stroke="black" points="312,-232 36,-232 36,-179 312,-179 312,-232"/>
<text text-anchor="middle" x="174" y="-216.8" font-family="Helvetica,sans-Serif" font-size="14.00">RFC005</text>
<text text-anchor="middle" x="174" y="-201.8" font-family="Helvetica,sans-Serif" font-size="14.00">Distributed Document Network using gRPC</text>
<text text-anchor="middle" x="174" y="-186.8" font-family="Helvetica,sans-Serif" font-size="14.00">(Planned)</text>
</a>
</g>
</g>
<!-- RFC005&#45;&gt;RFC004 -->
<g id="edge10" class="edge">
<title>RFC005&#45;&gt;RFC004</title>
<path fill="none" stroke="black" d="M174,-178.91C174,-170.74 174,-161.65 174,-153.3"/>
<polygon fill="black" stroke="black" points="177.5,-153.24 174,-143.24 170.5,-153.24 177.5,-153.24"/>
</g>
<!-- RFC006 -->
<g id="node6" class="node">
<title>RFC006</title>
<g id="a_node6"><a xlink:href="rfc006-distributed-registry" xlink:title="RFC006\nDistributed Registry\n(Planned)">
<polygon fill="none" stroke="black" points="328,-321 194,-321 194,-268 328,-268 328,-321"/>
<text text-anchor="middle" x="261" y="-305.8" font-family="Helvetica,sans-Serif" font-size="14.00">RFC006</text>
<text text-anchor="middle" x="261" y="-290.8" font-family="Helvetica,sans-Serif" font-size="14.00">Distributed Registry</text>
<text text-anchor="middle" x="261" y="-275.8" font-family="Helvetica,sans-Serif" font-size="14.00">(Planned)</text>
</a>
</g>
</g>
<!-- RFC006&#45;&gt;RFC004 -->
<g id="edge11" class="edge">
<title>RFC006&#45;&gt;RFC004</title>
<path fill="none" stroke="black" d="M193.92,-270.87C190.58,-269.87 187.25,-268.91 184,-268 115.05,-248.73 71.61,-287.99 27,-232 12.32,-213.58 13.52,-198.32 27,-179 37.08,-164.56 51.47,-153.96 67.35,-146.2"/>
<polygon fill="black" stroke="black" points="69.15,-149.23 76.85,-141.95 66.29,-142.84 69.15,-149.23"/>
</g>
<!-- RFC006&#45;&gt;RFC005 -->
<g id="edge12" class="edge">
<title>RFC006&#45;&gt;RFC005</title>
<path fill="none" stroke="black" d="M235.37,-267.87C226.51,-259.01 216.45,-248.95 207.08,-239.58"/>
<polygon fill="black" stroke="black" points="209.3,-236.85 199.75,-232.25 204.35,-241.8 209.3,-236.85"/>
</g>
<!-- RFC009 -->
<g id="node8" class="node">
<title>RFC009</title>
<g id="a_node8"><a xlink:href="rfc009-verifiable-presentations" xlink:title="RFC009\nVerifiable Presentations">
<polygon fill="none" stroke="black" points="175.5,-313.5 16.5,-313.5 16.5,-275.5 175.5,-275.5 175.5,-313.5"/>
<text text-anchor="middle" x="96" y="-298.3" font-family="Helvetica,sans-Serif" font-size="14.00">RFC009</text>
<text text-anchor="middle" x="96" y="-283.3" font-family="Helvetica,sans-Serif" font-size="14.00">Verifiable Presentations</text>
</a>
</g>
</g>
</g>
</svg>
