<?xml version="1.0" encoding="UTF-8" standalone="no"?>
<!DOCTYPE svg PUBLIC "-//W3C//DTD SVG 1.1//EN"
 "http://www.w3.org/Graphics/SVG/1.1/DTD/svg11.dtd">
<!-- Generated by graphviz version 2.44.1 (20200629.0846)
 -->
<!-- Title: D Pages: 1 -->
<svg width="1327pt" height="345pt"
 viewBox="0.00 0.00 1327.00 345.00" xmlns="http://www.w3.org/2000/svg" xmlns:xlink="http://www.w3.org/1999/xlink">
<g id="graph0" class="graph" transform="scale(1 1) rotate(0) translate(4 341)">
<title>D</title>
<polygon fill="white" stroke="transparent" points="-4,4 -4,-341 1323,-341 1323,4 -4,4"/>
<g id="clust1" class="cluster">
<title>cluster_internal</title>
<polygon fill="none" stroke="black" points="8,-8 8,-329 484,-329 484,-8 8,-8"/>
</g>
<g id="clust2" class="cluster">
<title>cluster_external</title>
<polygon fill="none" stroke="black" points="492,-82 492,-151 1311,-151 1311,-82 492,-82"/>
</g>
<!-- RFC001 -->
<g id="node1" class="node">
<title>RFC001</title>
<g id="a_node1"><a xlink:href="rfc001-nuts-start-architecture" xlink:title="RFC001\nNuts Start Architecture">
<polygon fill="none" stroke="black" points="390,-54 238,-54 238,-16 390,-16 390,-54"/>
<text text-anchor="middle" x="314" y="-38.8" font-family="Helvetica,sans-Serif" font-size="14.00">RFC001</text>
<text text-anchor="middle" x="314" y="-23.8" font-family="Helvetica,sans-Serif" font-size="14.00">Nuts Start Architecture</text>
</a>
</g>
</g>
<!-- RFC002 -->
<g id="node2" class="node">
<title>RFC002</title>
<g id="a_node2"><a xlink:href="rfc002-authentication-token" xlink:title="RFC002\nAuthentication token">
<polygon fill="none" stroke="black" points="472.5,-135.5 333.5,-135.5 333.5,-97.5 472.5,-97.5 472.5,-135.5"/>
<text text-anchor="middle" x="403" y="-120.3" font-family="Helvetica,sans-Serif" font-size="14.00">RFC002</text>
<text text-anchor="middle" x="403" y="-105.3" font-family="Helvetica,sans-Serif" font-size="14.00">Authentication token</text>
</a>
</g>
</g>
<!-- RFC002&#45;&gt;RFC001 -->
<g id="edge1" class="edge">
<title>RFC002&#45;&gt;RFC001</title>
<path fill="none" stroke="black" d="M382.8,-97.46C370.71,-86.66 355.17,-72.78 341.92,-60.94"/>
<polygon fill="black" stroke="black" points="344.21,-58.3 334.42,-54.24 339.55,-63.52 344.21,-58.3"/>
</g>
<!-- RFC003 -->
<g id="node3" class="node">
<title>RFC003</title>
<g id="a_node3"><a xlink:href="rfc003-oauth2-authorization" xlink:title="RFC003\nOAuth2 Authorization">
<polygon fill="none" stroke="black" points="476,-224.5 330,-224.5 330,-186.5 476,-186.5 476,-224.5"/>
<text text-anchor="middle" x="403" y="-209.3" font-family="Helvetica,sans-Serif" font-size="14.00">RFC003</text>
<text text-anchor="middle" x="403" y="-194.3" font-family="Helvetica,sans-Serif" font-size="14.00">OAuth2 Authorization</text>
</a>
</g>
</g>
<!-- RFC003&#45;&gt;RFC001 -->
<g id="edge2" class="edge">
<title>RFC003&#45;&gt;RFC001</title>
<path fill="none" stroke="black" d="M363.15,-186.37C348.73,-177.75 333.84,-166 325,-151 309.48,-124.66 308.54,-88.91 310.32,-64.3"/>
<polygon fill="black" stroke="black" points="313.82,-64.45 311.26,-54.17 306.85,-63.81 313.82,-64.45"/>
</g>
<!-- RFC003&#45;&gt;RFC002 -->
<g id="edge3" class="edge">
<title>RFC003&#45;&gt;RFC002</title>
<path fill="none" stroke="black" d="M403,-186.47C403,-174.69 403,-159.06 403,-145.66"/>
<polygon fill="black" stroke="black" points="406.5,-145.5 403,-135.5 399.5,-145.5 406.5,-145.5"/>
</g>
<!-- RFC7662_EXT -->
<g id="node7" class="node">
<title>RFC7662_EXT</title>
<g id="a_node7"><a xlink:href="https://tools.ietf.org/html/rfc7662" xlink:title="RFC7662\nOAuth 2.0 Token Introspection">
<polygon fill="#e0eeee" stroke="black" points="1302.5,-135.5 1103.5,-135.5 1103.5,-97.5 1302.5,-97.5 1302.5,-135.5"/>
<text text-anchor="middle" x="1203" y="-120.3" font-family="Helvetica,sans-Serif" font-size="14.00">RFC7662</text>
<text text-anchor="middle" x="1203" y="-105.3" font-family="Helvetica,sans-Serif" font-size="14.00">OAuth 2.0 Token Introspection</text>
</a>
</g>
</g>
<!-- RFC003&#45;&gt;RFC7662_EXT -->
<g id="edge4" class="edge">
<title>RFC003&#45;&gt;RFC7662_EXT</title>
<path fill="none" stroke="black" d="M476.19,-204.19C603.24,-202.47 872.35,-193.58 1095,-151 1110.82,-147.97 1127.59,-143.45 1143.07,-138.69"/>
<polygon fill="black" stroke="black" points="1144.56,-141.9 1153.04,-135.55 1142.45,-135.22 1144.56,-141.9"/>
</g>
<!-- RFC7523_EXT -->
<g id="node8" class="node">
<title>RFC7523_EXT</title>
<g id="a_node8"><a xlink:href="https://tools.ietf.org/html/rfc7523" xlink:title="RFC7523\nJSON Web Token (JWT) Profile\nfor OAuth 2.0 Client Authentication and Authorization Grants">
<polygon fill="#e0eeee" stroke="black" points="1085.5,-143 706.5,-143 706.5,-90 1085.5,-90 1085.5,-143"/>
<text text-anchor="middle" x="896" y="-127.8" font-family="Helvetica,sans-Serif" font-size="14.00">RFC7523</text>
<text text-anchor="middle" x="896" y="-112.8" font-family="Helvetica,sans-Serif" font-size="14.00">JSON Web Token (JWT) Profile</text>
<text text-anchor="middle" x="896" y="-97.8" font-family="Helvetica,sans-Serif" font-size="14.00">for OAuth 2.0 Client Authentication and Authorization Grants</text>
</a>
</g>
</g>
<!-- RFC003&#45;&gt;RFC7523_EXT -->
<g id="edge5" class="edge">
<title>RFC003&#45;&gt;RFC7523_EXT</title>
<path fill="none" stroke="black" d="M476.01,-191.62C545.7,-179.32 652.92,-160.4 741.58,-144.75"/>
<polygon fill="black" stroke="black" points="742.23,-148.19 751.47,-143.01 741.01,-141.3 742.23,-148.19"/>
</g>
<!-- RFC7515_EXT -->
<g id="node9" class="node">
<title>RFC7515_EXT</title>
<g id="a_node9"><a xlink:href="https://tools.ietf.org/html/rfc7515" xlink:title="RFC7515\nJSON Web Signature (JWS)">
<polygon fill="#e0eeee" stroke="black" points="688,-135.5 500,-135.5 500,-97.5 688,-97.5 688,-135.5"/>
<text text-anchor="middle" x="594" y="-120.3" font-family="Helvetica,sans-Serif" font-size="14.00">RFC7515</text>
<text text-anchor="middle" x="594" y="-105.3" font-family="Helvetica,sans-Serif" font-size="14.00">JSON Web Signature (JWS)</text>
</a>
</g>
</g>
<!-- RFC003&#45;&gt;RFC7515_EXT -->
<g id="edge6" class="edge">
<title>RFC003&#45;&gt;RFC7515_EXT</title>
<path fill="none" stroke="black" d="M442.58,-186.47C472.41,-172.88 513.49,-154.17 545.33,-139.67"/>
<polygon fill="black" stroke="black" points="546.83,-142.83 554.48,-135.5 543.92,-136.46 546.83,-142.83"/>
</g>
<!-- RFC004 -->
<g id="node4" class="node">
<title>RFC004</title>
<g id="a_node4"><a xlink:href="rfc004-distributed-document-format" xlink:title="RFC004\nDistributed Document Format\n(Planned)">
<polygon fill="none" stroke="black" points="271,-143 77,-143 77,-90 271,-90 271,-143"/>
<text text-anchor="middle" x="174" y="-127.8" font-family="Helvetica,sans-Serif" font-size="14.00">RFC004</text>
<text text-anchor="middle" x="174" y="-112.8" font-family="Helvetica,sans-Serif" font-size="14.00">Distributed Document Format</text>
<text text-anchor="middle" x="174" y="-97.8" font-family="Helvetica,sans-Serif" font-size="14.00">(Planned)</text>
</a>
</g>
</g>
<!-- RFC004&#45;&gt;RFC001 -->
<g id="edge7" class="edge">
<title>RFC004&#45;&gt;RFC001</title>
<path fill="none" stroke="black" d="M219.07,-89.91C236.33,-80.1 255.93,-68.98 272.81,-59.39"/>
<polygon fill="black" stroke="black" points="274.91,-62.22 281.88,-54.24 271.46,-56.13 274.91,-62.22"/>
</g>
<!-- RFC005 -->
<g id="node5" class="node">
<title>RFC005</title>
<g id="a_node5"><a xlink:href="rfc005-distributed-document-network-grpc" xlink:title="RFC005\nDistributed Document Network using gRPC\n(Planned)">
<polygon fill="none" stroke="black" points="312,-232 36,-232 36,-179 312,-179 312,-232"/>
<text text-anchor="middle" x="174" y="-216.8" font-family="Helvetica,sans-Serif" font-size="14.00">RFC005</text>
<text text-anchor="middle" x="174" y="-201.8" font-family="Helvetica,sans-Serif" font-size="14.00">Distributed Document Network using gRPC</text>
<text text-anchor="middle" x="174" y="-186.8" font-family="Helvetica,sans-Serif" font-size="14.00">(Planned)</text>
</a>
</g>
</g>
<!-- RFC005&#45;&gt;RFC004 -->
<g id="edge8" class="edge">
<title>RFC005&#45;&gt;RFC004</title>
<path fill="none" stroke="black" d="M174,-178.87C174,-170.89 174,-161.93 174,-153.38"/>
<polygon fill="black" stroke="black" points="177.5,-153.25 174,-143.25 170.5,-153.25 177.5,-153.25"/>
</g>
<!-- RFC006 -->
<g id="node6" class="node">
<title>RFC006</title>
<g id="a_node6"><a xlink:href="rfc006-distributed-registry" xlink:title="RFC006\nDistributed Registry\n(Planned)">
<polygon fill="none" stroke="black" points="195,-321 61,-321 61,-268 195,-268 195,-321"/>
<text text-anchor="middle" x="128" y="-305.8" font-family="Helvetica,sans-Serif" font-size="14.00">RFC006</text>
<text text-anchor="middle" x="128" y="-290.8" font-family="Helvetica,sans-Serif" font-size="14.00">Distributed Registry</text>
<text text-anchor="middle" x="128" y="-275.8" font-family="Helvetica,sans-Serif" font-size="14.00">(Planned)</text>
</a>
</g>
</g>
<!-- RFC006&#45;&gt;RFC004 -->
<g id="edge9" class="edge">
<title>RFC006&#45;&gt;RFC004</title>
<path fill="none" stroke="black" d="M63.93,-267.88C49.23,-258.82 35.45,-247.03 27,-232 15.46,-211.46 13.95,-198.61 27,-179 37.09,-163.84 51.7,-152.42 67.85,-143.8"/>
<polygon fill="black" stroke="black" points="69.55,-146.87 76.97,-139.3 66.45,-140.59 69.55,-146.87"/>
</g>
<!-- RFC006&#45;&gt;RFC005 -->
<g id="edge10" class="edge">
<title>RFC006&#45;&gt;RFC005</title>
<path fill="none" stroke="black" d="M141.55,-267.87C145.96,-259.53 150.92,-250.14 155.62,-241.26"/>
<polygon fill="black" stroke="black" points="158.81,-242.73 160.39,-232.25 152.62,-239.45 158.81,-242.73"/>
</g>
</g>
</svg>
