<?xml version="1.0" encoding="UTF-8" standalone="no"?>
<!DOCTYPE svg PUBLIC "-//W3C//DTD SVG 1.1//EN"
 "http://www.w3.org/Graphics/SVG/1.1/DTD/svg11.dtd">
<!-- Generated by graphviz version 2.44.1 (20200629.0846)
 -->
<!-- Title: D Pages: 1 -->
<svg width="1707pt" height="256pt"
 viewBox="0.00 0.00 1707.00 256.00" xmlns="http://www.w3.org/2000/svg" xmlns:xlink="http://www.w3.org/1999/xlink">
<g id="graph0" class="graph" transform="scale(1 1) rotate(0) translate(4 252)">
<title>D</title>
<polygon fill="white" stroke="transparent" points="-4,4 -4,-252 1703,-252 1703,4 -4,4"/>
<g id="clust1" class="cluster">
<title>cluster_internal</title>
<polygon fill="none" stroke="black" points="8,-15.5 8,-240 864,-240 864,-15.5 8,-15.5"/>
</g>
<g id="clust2" class="cluster">
<title>cluster_external</title>
<polygon fill="none" stroke="black" points="872,-8 872,-77 1691,-77 1691,-8 872,-8"/>
</g>
<!-- RFC001 -->
<g id="node1" class="node">
<title>RFC001</title>
<g id="a_node1"><a xlink:href="rfc001-nuts-start-architecture" xlink:title="RFC001\nNuts Start Architecture">
<polygon fill="none" stroke="black" points="794,-61.5 642,-61.5 642,-23.5 794,-23.5 794,-61.5"/>
<text text-anchor="middle" x="718" y="-46.3" font-family="Helvetica,sans-Serif" font-size="14.00">RFC001</text>
<text text-anchor="middle" x="718" y="-31.3" font-family="Helvetica,sans-Serif" font-size="14.00">Nuts Start Architecture</text>
</a>
</g>
</g>
<!-- RFC002 -->
<g id="node2" class="node">
<title>RFC002</title>
<g id="a_node2"><a xlink:href="rfc002-authentication-token" xlink:title="RFC002\nAuthentication token">
<polygon fill="none" stroke="black" points="787.5,-143 648.5,-143 648.5,-105 787.5,-105 787.5,-143"/>
<text text-anchor="middle" x="718" y="-127.8" font-family="Helvetica,sans-Serif" font-size="14.00">RFC002</text>
<text text-anchor="middle" x="718" y="-112.8" font-family="Helvetica,sans-Serif" font-size="14.00">Authentication token</text>
</a>
</g>
</g>
<!-- RFC002&#45;&gt;RFC001 -->
<g id="edge1" class="edge">
<title>RFC002&#45;&gt;RFC001</title>
<path fill="none" stroke="black" d="M718,-104.96C718,-95.17 718,-82.85 718,-71.81"/>
<polygon fill="black" stroke="black" points="721.5,-71.74 718,-61.74 714.5,-71.74 721.5,-71.74"/>
</g>
<!-- RFC003 -->
<g id="node3" class="node">
<title>RFC003</title>
<g id="a_node3"><a xlink:href="rfc003-oauth2-authorization" xlink:title="RFC003\nOAuth2 Authorization">
<polygon fill="none" stroke="black" points="856,-224.5 710,-224.5 710,-186.5 856,-186.5 856,-224.5"/>
<text text-anchor="middle" x="783" y="-209.3" font-family="Helvetica,sans-Serif" font-size="14.00">RFC003</text>
<text text-anchor="middle" x="783" y="-194.3" font-family="Helvetica,sans-Serif" font-size="14.00">OAuth2 Authorization</text>
</a>
</g>
</g>
<!-- RFC003&#45;&gt;RFC001 -->
<g id="edge2" class="edge">
<title>RFC003&#45;&gt;RFC001</title>
<path fill="none" stroke="black" d="M791.54,-186.27C799.94,-165.54 809.79,-131.17 797,-105 789.48,-89.61 776.04,-76.96 762.36,-67.21"/>
<polygon fill="black" stroke="black" points="764.11,-64.18 753.85,-61.52 760.22,-69.99 764.11,-64.18"/>
</g>
<!-- RFC003&#45;&gt;RFC002 -->
<g id="edge3" class="edge">
<title>RFC003&#45;&gt;RFC002</title>
<path fill="none" stroke="black" d="M768.25,-186.46C759.75,-176.06 748.91,-162.81 739.48,-151.27"/>
<polygon fill="black" stroke="black" points="741.96,-148.77 732.92,-143.24 736.54,-153.2 741.96,-148.77"/>
</g>
<!-- RFC7662_EXT -->
<g id="node9" class="node">
<title>RFC7662_EXT</title>
<g id="a_node9"><a xlink:href="https://tools.ietf.org/html/rfc7662" xlink:title="RFC7662\nOAuth 2.0 Token Introspection">
<polygon fill="#e0eeee" stroke="black" points="1682.5,-61.5 1483.5,-61.5 1483.5,-23.5 1682.5,-23.5 1682.5,-61.5"/>
<text text-anchor="middle" x="1583" y="-46.3" font-family="Helvetica,sans-Serif" font-size="14.00">RFC7662</text>
<text text-anchor="middle" x="1583" y="-31.3" font-family="Helvetica,sans-Serif" font-size="14.00">OAuth 2.0 Token Introspection</text>
</a>
</g>
</g>
<!-- RFC003&#45;&gt;RFC7662_EXT -->
<g id="edge4" class="edge">
<title>RFC003&#45;&gt;RFC7662_EXT</title>
<path fill="none" stroke="black" d="M856.08,-193.95C982.97,-175 1251.85,-131.96 1475,-77 1489.48,-73.43 1504.88,-69.03 1519.37,-64.61"/>
<polygon fill="black" stroke="black" points="1520.72,-67.85 1529.24,-61.55 1518.65,-61.17 1520.72,-67.85"/>
</g>
<!-- RFC7523_EXT -->
<g id="node10" class="node">
<title>RFC7523_EXT</title>
<g id="a_node10"><a xlink:href="https://tools.ietf.org/html/rfc7523" xlink:title="RFC7523\nJSON Web Token (JWT) Profile\nfor OAuth 2.0 Client Authentication and Authorization Grants">
<polygon fill="#e0eeee" stroke="black" points="1465.5,-69 1086.5,-69 1086.5,-16 1465.5,-16 1465.5,-69"/>
<text text-anchor="middle" x="1276" y="-53.8" font-family="Helvetica,sans-Serif" font-size="14.00">RFC7523</text>
<text text-anchor="middle" x="1276" y="-38.8" font-family="Helvetica,sans-Serif" font-size="14.00">JSON Web Token (JWT) Profile</text>
<text text-anchor="middle" x="1276" y="-23.8" font-family="Helvetica,sans-Serif" font-size="14.00">for OAuth 2.0 Client Authentication and Authorization Grants</text>
</a>
</g>
</g>
<!-- RFC003&#45;&gt;RFC7523_EXT -->
<g id="edge5" class="edge">
<title>RFC003&#45;&gt;RFC7523_EXT</title>
<path fill="none" stroke="black" d="M838.12,-186.5C923.07,-158.76 1086.76,-105.3 1188.17,-72.18"/>
<polygon fill="black" stroke="black" points="1189.36,-75.48 1197.78,-69.04 1187.19,-68.82 1189.36,-75.48"/>
</g>
<!-- RFC7515_EXT -->
<g id="node11" class="node">
<title>RFC7515_EXT</title>
<g id="a_node11"><a xlink:href="https://tools.ietf.org/html/rfc7515" xlink:title="RFC7515\nJSON Web Signature (JWS)">
<polygon fill="#e0eeee" stroke="black" points="1068,-61.5 880,-61.5 880,-23.5 1068,-23.5 1068,-61.5"/>
<text text-anchor="middle" x="974" y="-46.3" font-family="Helvetica,sans-Serif" font-size="14.00">RFC7515</text>
<text text-anchor="middle" x="974" y="-31.3" font-family="Helvetica,sans-Serif" font-size="14.00">JSON Web Signature (JWS)</text>
</a>
</g>
</g>
<!-- RFC003&#45;&gt;RFC7515_EXT -->
<g id="edge6" class="edge">
<title>RFC003&#45;&gt;RFC7515_EXT</title>
<path fill="none" stroke="black" d="M804.54,-186.34C838.88,-157.4 906.09,-100.75 944.75,-68.16"/>
<polygon fill="black" stroke="black" points="947.15,-70.71 952.54,-61.59 942.64,-65.36 947.15,-70.71"/>
</g>
<!-- RFC004 -->
<g id="node4" class="node">
<title>RFC004</title>
<g id="a_node4"><a xlink:href="rfc004-verifiable-transactional-graph" xlink:title="RFC004\nVerifiable Transactional Graph">
<polygon fill="none" stroke="black" points="630,-143 430,-143 430,-105 630,-105 630,-143"/>
<text text-anchor="middle" x="530" y="-127.8" font-family="Helvetica,sans-Serif" font-size="14.00">RFC004</text>
<text text-anchor="middle" x="530" y="-112.8" font-family="Helvetica,sans-Serif" font-size="14.00">Verifiable Transactional Graph</text>
</a>
</g>
</g>
<!-- RFC004&#45;&gt;RFC001 -->
<g id="edge7" class="edge">
<title>RFC004&#45;&gt;RFC001</title>
<path fill="none" stroke="black" d="M572.66,-104.96C600.33,-93.26 636.55,-77.94 665.91,-65.53"/>
<polygon fill="black" stroke="black" points="667.34,-68.72 675.18,-61.61 664.61,-62.28 667.34,-68.72"/>
</g>
<!-- RFC008 -->
<g id="node7" class="node">
<title>RFC008</title>
<g id="a_node7"><a xlink:href="rfc008-certificate-structure" xlink:title="RFC008\nCertificate Structure">
<polygon fill="none" stroke="black" points="539,-61.5 403,-61.5 403,-23.5 539,-23.5 539,-61.5"/>
<text text-anchor="middle" x="471" y="-46.3" font-family="Helvetica,sans-Serif" font-size="14.00">RFC008</text>
<text text-anchor="middle" x="471" y="-31.3" font-family="Helvetica,sans-Serif" font-size="14.00">Certificate Structure</text>
</a>
</g>
</g>
<!-- RFC004&#45;&gt;RFC008 -->
<g id="edge9" class="edge">
<title>RFC004&#45;&gt;RFC008</title>
<path fill="none" stroke="black" d="M516.61,-104.96C508.9,-94.56 499.06,-81.31 490.5,-69.77"/>
<polygon fill="black" stroke="black" points="493.31,-67.69 484.54,-61.74 487.69,-71.86 493.31,-67.69"/>
</g>
<!-- RFC004&#45;&gt;RFC7515_EXT -->
<g id="edge8" class="edge">
<title>RFC004&#45;&gt;RFC7515_EXT</title>
<path fill="none" stroke="black" d="M630.09,-106.45C633.43,-105.95 636.74,-105.47 640,-105 741.06,-90.53 768.24,-98.7 868,-77 883.08,-73.72 899.09,-69.22 913.97,-64.58"/>
<polygon fill="black" stroke="black" points="915.1,-67.89 923.56,-61.52 912.97,-61.23 915.1,-67.89"/>
</g>
<!-- RFC005 -->
<g id="node5" class="node">
<title>RFC005</title>
<g id="a_node5"><a xlink:href="rfc005-distributed-document-network-grpc" xlink:title="RFC005\nDistributed Document Network using gRPC\n(Planned)">
<polygon fill="none" stroke="black" points="692,-232 416,-232 416,-179 692,-179 692,-232"/>
<text text-anchor="middle" x="554" y="-216.8" font-family="Helvetica,sans-Serif" font-size="14.00">RFC005</text>
<text text-anchor="middle" x="554" y="-201.8" font-family="Helvetica,sans-Serif" font-size="14.00">Distributed Document Network using gRPC</text>
<text text-anchor="middle" x="554" y="-186.8" font-family="Helvetica,sans-Serif" font-size="14.00">(Planned)</text>
</a>
</g>
</g>
<!-- RFC005&#45;&gt;RFC004 -->
<g id="edge10" class="edge">
<title>RFC005&#45;&gt;RFC004</title>
<path fill="none" stroke="black" d="M546.27,-178.91C543.78,-170.65 541,-161.45 538.46,-153.02"/>
<polygon fill="black" stroke="black" points="541.75,-151.8 535.51,-143.24 535.05,-153.82 541.75,-151.8"/>
</g>
<!-- RFC006 -->
<g id="node6" class="node">
<title>RFC006</title>
<g id="a_node6"><a xlink:href="rfc006-distributed-registry" xlink:title="RFC006\nDistributed Registry using DIDs">
<polygon fill="none" stroke="black" points="398,-224.5 194,-224.5 194,-186.5 398,-186.5 398,-224.5"/>
<text text-anchor="middle" x="296" y="-209.3" font-family="Helvetica,sans-Serif" font-size="14.00">RFC006</text>
<text text-anchor="middle" x="296" y="-194.3" font-family="Helvetica,sans-Serif" font-size="14.00">Distributed Registry using DIDs</text>
</a>
</g>
</g>
<!-- RFC006&#45;&gt;RFC004 -->
<g id="edge11" class="edge">
<title>RFC006&#45;&gt;RFC004</title>
<path fill="none" stroke="black" d="M349.1,-186.46C384.13,-174.56 430.18,-158.91 467.06,-146.38"/>
<polygon fill="black" stroke="black" points="468.36,-149.64 476.71,-143.11 466.11,-143.01 468.36,-149.64"/>
</g>
<!-- RFC006&#45;&gt;RFC008 -->
<g id="edge12" class="edge">
<title>RFC006&#45;&gt;RFC008</title>
<path fill="none" stroke="black" d="M315.73,-186.34C347.06,-157.52 408.26,-101.22 443.75,-68.57"/>
<polygon fill="black" stroke="black" points="446.35,-70.94 451.34,-61.59 441.61,-65.78 446.35,-70.94"/>
</g>
<!-- RFC009 -->
<g id="node8" class="node">
<title>RFC009</title>
<g id="a_node8"><a xlink:href="rfc009-verifiable-presentations" xlink:title="RFC009\nVerifiable Presentations">
<polygon fill="none" stroke="black" points="175.5,-224.5 16.5,-224.5 16.5,-186.5 175.5,-186.5 175.5,-224.5"/>
<text text-anchor="middle" x="96" y="-209.3" font-family="Helvetica,sans-Serif" font-size="14.00">RFC009</text>
<text text-anchor="middle" x="96" y="-194.3" font-family="Helvetica,sans-Serif" font-size="14.00">Verifiable Presentations</text>
</a>
</g>
</g>
</g>
</svg>
