<?xml version="1.0" encoding="UTF-8" standalone="no"?>
<!DOCTYPE svg PUBLIC "-//W3C//DTD SVG 1.1//EN"
 "http://www.w3.org/Graphics/SVG/1.1/DTD/svg11.dtd">
<!-- Generated by graphviz version 2.47.2 (20210527.0053)
 -->
<!-- Title: D Pages: 1 -->
<svg width="1965pt" height="389pt"
 viewBox="0.00 0.00 1965.00 389.00" xmlns="http://www.w3.org/2000/svg" xmlns:xlink="http://www.w3.org/1999/xlink">
<g id="graph0" class="graph" transform="scale(1 1) rotate(0) translate(4 385)">
<title>D</title>
<polygon fill="white" stroke="transparent" points="-4,4 -4,-385 1961,-385 1961,4 -4,4"/>
<g id="clust1" class="cluster">
<title>cluster_internal</title>
<polygon fill="none" stroke="black" points="8,-8 8,-373 746,-373 746,-8 8,-8"/>
</g>
<g id="clust2" class="cluster">
<title>cluster_external</title>
<polygon fill="none" stroke="black" points="754,-82 754,-151 1949,-151 1949,-82 754,-82"/>
</g>
<!-- RFC001 -->
<g id="node1" class="node">
<title>RFC001</title>
<g id="a_node1"><a xlink:href="rfc001-nuts-start-architecture" xlink:title="RFC001\nNuts Start Architecture">
<polygon fill="none" stroke="black" points="561,-54 409,-54 409,-16 561,-16 561,-54"/>
<text text-anchor="middle" x="485" y="-38.8" font-family="Helvetica,sans-Serif" font-size="14.00">RFC001</text>
<text text-anchor="middle" x="485" y="-23.8" font-family="Helvetica,sans-Serif" font-size="14.00">Nuts Start Architecture</text>
</a>
</g>
</g>
<!-- RFC002 -->
<g id="node2" class="node">
<title>RFC002</title>
<g id="a_node2"><a xlink:href="rfc002-authentication-token" xlink:title="RFC002\nAuthentication token">
<polygon fill="none" stroke="black" points="701.5,-135.5 562.5,-135.5 562.5,-97.5 701.5,-97.5 701.5,-135.5"/>
<text text-anchor="middle" x="632" y="-120.3" font-family="Helvetica,sans-Serif" font-size="14.00">RFC002</text>
<text text-anchor="middle" x="632" y="-105.3" font-family="Helvetica,sans-Serif" font-size="14.00">Authentication token</text>
</a>
</g>
</g>
<!-- RFC002&#45;&gt;RFC001 -->
<g id="edge1" class="edge">
<title>RFC002&#45;&gt;RFC001</title>
<path fill="none" stroke="black" d="M598.64,-97.46C577.57,-86.07 550.16,-71.24 527.53,-59"/>
<polygon fill="black" stroke="black" points="528.94,-55.78 518.48,-54.11 525.61,-61.94 528.94,-55.78"/>
</g>
<!-- RFC003 -->
<g id="node3" class="node">
<title>RFC003</title>
<g id="a_node3"><a xlink:href="rfc003-oauth2-authorization" xlink:title="RFC003\nOAuth2 Authorization">
<polygon fill="none" stroke="black" points="728,-217 582,-217 582,-179 728,-179 728,-217"/>
<text text-anchor="middle" x="655" y="-201.8" font-family="Helvetica,sans-Serif" font-size="14.00">RFC003</text>
<text text-anchor="middle" x="655" y="-186.8" font-family="Helvetica,sans-Serif" font-size="14.00">OAuth2 Authorization</text>
</a>
</g>
</g>
<!-- RFC003&#45;&gt;RFC001 -->
<g id="edge2" class="edge">
<title>RFC003&#45;&gt;RFC001</title>
<path fill="none" stroke="black" d="M599.77,-178.97C583.8,-171.97 567.15,-162.74 554,-151 526.86,-126.77 507.15,-89.27 495.9,-63.73"/>
<polygon fill="black" stroke="black" points="499.01,-62.09 491.87,-54.25 492.56,-64.83 499.01,-62.09"/>
</g>
<!-- RFC003&#45;&gt;RFC002 -->
<g id="edge3" class="edge">
<title>RFC003&#45;&gt;RFC002</title>
<path fill="none" stroke="black" d="M649.78,-178.96C646.92,-169.07 643.31,-156.59 640.09,-145.47"/>
<polygon fill="black" stroke="black" points="643.42,-144.38 637.28,-135.74 636.7,-146.32 643.42,-144.38"/>
</g>
<!-- RFC7662_EXT -->
<g id="node13" class="node">
<title>RFC7662_EXT</title>
<g id="a_node13"><a xlink:href="https://tools.ietf.org/html/rfc7662" xlink:title="RFC7662\nOAuth 2.0 Token Introspection">
<polygon fill="#e0eeee" stroke="black" points="1564.5,-135.5 1365.5,-135.5 1365.5,-97.5 1564.5,-97.5 1564.5,-135.5"/>
<text text-anchor="middle" x="1465" y="-120.3" font-family="Helvetica,sans-Serif" font-size="14.00">RFC7662</text>
<text text-anchor="middle" x="1465" y="-105.3" font-family="Helvetica,sans-Serif" font-size="14.00">OAuth 2.0 Token Introspection</text>
</a>
</g>
</g>
<!-- RFC003&#45;&gt;RFC7662_EXT -->
<g id="edge4" class="edge">
<title>RFC003&#45;&gt;RFC7662_EXT</title>
<path fill="none" stroke="black" d="M728.21,-197.84C856.65,-198.05 1130.47,-192.95 1357,-151 1373.15,-148.01 1390.27,-143.4 1406.01,-138.54"/>
<polygon fill="black" stroke="black" points="1407.13,-141.86 1415.61,-135.5 1405.02,-135.19 1407.13,-141.86"/>
</g>
<!-- RFC7523_EXT -->
<g id="node14" class="node">
<title>RFC7523_EXT</title>
<g id="a_node14"><a xlink:href="https://tools.ietf.org/html/rfc7523" xlink:title="RFC7523\nJSON Web Token (JWT) Profile\nfor OAuth 2.0 Client Authentication and Authorization Grants">
<polygon fill="#e0eeee" stroke="black" points="1347.5,-143 968.5,-143 968.5,-90 1347.5,-90 1347.5,-143"/>
<text text-anchor="middle" x="1158" y="-127.8" font-family="Helvetica,sans-Serif" font-size="14.00">RFC7523</text>
<text text-anchor="middle" x="1158" y="-112.8" font-family="Helvetica,sans-Serif" font-size="14.00">JSON Web Token (JWT) Profile</text>
<text text-anchor="middle" x="1158" y="-97.8" font-family="Helvetica,sans-Serif" font-size="14.00">for OAuth 2.0 Client Authentication and Authorization Grants</text>
</a>
</g>
</g>
<!-- RFC003&#45;&gt;RFC7523_EXT -->
<g id="edge5" class="edge">
<title>RFC003&#45;&gt;RFC7523_EXT</title>
<path fill="none" stroke="black" d="M728.15,-186.28C789.76,-177.17 880.2,-163.59 959,-151 971.68,-148.97 984.81,-146.84 998,-144.67"/>
<polygon fill="black" stroke="black" points="998.8,-148.09 1008.09,-143.01 997.66,-141.18 998.8,-148.09"/>
</g>
<!-- RFC7515_EXT -->
<g id="node15" class="node">
<title>RFC7515_EXT</title>
<g id="a_node15"><a xlink:href="https://tools.ietf.org/html/rfc7515" xlink:title="RFC7515\nJSON Web Signature (JWS)">
<polygon fill="#e0eeee" stroke="black" points="950,-135.5 762,-135.5 762,-97.5 950,-97.5 950,-135.5"/>
<text text-anchor="middle" x="856" y="-120.3" font-family="Helvetica,sans-Serif" font-size="14.00">RFC7515</text>
<text text-anchor="middle" x="856" y="-105.3" font-family="Helvetica,sans-Serif" font-size="14.00">JSON Web Signature (JWS)</text>
</a>
</g>
</g>
<!-- RFC003&#45;&gt;RFC7515_EXT -->
<g id="edge6" class="edge">
<title>RFC003&#45;&gt;RFC7515_EXT</title>
<path fill="none" stroke="black" d="M700.61,-178.96C730.32,-167.21 769.25,-151.81 800.72,-139.37"/>
<polygon fill="black" stroke="black" points="802.21,-142.54 810.22,-135.61 799.64,-136.03 802.21,-142.54"/>
</g>
<!-- RFC004 -->
<g id="node4" class="node">
<title>RFC004</title>
<g id="a_node4"><a xlink:href="rfc004-verifiable-transactional-graph" xlink:title="RFC004\nVerifiable Transactional Graph">
<polygon fill="none" stroke="black" points="508,-217 308,-217 308,-179 508,-179 508,-217"/>
<text text-anchor="middle" x="408" y="-201.8" font-family="Helvetica,sans-Serif" font-size="14.00">RFC004</text>
<text text-anchor="middle" x="408" y="-186.8" font-family="Helvetica,sans-Serif" font-size="14.00">Verifiable Transactional Graph</text>
</a>
</g>
</g>
<!-- RFC004&#45;&gt;RFC001 -->
<g id="edge7" class="edge">
<title>RFC004&#45;&gt;RFC001</title>
<path fill="none" stroke="black" d="M416.68,-178.84C430.14,-150.7 456.13,-96.36 471.89,-63.42"/>
<polygon fill="black" stroke="black" points="475.07,-64.87 476.23,-54.34 468.76,-61.85 475.07,-64.87"/>
</g>
<!-- RFC008 -->
<g id="node7" class="node">
<title>RFC008</title>
<g id="a_node7"><a xlink:href="rfc008-certificate-structure" xlink:title="RFC008\nCertificate Structure">
<polygon fill="none" stroke="black" points="325,-135.5 189,-135.5 189,-97.5 325,-97.5 325,-135.5"/>
<text text-anchor="middle" x="257" y="-120.3" font-family="Helvetica,sans-Serif" font-size="14.00">RFC008</text>
<text text-anchor="middle" x="257" y="-105.3" font-family="Helvetica,sans-Serif" font-size="14.00">Certificate Structure</text>
</a>
</g>
</g>
<!-- RFC004&#45;&gt;RFC008 -->
<g id="edge9" class="edge">
<title>RFC004&#45;&gt;RFC008</title>
<path fill="none" stroke="black" d="M373.74,-178.96C352,-167.51 323.68,-152.61 300.38,-140.34"/>
<polygon fill="black" stroke="black" points="301.87,-137.17 291.39,-135.61 298.61,-143.36 301.87,-137.17"/>
</g>
<!-- RFC004&#45;&gt;RFC7515_EXT -->
<g id="edge8" class="edge">
<title>RFC004&#45;&gt;RFC7515_EXT</title>
<path fill="none" stroke="black" d="M508.23,-185.46C592.22,-175.43 705.35,-160.98 750,-151 764.77,-147.7 780.43,-143.28 795.06,-138.73"/>
<polygon fill="black" stroke="black" points="796.53,-141.94 805,-135.58 794.41,-135.27 796.53,-141.94"/>
</g>
<!-- RFC005 -->
<g id="node5" class="node">
<title>RFC005</title>
<g id="a_node5"><a xlink:href="rfc005-distributed-document-network-grpc" xlink:title="RFC005\nDistributed Document Network using gRPC">
<polygon fill="none" stroke="black" points="534,-291 258,-291 258,-253 534,-253 534,-291"/>
<text text-anchor="middle" x="396" y="-275.8" font-family="Helvetica,sans-Serif" font-size="14.00">RFC005</text>
<text text-anchor="middle" x="396" y="-260.8" font-family="Helvetica,sans-Serif" font-size="14.00">Distributed Document Network using gRPC</text>
</a>
</g>
</g>
<!-- RFC005&#45;&gt;RFC004 -->
<g id="edge10" class="edge">
<title>RFC005&#45;&gt;RFC004</title>
<path fill="none" stroke="black" d="M399.03,-252.83C400.31,-245.13 401.84,-235.97 403.26,-227.42"/>
<polygon fill="black" stroke="black" points="406.74,-227.85 404.93,-217.41 399.83,-226.7 406.74,-227.85"/>
</g>
<!-- RFC006 -->
<g id="node6" class="node">
<title>RFC006</title>
<g id="a_node6"><a xlink:href="rfc006-distributed-registry" xlink:title="RFC006\nDistributed Registry using DIDs">
<polygon fill="none" stroke="black" points="240,-291 36,-291 36,-253 240,-253 240,-291"/>
<text text-anchor="middle" x="138" y="-275.8" font-family="Helvetica,sans-Serif" font-size="14.00">RFC006</text>
<text text-anchor="middle" x="138" y="-260.8" font-family="Helvetica,sans-Serif" font-size="14.00">Distributed Registry using DIDs</text>
</a>
</g>
</g>
<!-- RFC006&#45;&gt;RFC004 -->
<g id="edge11" class="edge">
<title>RFC006&#45;&gt;RFC004</title>
<path fill="none" stroke="black" d="M205.78,-252.92C243.66,-242.82 291.01,-230.2 330.36,-219.7"/>
<polygon fill="black" stroke="black" points="331.43,-223.04 340.19,-217.08 329.62,-216.28 331.43,-223.04"/>
</g>
<!-- RFC006&#45;&gt;RFC008 -->
<g id="edge12" class="edge">
<title>RFC006&#45;&gt;RFC008</title>
<path fill="none" stroke="black" d="M152.12,-252.79C173.05,-225.79 212.44,-174.98 236.54,-143.9"/>
<polygon fill="black" stroke="black" points="239.54,-145.74 242.9,-135.69 234.01,-141.45 239.54,-145.74"/>
</g>
<!-- RFC011 -->
<g id="node8" class="node">
<title>RFC011</title>
<g id="a_node8"><a xlink:href="rfc011-verifiable-credential" xlink:title="RFC011\nVerifiable Credentials">
<polygon fill="none" stroke="black" points="717.5,-291 572.5,-291 572.5,-253 717.5,-253 717.5,-291"/>
<text text-anchor="middle" x="645" y="-275.8" font-family="Helvetica,sans-Serif" font-size="14.00">RFC011</text>
<text text-anchor="middle" x="645" y="-260.8" font-family="Helvetica,sans-Serif" font-size="14.00">Verifiable Credentials</text>
</a>
</g>
</g>
<!-- RFC011&#45;&gt;RFC003 -->
<g id="edge13" class="edge">
<title>RFC011&#45;&gt;RFC003</title>
<path fill="none" stroke="black" d="M647.52,-252.83C648.59,-245.13 649.86,-235.97 651.05,-227.42"/>
<polygon fill="black" stroke="black" points="654.53,-227.8 652.44,-217.41 647.6,-226.84 654.53,-227.8"/>
</g>
<!-- RFC011&#45;&gt;RFC004 -->
<g id="edge14" class="edge">
<title>RFC011&#45;&gt;RFC004</title>
<path fill="none" stroke="black" d="M585.5,-252.92C552.68,-242.95 511.75,-230.52 477.47,-220.1"/>
<polygon fill="black" stroke="black" points="478.11,-216.64 467.52,-217.08 476.07,-223.34 478.11,-216.64"/>
</g>
<!-- RFC7779_EXT -->
<g id="node12" class="node">
<title>RFC7779_EXT</title>
<g id="a_node12"><a xlink:href="https://datatracker.ietf.org/doc/html/rfc7797" xlink:title="RFC7779\nJSON Web Signature (JWS) Unencoded Payload Option">
<polygon fill="#e0eeee" stroke="black" points="1941,-135.5 1583,-135.5 1583,-97.5 1941,-97.5 1941,-135.5"/>
<text text-anchor="middle" x="1762" y="-120.3" font-family="Helvetica,sans-Serif" font-size="14.00">RFC7779</text>
<text text-anchor="middle" x="1762" y="-105.3" font-family="Helvetica,sans-Serif" font-size="14.00">JSON Web Signature (JWS) Unencoded Payload Option</text>
</a>
</g>
</g>
<!-- RFC011&#45;&gt;RFC7779_EXT -->
<g id="edge15" class="edge">
<title>RFC011&#45;&gt;RFC7779_EXT</title>
<path fill="none" stroke="black" d="M717.74,-262.81C874.54,-244.88 1255.94,-199.85 1574,-151 1600.59,-146.92 1629.21,-142.06 1655.9,-137.32"/>
<polygon fill="black" stroke="black" points="1656.79,-140.72 1666.02,-135.52 1655.56,-133.83 1656.79,-140.72"/>
</g>
<!-- RFC012 -->
<g id="node9" class="node">
<title>RFC012</title>
<g id="a_node9"><a xlink:href="rfc012-nuts-organization-credential" xlink:title="RFC012\nNuts Organization Credential">
<polygon fill="none" stroke="black" points="507.5,-365 316.5,-365 316.5,-327 507.5,-327 507.5,-365"/>
<text text-anchor="middle" x="412" y="-349.8" font-family="Helvetica,sans-Serif" font-size="14.00">RFC012</text>
<text text-anchor="middle" x="412" y="-334.8" font-family="Helvetica,sans-Serif" font-size="14.00">Nuts Organization Credential</text>
</a>
</g>
</g>
<!-- RFC012&#45;&gt;RFC003 -->
<g id="edge16" class="edge">
<title>RFC012&#45;&gt;RFC003</title>
<path fill="none" stroke="black" d="M507.79,-328.58C600.47,-312.69 727,-291 727,-291 737.89,-278.09 734.55,-268.11 727,-253 720.99,-240.97 710.88,-230.93 700.11,-222.89"/>
<polygon fill="black" stroke="black" points="702.02,-219.96 691.8,-217.14 698.03,-225.71 702.02,-219.96"/>
</g>
<!-- RFC012&#45;&gt;RFC006 -->
<g id="edge17" class="edge">
<title>RFC012&#45;&gt;RFC006</title>
<path fill="none" stroke="black" d="M343.21,-326.92C304.7,-316.8 256.52,-304.14 216.53,-293.64"/>
<polygon fill="black" stroke="black" points="217.38,-290.24 206.82,-291.08 215.6,-297.01 217.38,-290.24"/>
</g>
<!-- RFC012&#45;&gt;RFC011 -->
<g id="edge18" class="edge">
<title>RFC012&#45;&gt;RFC011</title>
<path fill="none" stroke="black" d="M470.49,-326.92C502.76,-316.95 543,-304.52 576.71,-294.1"/>
<polygon fill="black" stroke="black" points="577.96,-297.38 586.48,-291.08 575.89,-290.69 577.96,-297.38"/>
</g>
<!-- RFC013 -->
<g id="node10" class="node">
<title>RFC013</title>
<g id="a_node10"><a xlink:href="rfc013-vc-irma-proof" xlink:title="RFC013\nVerifiable Credential IRMA Proof">
<polygon fill="none" stroke="black" points="738,-365 526,-365 526,-327 738,-327 738,-365"/>
<text text-anchor="middle" x="632" y="-349.8" font-family="Helvetica,sans-Serif" font-size="14.00">RFC013</text>
<text text-anchor="middle" x="632" y="-334.8" font-family="Helvetica,sans-Serif" font-size="14.00">Verifiable Credential IRMA Proof</text>
</a>
</g>
</g>
<!-- RFC013&#45;&gt;RFC011 -->
<g id="edge19" class="edge">
<title>RFC013&#45;&gt;RFC011</title>
<path fill="none" stroke="black" d="M635.28,-326.83C636.67,-319.13 638.32,-309.97 639.87,-301.42"/>
<polygon fill="black" stroke="black" points="643.34,-301.88 641.68,-291.41 636.45,-300.63 643.34,-301.88"/>
</g>
<!-- RFC014 -->
<g id="node11" class="node">
<title>RFC014</title>
<g id="a_node11"><a xlink:href="rfc014-authorization-credential" xlink:title="RFC014\nNuts Authorization Credential">
<polygon fill="none" stroke="black" points="298,-365 106,-365 106,-327 298,-327 298,-365"/>
<text text-anchor="middle" x="202" y="-349.8" font-family="Helvetica,sans-Serif" font-size="14.00">RFC014</text>
<text text-anchor="middle" x="202" y="-334.8" font-family="Helvetica,sans-Serif" font-size="14.00">Nuts Authorization Credential</text>
</a>
</g>
</g>
<!-- RFC014&#45;&gt;RFC001 -->
<g id="edge20" class="edge">
<title>RFC014&#45;&gt;RFC001</title>
<path fill="none" stroke="black" d="M105.9,-337.45C75.79,-330 45.6,-316.2 27,-291 16.97,-277.41 20.97,-268.78 27,-253 63.4,-157.74 90.27,-130.47 180,-82 216.75,-62.15 321.96,-49.41 398.56,-42.49"/>
<polygon fill="black" stroke="black" points="399.04,-45.96 408.69,-41.59 398.42,-38.98 399.04,-45.96"/>
</g>
<!-- RFC014&#45;&gt;RFC003 -->
<g id="edge21" class="edge">
<title>RFC014&#45;&gt;RFC003</title>
<path fill="none" stroke="black" d="M298.12,-328.45C301.11,-327.96 304.08,-327.47 307,-327 411.74,-310.04 455.95,-351.67 543,-291 558.83,-279.97 550.57,-266.85 564,-253 575.86,-240.77 591.07,-230.31 605.65,-221.95"/>
<polygon fill="black" stroke="black" points="607.54,-224.91 614.61,-217.02 604.16,-218.77 607.54,-224.91"/>
</g>
<!-- RFC014&#45;&gt;RFC011 -->
<g id="edge22" class="edge">
<title>RFC014&#45;&gt;RFC011</title>
<path fill="none" stroke="black" d="M298.11,-328.42C301.11,-327.93 304.08,-327.46 307,-327 418.33,-309.48 446.99,-310.43 558,-291 559.47,-290.74 560.96,-290.48 562.45,-290.21"/>
<polygon fill="black" stroke="black" points="563.24,-293.62 572.43,-288.36 561.96,-286.74 563.24,-293.62"/>
</g>
</g>
</svg>
