<?xml version="1.0" encoding="UTF-8" standalone="no"?>
<!DOCTYPE svg PUBLIC "-//W3C//DTD SVG 1.1//EN"
 "http://www.w3.org/Graphics/SVG/1.1/DTD/svg11.dtd">
<!-- Generated by graphviz version 2.47.2 (20210527.0053)
 -->
<!-- Title: D Pages: 1 -->
<svg width="1925pt" height="389pt"
 viewBox="0.00 0.00 1925.00 389.00" xmlns="http://www.w3.org/2000/svg" xmlns:xlink="http://www.w3.org/1999/xlink">
<g id="graph0" class="graph" transform="scale(1 1) rotate(0) translate(4 385)">
<title>D</title>
<polygon fill="white" stroke="transparent" points="-4,4 -4,-385 1921,-385 1921,4 -4,4"/>
<g id="clust1" class="cluster">
<title>cluster_internal</title>
<polygon fill="none" stroke="black" points="8,-8 8,-373 706,-373 706,-8 8,-8"/>
</g>
<g id="clust2" class="cluster">
<title>cluster_external</title>
<polygon fill="none" stroke="black" points="714,-82 714,-151 1909,-151 1909,-82 714,-82"/>
</g>
<!-- RFC001 -->
<g id="node1" class="node">
<title>RFC001</title>
<g id="a_node1"><a xlink:href="rfc001-nuts-start-architecture" xlink:title="RFC001\nNuts Start Architecture">
<polygon fill="none" stroke="black" points="612,-54 460,-54 460,-16 612,-16 612,-54"/>
<text text-anchor="middle" x="536" y="-38.8" font-family="Helvetica,sans-Serif" font-size="14.00">RFC001</text>
<text text-anchor="middle" x="536" y="-23.8" font-family="Helvetica,sans-Serif" font-size="14.00">Nuts Start Architecture</text>
</a>
</g>
</g>
<!-- RFC002 -->
<g id="node2" class="node">
<title>RFC002</title>
<g id="a_node2"><a xlink:href="rfc002-authentication-token" xlink:title="RFC002\nAuthentication token">
<polygon fill="none" stroke="black" points="605.5,-135.5 466.5,-135.5 466.5,-97.5 605.5,-97.5 605.5,-135.5"/>
<text text-anchor="middle" x="536" y="-120.3" font-family="Helvetica,sans-Serif" font-size="14.00">RFC002</text>
<text text-anchor="middle" x="536" y="-105.3" font-family="Helvetica,sans-Serif" font-size="14.00">Authentication token</text>
</a>
</g>
</g>
<!-- RFC002&#45;&gt;RFC001 -->
<g id="edge1" class="edge">
<title>RFC002&#45;&gt;RFC001</title>
<path fill="none" stroke="black" d="M536,-97.46C536,-87.67 536,-75.35 536,-64.31"/>
<polygon fill="black" stroke="black" points="539.5,-64.24 536,-54.24 532.5,-64.24 539.5,-64.24"/>
</g>
<!-- RFC003 -->
<g id="node3" class="node">
<title>RFC003</title>
<g id="a_node3"><a xlink:href="rfc003-oauth2-authorization" xlink:title="RFC003\nOAuth2 Authorization">
<polygon fill="none" stroke="black" points="698,-217 552,-217 552,-179 698,-179 698,-217"/>
<text text-anchor="middle" x="625" y="-201.8" font-family="Helvetica,sans-Serif" font-size="14.00">RFC003</text>
<text text-anchor="middle" x="625" y="-186.8" font-family="Helvetica,sans-Serif" font-size="14.00">OAuth2 Authorization</text>
</a>
</g>
</g>
<!-- RFC003&#45;&gt;RFC001 -->
<g id="edge2" class="edge">
<title>RFC003&#45;&gt;RFC001</title>
<path fill="none" stroke="black" d="M628.27,-178.64C631.56,-154.48 633.78,-111.62 615,-82 609.33,-73.06 601.26,-65.66 592.41,-59.6"/>
<polygon fill="black" stroke="black" points="594.09,-56.52 583.75,-54.19 590.38,-62.46 594.09,-56.52"/>
</g>
<!-- RFC003&#45;&gt;RFC002 -->
<g id="edge3" class="edge">
<title>RFC003&#45;&gt;RFC002</title>
<path fill="none" stroke="black" d="M604.8,-178.96C592.71,-168.16 577.17,-154.28 563.92,-142.44"/>
<polygon fill="black" stroke="black" points="566.21,-139.8 556.42,-135.74 561.55,-145.02 566.21,-139.8"/>
</g>
<!-- RFC7662_EXT -->
<g id="node12" class="node">
<title>RFC7662_EXT</title>
<g id="a_node12"><a xlink:href="https://tools.ietf.org/html/rfc7662" xlink:title="RFC7662\nOAuth 2.0 Token Introspection">
<polygon fill="#e0eeee" stroke="black" points="1524.5,-135.5 1325.5,-135.5 1325.5,-97.5 1524.5,-97.5 1524.5,-135.5"/>
<text text-anchor="middle" x="1425" y="-120.3" font-family="Helvetica,sans-Serif" font-size="14.00">RFC7662</text>
<text text-anchor="middle" x="1425" y="-105.3" font-family="Helvetica,sans-Serif" font-size="14.00">OAuth 2.0 Token Introspection</text>
</a>
</g>
</g>
<!-- RFC003&#45;&gt;RFC7662_EXT -->
<g id="edge4" class="edge">
<title>RFC003&#45;&gt;RFC7662_EXT</title>
<path fill="none" stroke="black" d="M698.18,-197.73C825.21,-197.77 1094.3,-192.35 1317,-151 1333.06,-148.02 1350.1,-143.43 1365.77,-138.6"/>
<polygon fill="black" stroke="black" points="1366.86,-141.93 1375.34,-135.58 1364.75,-135.26 1366.86,-141.93"/>
</g>
<!-- RFC7523_EXT -->
<g id="node13" class="node">
<title>RFC7523_EXT</title>
<g id="a_node13"><a xlink:href="https://tools.ietf.org/html/rfc7523" xlink:title="RFC7523\nJSON Web Token (JWT) Profile\nfor OAuth 2.0 Client Authentication and Authorization Grants">
<polygon fill="#e0eeee" stroke="black" points="1307.5,-143 928.5,-143 928.5,-90 1307.5,-90 1307.5,-143"/>
<text text-anchor="middle" x="1118" y="-127.8" font-family="Helvetica,sans-Serif" font-size="14.00">RFC7523</text>
<text text-anchor="middle" x="1118" y="-112.8" font-family="Helvetica,sans-Serif" font-size="14.00">JSON Web Token (JWT) Profile</text>
<text text-anchor="middle" x="1118" y="-97.8" font-family="Helvetica,sans-Serif" font-size="14.00">for OAuth 2.0 Client Authentication and Authorization Grants</text>
</a>
</g>
</g>
<!-- RFC003&#45;&gt;RFC7523_EXT -->
<g id="edge5" class="edge">
<title>RFC003&#45;&gt;RFC7523_EXT</title>
<path fill="none" stroke="black" d="M698.13,-185.8C757.64,-176.62 843.78,-163.21 919,-151 931.54,-148.96 944.52,-146.83 957.56,-144.67"/>
<polygon fill="black" stroke="black" points="958.25,-148.11 967.54,-143.02 957.1,-141.2 958.25,-148.11"/>
</g>
<!-- RFC7515_EXT -->
<g id="node14" class="node">
<title>RFC7515_EXT</title>
<g id="a_node14"><a xlink:href="https://tools.ietf.org/html/rfc7515" xlink:title="RFC7515\nJSON Web Signature (JWS)">
<polygon fill="#e0eeee" stroke="black" points="910,-135.5 722,-135.5 722,-97.5 910,-97.5 910,-135.5"/>
<text text-anchor="middle" x="816" y="-120.3" font-family="Helvetica,sans-Serif" font-size="14.00">RFC7515</text>
<text text-anchor="middle" x="816" y="-105.3" font-family="Helvetica,sans-Serif" font-size="14.00">JSON Web Signature (JWS)</text>
</a>
</g>
</g>
<!-- RFC003&#45;&gt;RFC7515_EXT -->
<g id="edge6" class="edge">
<title>RFC003&#45;&gt;RFC7515_EXT</title>
<path fill="none" stroke="black" d="M668.34,-178.96C696.45,-167.26 733.25,-151.94 763.08,-139.53"/>
<polygon fill="black" stroke="black" points="764.61,-142.68 772.5,-135.61 761.92,-136.22 764.61,-142.68"/>
</g>
<!-- RFC004 -->
<g id="node4" class="node">
<title>RFC004</title>
<g id="a_node4"><a xlink:href="rfc004-verifiable-transactional-graph" xlink:title="RFC004\nVerifiable Transactional Graph">
<polygon fill="none" stroke="black" points="505,-217 305,-217 305,-179 505,-179 505,-217"/>
<text text-anchor="middle" x="405" y="-201.8" font-family="Helvetica,sans-Serif" font-size="14.00">RFC004</text>
<text text-anchor="middle" x="405" y="-186.8" font-family="Helvetica,sans-Serif" font-size="14.00">Verifiable Transactional Graph</text>
</a>
</g>
</g>
<!-- RFC004&#45;&gt;RFC001 -->
<g id="edge7" class="edge">
<title>RFC004&#45;&gt;RFC001</title>
<path fill="none" stroke="black" d="M409.69,-178.74C416.73,-154.3 432.06,-110.7 458,-82 465.91,-73.25 475.88,-65.68 486.03,-59.34"/>
<polygon fill="black" stroke="black" points="488.1,-62.19 494.94,-54.1 484.55,-56.15 488.1,-62.19"/>
</g>
<!-- RFC008 -->
<g id="node7" class="node">
<title>RFC008</title>
<g id="a_node7"><a xlink:href="rfc008-certificate-structure" xlink:title="RFC008\nCertificate Structure">
<polygon fill="none" stroke="black" points="286,-135.5 150,-135.5 150,-97.5 286,-97.5 286,-135.5"/>
<text text-anchor="middle" x="218" y="-120.3" font-family="Helvetica,sans-Serif" font-size="14.00">RFC008</text>
<text text-anchor="middle" x="218" y="-105.3" font-family="Helvetica,sans-Serif" font-size="14.00">Certificate Structure</text>
</a>
</g>
</g>
<!-- RFC004&#45;&gt;RFC008 -->
<g id="edge9" class="edge">
<title>RFC004&#45;&gt;RFC008</title>
<path fill="none" stroke="black" d="M362.57,-178.96C335.05,-167.26 299.02,-151.94 269.81,-139.53"/>
<polygon fill="black" stroke="black" points="271.16,-136.3 260.59,-135.61 268.42,-142.74 271.16,-136.3"/>
</g>
<!-- RFC004&#45;&gt;RFC7515_EXT -->
<g id="edge8" class="edge">
<title>RFC004&#45;&gt;RFC7515_EXT</title>
<path fill="none" stroke="black" d="M505.21,-183.61C578.71,-173.46 672.05,-159.8 710,-151 724.59,-147.62 740.07,-143.21 754.57,-138.7"/>
<polygon fill="black" stroke="black" points="755.94,-141.94 764.42,-135.58 753.83,-135.26 755.94,-141.94"/>
</g>
<!-- RFC005 -->
<g id="node5" class="node">
<title>RFC005</title>
<g id="a_node5"><a xlink:href="rfc005-distributed-document-network-grpc" xlink:title="RFC005\nDistributed Document Network using gRPC">
<polygon fill="none" stroke="black" points="514,-291 238,-291 238,-253 514,-253 514,-291"/>
<text text-anchor="middle" x="376" y="-275.8" font-family="Helvetica,sans-Serif" font-size="14.00">RFC005</text>
<text text-anchor="middle" x="376" y="-260.8" font-family="Helvetica,sans-Serif" font-size="14.00">Distributed Document Network using gRPC</text>
</a>
</g>
</g>
<!-- RFC005&#45;&gt;RFC004 -->
<g id="edge10" class="edge">
<title>RFC005&#45;&gt;RFC004</title>
<path fill="none" stroke="black" d="M383.32,-252.83C386.49,-244.96 390.27,-235.57 393.78,-226.85"/>
<polygon fill="black" stroke="black" points="397.09,-228 397.58,-217.41 390.6,-225.38 397.09,-228"/>
</g>
<!-- RFC006 -->
<g id="node6" class="node">
<title>RFC006</title>
<g id="a_node6"><a xlink:href="rfc006-distributed-registry" xlink:title="RFC006\nDistributed Registry using DIDs">
<polygon fill="none" stroke="black" points="220,-291 16,-291 16,-253 220,-253 220,-291"/>
<text text-anchor="middle" x="118" y="-275.8" font-family="Helvetica,sans-Serif" font-size="14.00">RFC006</text>
<text text-anchor="middle" x="118" y="-260.8" font-family="Helvetica,sans-Serif" font-size="14.00">Distributed Registry using DIDs</text>
</a>
</g>
</g>
<!-- RFC006&#45;&gt;RFC004 -->
<g id="edge11" class="edge">
<title>RFC006&#45;&gt;RFC004</title>
<path fill="none" stroke="black" d="M190.05,-252.92C230.48,-242.78 281.07,-230.09 323.01,-219.57"/>
<polygon fill="black" stroke="black" points="324.07,-222.91 332.92,-217.08 322.37,-216.12 324.07,-222.91"/>
</g>
<!-- RFC006&#45;&gt;RFC008 -->
<g id="edge12" class="edge">
<title>RFC006&#45;&gt;RFC008</title>
<path fill="none" stroke="black" d="M129.86,-252.79C147.38,-225.9 180.27,-175.41 200.54,-144.29"/>
<polygon fill="black" stroke="black" points="203.63,-145.98 206.15,-135.69 197.76,-142.16 203.63,-145.98"/>
</g>
<!-- RFC011 -->
<g id="node8" class="node">
<title>RFC011</title>
<g id="a_node8"><a xlink:href="rfc011-verifiable-credential" xlink:title="RFC011\nVerifiable Credentials">
<polygon fill="none" stroke="black" points="697.5,-291 552.5,-291 552.5,-253 697.5,-253 697.5,-291"/>
<text text-anchor="middle" x="625" y="-275.8" font-family="Helvetica,sans-Serif" font-size="14.00">RFC011</text>
<text text-anchor="middle" x="625" y="-260.8" font-family="Helvetica,sans-Serif" font-size="14.00">Verifiable Credentials</text>
</a>
</g>
</g>
<!-- RFC011&#45;&gt;RFC003 -->
<g id="edge13" class="edge">
<title>RFC011&#45;&gt;RFC003</title>
<path fill="none" stroke="black" d="M625,-252.83C625,-245.13 625,-235.97 625,-227.42"/>
<polygon fill="black" stroke="black" points="628.5,-227.41 625,-217.41 621.5,-227.41 628.5,-227.41"/>
</g>
<!-- RFC011&#45;&gt;RFC004 -->
<g id="edge14" class="edge">
<title>RFC011&#45;&gt;RFC004</title>
<path fill="none" stroke="black" d="M569.77,-252.92C539.43,-243 501.63,-230.63 469.89,-220.24"/>
<polygon fill="black" stroke="black" points="470.85,-216.87 460.25,-217.08 468.67,-223.52 470.85,-216.87"/>
</g>
<!-- RFC7779_EXT -->
<g id="node11" class="node">
<title>RFC7779_EXT</title>
<g id="a_node11"><a xlink:href="https://datatracker.ietf.org/doc/html/rfc7797" xlink:title="RFC7779\nJSON Web Signature (JWS) Unencoded Payload Option">
<polygon fill="#e0eeee" stroke="black" points="1901,-135.5 1543,-135.5 1543,-97.5 1901,-97.5 1901,-135.5"/>
<text text-anchor="middle" x="1722" y="-120.3" font-family="Helvetica,sans-Serif" font-size="14.00">RFC7779</text>
<text text-anchor="middle" x="1722" y="-105.3" font-family="Helvetica,sans-Serif" font-size="14.00">JSON Web Signature (JWS) Unencoded Payload Option</text>
</a>
</g>
</g>
<!-- RFC011&#45;&gt;RFC7779_EXT -->
<g id="edge15" class="edge">
<title>RFC011&#45;&gt;RFC7779_EXT</title>
<path fill="none" stroke="black" d="M697.62,-262.54C851.93,-244.32 1223.72,-199.1 1534,-151 1560.44,-146.9 1588.88,-142.06 1615.45,-137.35"/>
<polygon fill="black" stroke="black" points="1616.3,-140.75 1625.53,-135.55 1615.07,-133.86 1616.3,-140.75"/>
</g>
<!-- RFC012 -->
<g id="node9" class="node">
<title>RFC012</title>
<g id="a_node9"><a xlink:href="rfc012-nuts-organization-credential" xlink:title="RFC012\nNuts Organization Credential">
<polygon fill="none" stroke="black" points="467.5,-365 276.5,-365 276.5,-327 467.5,-327 467.5,-365"/>
<text text-anchor="middle" x="372" y="-349.8" font-family="Helvetica,sans-Serif" font-size="14.00">RFC012</text>
<text text-anchor="middle" x="372" y="-334.8" font-family="Helvetica,sans-Serif" font-size="14.00">Nuts Organization Credential</text>
</a>
</g>
</g>
<!-- RFC012&#45;&gt;RFC003 -->
<g id="edge16" class="edge">
<title>RFC012&#45;&gt;RFC003</title>
<path fill="none" stroke="black" d="M455.66,-326.94C479.31,-318.85 503.81,-307.32 523,-291 537.7,-278.5 530.93,-267.2 544,-253 554.8,-241.27 568.63,-230.85 581.81,-222.37"/>
<polygon fill="black" stroke="black" points="583.68,-225.33 590.33,-217.08 579.99,-219.38 583.68,-225.33"/>
</g>
<!-- RFC012&#45;&gt;RFC006 -->
<g id="edge17" class="edge">
<title>RFC012&#45;&gt;RFC006</title>
<path fill="none" stroke="black" d="M308.23,-326.92C272.75,-316.87 228.44,-304.31 191.51,-293.84"/>
<polygon fill="black" stroke="black" points="192.37,-290.44 181.79,-291.08 190.46,-297.18 192.37,-290.44"/>
</g>
<!-- RFC012&#45;&gt;RFC011 -->
<g id="edge18" class="edge">
<title>RFC012&#45;&gt;RFC011</title>
<path fill="none" stroke="black" d="M435.52,-326.92C470.85,-316.87 515,-304.31 551.78,-293.84"/>
<polygon fill="black" stroke="black" points="552.8,-297.19 561.46,-291.08 550.88,-290.45 552.8,-297.19"/>
</g>
<!-- RFC013 -->
<g id="node10" class="node">
<title>RFC013</title>
<g id="a_node10"><a xlink:href="rfc013-vc-irma-proof" xlink:title="RFC013\nVerifiable Credential IRMA Proof">
<polygon fill="none" stroke="black" points="698,-365 486,-365 486,-327 698,-327 698,-365"/>
<text text-anchor="middle" x="592" y="-349.8" font-family="Helvetica,sans-Serif" font-size="14.00">RFC013</text>
<text text-anchor="middle" x="592" y="-334.8" font-family="Helvetica,sans-Serif" font-size="14.00">Verifiable Credential IRMA Proof</text>
</a>
</g>
</g>
<!-- RFC013&#45;&gt;RFC011 -->
<g id="edge19" class="edge">
<title>RFC013&#45;&gt;RFC011</title>
<path fill="none" stroke="black" d="M600.33,-326.83C603.97,-318.88 608.33,-309.37 612.36,-300.57"/>
<polygon fill="black" stroke="black" points="615.58,-301.96 616.56,-291.41 609.21,-299.05 615.58,-301.96"/>
</g>
</g>
</svg>
