<?xml version="1.0" encoding="UTF-8" standalone="no"?>
<!DOCTYPE svg PUBLIC "-//W3C//DTD SVG 1.1//EN"
 "http://www.w3.org/Graphics/SVG/1.1/DTD/svg11.dtd">
<!-- Generated by graphviz version 5.0.1 (20220820.1526)
 -->
<!-- Title: D Pages: 1 -->
<svg width="2645pt" height="463pt"
 viewBox="0.00 0.00 2645.00 463.00" xmlns="http://www.w3.org/2000/svg" xmlns:xlink="http://www.w3.org/1999/xlink">
<g id="graph0" class="graph" transform="scale(1 1) rotate(0) translate(4 459)">
<title>D</title>
<polygon fill="white" stroke="none" points="-4,4 -4,-459 2641,-459 2641,4 -4,4"/>
<g id="clust1" class="cluster">
<title>cluster_internal</title>
<polygon fill="none" stroke="black" points="8,-8 8,-447 908,-447 908,-8 8,-8"/>
</g>
<g id="clust2" class="cluster">
<title>cluster_external</title>
<polygon fill="none" stroke="black" points="916,-82 916,-151 2629,-151 2629,-82 916,-82"/>
</g>
<!-- RFC001 -->
<g id="node1" class="node">
<title>RFC001</title>
<g id="a_node1"><a xlink:href="rfc001-nuts-start-architecture" xlink:title="RFC001\nNuts Start Architecture">
<polygon fill="none" stroke="black" points="815,-54 663,-54 663,-16 815,-16 815,-54"/>
<text text-anchor="middle" x="739" y="-38.8" font-family="Helvetica,sans-Serif" font-size="14.00">RFC001</text>
<text text-anchor="middle" x="739" y="-23.8" font-family="Helvetica,sans-Serif" font-size="14.00">Nuts Start Architecture</text>
</a>
</g>
</g>
<!-- RFC002 -->
<g id="node2" class="node">
<title>RFC002</title>
<g id="a_node2"><a xlink:href="rfc002-authentication-token" xlink:title="RFC002\nAuthentication token">
<polygon fill="none" stroke="black" points="853.5,-135.5 714.5,-135.5 714.5,-97.5 853.5,-97.5 853.5,-135.5"/>
<text text-anchor="middle" x="784" y="-120.3" font-family="Helvetica,sans-Serif" font-size="14.00">RFC002</text>
<text text-anchor="middle" x="784" y="-105.3" font-family="Helvetica,sans-Serif" font-size="14.00">Authentication token</text>
</a>
</g>
</g>
<!-- RFC002&#45;&gt;RFC001 -->
<g id="edge1" class="edge">
<title>RFC002&#45;&gt;RFC001</title>
<path fill="none" stroke="black" d="M773.79,-97.46C768.02,-87.27 760.69,-74.32 754.25,-62.95"/>
<polygon fill="black" stroke="black" points="757.3,-61.22 749.33,-54.24 751.21,-64.67 757.3,-61.22"/>
</g>
<!-- RFC003 -->
<g id="node3" class="node">
<title>RFC003</title>
<g id="a_node3"><a xlink:href="rfc003-oauth2-authorization" xlink:title="RFC003\nOAuth2 Authorization">
<polygon fill="none" stroke="black" points="900,-217 754,-217 754,-179 900,-179 900,-217"/>
<text text-anchor="middle" x="827" y="-201.8" font-family="Helvetica,sans-Serif" font-size="14.00">RFC003</text>
<text text-anchor="middle" x="827" y="-186.8" font-family="Helvetica,sans-Serif" font-size="14.00">OAuth2 Authorization</text>
</a>
</g>
</g>
<!-- RFC003&#45;&gt;RFC001 -->
<g id="edge2" class="edge">
<title>RFC003&#45;&gt;RFC001</title>
<path fill="none" stroke="black" d="M845.99,-178.6C852.72,-170.8 859.5,-161.16 863,-151 873,-122.01 880.51,-107.17 863,-82 853.61,-68.5 839.76,-58.95 824.69,-52.2"/>
<polygon fill="black" stroke="black" points="825.76,-48.86 815.18,-48.35 823.14,-55.35 825.76,-48.86"/>
</g>
<!-- RFC003&#45;&gt;RFC002 -->
<g id="edge3" class="edge">
<title>RFC003&#45;&gt;RFC002</title>
<path fill="none" stroke="black" d="M817.24,-178.96C811.78,-168.87 804.87,-156.08 798.76,-144.79"/>
<polygon fill="black" stroke="black" points="801.7,-142.87 793.87,-135.74 795.55,-146.2 801.7,-142.87"/>
</g>
<!-- RFC7662_EXT -->
<g id="node16" class="node">
<title>RFC7662_EXT</title>
<g id="a_node16"><a xlink:href="https://tools.ietf.org/html/rfc7662" xlink:title="RFC7662\nOAuth 2.0 Token Introspection">
<polygon fill="#e0eeee" stroke="black" points="1329.5,-135.5 1130.5,-135.5 1130.5,-97.5 1329.5,-97.5 1329.5,-135.5"/>
<text text-anchor="middle" x="1230" y="-120.3" font-family="Helvetica,sans-Serif" font-size="14.00">RFC7662</text>
<text text-anchor="middle" x="1230" y="-105.3" font-family="Helvetica,sans-Serif" font-size="14.00">OAuth 2.0 Token Introspection</text>
</a>
</g>
</g>
<!-- RFC003&#45;&gt;RFC7662_EXT -->
<g id="edge4" class="edge">
<title>RFC003&#45;&gt;RFC7662_EXT</title>
<path fill="none" stroke="black" d="M900.05,-188.52C959.87,-180.87 1046.5,-168.18 1121,-151 1136.03,-147.53 1152.01,-143.07 1166.97,-138.54"/>
<polygon fill="black" stroke="black" points="1168.11,-141.86 1176.64,-135.57 1166.05,-135.17 1168.11,-141.86"/>
</g>
<!-- RFC7523_EXT -->
<g id="node17" class="node">
<title>RFC7523_EXT</title>
<g id="a_node17"><a xlink:href="https://tools.ietf.org/html/rfc7523" xlink:title="RFC7523\nJSON Web Token (JWT) Profile\nfor OAuth 2.0 Client Authentication and Authorization Grants">
<polygon fill="#e0eeee" stroke="black" points="1726.5,-143 1347.5,-143 1347.5,-90 1726.5,-90 1726.5,-143"/>
<text text-anchor="middle" x="1537" y="-127.8" font-family="Helvetica,sans-Serif" font-size="14.00">RFC7523</text>
<text text-anchor="middle" x="1537" y="-112.8" font-family="Helvetica,sans-Serif" font-size="14.00">JSON Web Token (JWT) Profile</text>
<text text-anchor="middle" x="1537" y="-97.8" font-family="Helvetica,sans-Serif" font-size="14.00">for OAuth 2.0 Client Authentication and Authorization Grants</text>
</a>
</g>
</g>
<!-- RFC003&#45;&gt;RFC7523_EXT -->
<g id="edge5" class="edge">
<title>RFC003&#45;&gt;RFC7523_EXT</title>
<path fill="none" stroke="black" d="M900.11,-192.23C999.64,-185.33 1183.22,-171.14 1339,-151 1353.68,-149.1 1368.93,-146.91 1384.17,-144.58"/>
<polygon fill="black" stroke="black" points="1384.83,-148.02 1394.17,-143.03 1383.75,-141.1 1384.83,-148.02"/>
</g>
<!-- RFC7515_EXT -->
<g id="node18" class="node">
<title>RFC7515_EXT</title>
<g id="a_node18"><a xlink:href="https://tools.ietf.org/html/rfc7515" xlink:title="RFC7515\nJSON Web Signature (JWS)">
<polygon fill="#e0eeee" stroke="black" points="1112,-135.5 924,-135.5 924,-97.5 1112,-97.5 1112,-135.5"/>
<text text-anchor="middle" x="1018" y="-120.3" font-family="Helvetica,sans-Serif" font-size="14.00">RFC7515</text>
<text text-anchor="middle" x="1018" y="-105.3" font-family="Helvetica,sans-Serif" font-size="14.00">JSON Web Signature (JWS)</text>
</a>
</g>
</g>
<!-- RFC003&#45;&gt;RFC7515_EXT -->
<g id="edge6" class="edge">
<title>RFC003&#45;&gt;RFC7515_EXT</title>
<path fill="none" stroke="black" d="M870.34,-178.96C898.45,-167.26 935.25,-151.94 965.08,-139.53"/>
<polygon fill="black" stroke="black" points="966.61,-142.68 974.5,-135.61 963.92,-136.22 966.61,-142.68"/>
</g>
<!-- RFC004 -->
<g id="node4" class="node">
<title>RFC004</title>
<g id="a_node4"><a xlink:href="rfc004-verifiable-transactional-graph" xlink:title="RFC004\nVerifiable Transactional Graph">
<polygon fill="none" stroke="black" points="674,-217 474,-217 474,-179 674,-179 674,-217"/>
<text text-anchor="middle" x="574" y="-201.8" font-family="Helvetica,sans-Serif" font-size="14.00">RFC004</text>
<text text-anchor="middle" x="574" y="-186.8" font-family="Helvetica,sans-Serif" font-size="14.00">Verifiable Transactional Graph</text>
</a>
</g>
</g>
<!-- RFC004&#45;&gt;RFC001 -->
<g id="edge7" class="edge">
<title>RFC004&#45;&gt;RFC001</title>
<path fill="none" stroke="black" d="M591.93,-178.92C614.6,-156.14 654.9,-115.87 690,-82 697.03,-75.22 704.7,-67.95 711.85,-61.24"/>
<polygon fill="black" stroke="black" points="714.43,-63.62 719.33,-54.23 709.64,-58.51 714.43,-63.62"/>
</g>
<!-- RFC008 -->
<g id="node7" class="node">
<title>RFC008</title>
<g id="a_node7"><a xlink:href="rfc008-certificate-structure" xlink:title="RFC008\nCertificate Structure">
<polygon fill="none" stroke="black" points="523,-135.5 387,-135.5 387,-97.5 523,-97.5 523,-135.5"/>
<text text-anchor="middle" x="455" y="-120.3" font-family="Helvetica,sans-Serif" font-size="14.00">RFC008</text>
<text text-anchor="middle" x="455" y="-105.3" font-family="Helvetica,sans-Serif" font-size="14.00">Certificate Structure</text>
</a>
</g>
</g>
<!-- RFC004&#45;&gt;RFC008 -->
<g id="edge9" class="edge">
<title>RFC004&#45;&gt;RFC008</title>
<path fill="none" stroke="black" d="M547,-178.96C530.38,-167.86 508.88,-153.5 490.85,-141.45"/>
<polygon fill="black" stroke="black" points="492.57,-138.39 482.31,-135.74 488.68,-144.21 492.57,-138.39"/>
</g>
<!-- RFC004&#45;&gt;RFC7515_EXT -->
<g id="edge8" class="edge">
<title>RFC004&#45;&gt;RFC7515_EXT</title>
<path fill="none" stroke="black" d="M674.28,-185.27C757.16,-175.22 868.08,-160.85 912,-151 926.77,-147.69 942.43,-143.26 957.06,-138.72"/>
<polygon fill="black" stroke="black" points="958.52,-141.92 966.99,-135.56 956.4,-135.25 958.52,-141.92"/>
</g>
<!-- RFC005 -->
<g id="node5" class="node">
<title>RFC005</title>
<g id="a_node5"><a xlink:href="rfc005-distributed-document-network-grpc" xlink:title="RFC005\nDistributed Document Network using gRPC">
<polygon fill="none" stroke="black" points="454,-291 178,-291 178,-253 454,-253 454,-291"/>
<text text-anchor="middle" x="316" y="-275.8" font-family="Helvetica,sans-Serif" font-size="14.00">RFC005</text>
<text text-anchor="middle" x="316" y="-260.8" font-family="Helvetica,sans-Serif" font-size="14.00">Distributed Document Network using gRPC</text>
</a>
</g>
</g>
<!-- RFC005&#45;&gt;RFC004 -->
<g id="edge10" class="edge">
<title>RFC005&#45;&gt;RFC004</title>
<path fill="none" stroke="black" d="M380.77,-252.92C416.81,-242.87 461.82,-230.31 499.34,-219.84"/>
<polygon fill="black" stroke="black" points="500.51,-223.14 509.2,-217.08 498.63,-216.4 500.51,-223.14"/>
</g>
<!-- RFC006 -->
<g id="node6" class="node">
<title>RFC006</title>
<g id="a_node6"><a xlink:href="rfc006-distributed-registry" xlink:title="RFC006\nDistributed Registry using DIDs">
<polygon fill="none" stroke="black" points="676,-291 472,-291 472,-253 676,-253 676,-291"/>
<text text-anchor="middle" x="574" y="-275.8" font-family="Helvetica,sans-Serif" font-size="14.00">RFC006</text>
<text text-anchor="middle" x="574" y="-260.8" font-family="Helvetica,sans-Serif" font-size="14.00">Distributed Registry using DIDs</text>
</a>
</g>
</g>
<!-- RFC006&#45;&gt;RFC004 -->
<g id="edge11" class="edge">
<title>RFC006&#45;&gt;RFC004</title>
<path fill="none" stroke="black" d="M574,-252.83C574,-245.13 574,-235.97 574,-227.42"/>
<polygon fill="black" stroke="black" points="577.5,-227.41 574,-217.41 570.5,-227.41 577.5,-227.41"/>
</g>
<!-- RFC006&#45;&gt;RFC008 -->
<g id="edge12" class="edge">
<title>RFC006&#45;&gt;RFC008</title>
<path fill="none" stroke="black" d="M511.58,-252.97C493.81,-244.81 476.24,-233.24 465,-217 450.71,-196.36 449.37,-167.3 450.91,-145.91"/>
<polygon fill="black" stroke="black" points="454.41,-146.1 451.89,-135.81 447.45,-145.42 454.41,-146.1"/>
</g>
<!-- DID_EXT -->
<g id="node19" class="node">
<title>DID_EXT</title>
<g id="a_node19"><a xlink:href="https://www.w3.org/TR/did-core/" xlink:title="W3C DID\nDecentralized Identifiers (DIDs) v1.0">
<polygon fill="#e0eeee" stroke="black" points="2354.5,-135.5 2121.5,-135.5 2121.5,-97.5 2354.5,-97.5 2354.5,-135.5"/>
<text text-anchor="middle" x="2238" y="-120.3" font-family="Helvetica,sans-Serif" font-size="14.00">W3C DID</text>
<text text-anchor="middle" x="2238" y="-105.3" font-family="Helvetica,sans-Serif" font-size="14.00">Decentralized Identifiers (DIDs) v1.0</text>
</a>
</g>
</g>
<!-- RFC006&#45;&gt;DID_EXT -->
<g id="edge13" class="edge">
<title>RFC006&#45;&gt;DID_EXT</title>
<path fill="none" stroke="black" d="M676.27,-259.79C699.2,-257.42 723.42,-255.02 746,-253 1049.18,-225.82 1811.84,-201.66 2112,-151 2130.82,-147.82 2150.92,-143.1 2169.41,-138.2"/>
<polygon fill="black" stroke="black" points="2170.47,-141.54 2179.21,-135.55 2168.64,-134.78 2170.47,-141.54"/>
</g>
<!-- RFC011 -->
<g id="node8" class="node">
<title>RFC011</title>
<g id="a_node8"><a xlink:href="rfc011-verifiable-credential" xlink:title="RFC011\nVerifiable Credentials">
<polygon fill="none" stroke="black" points="899.5,-291 754.5,-291 754.5,-253 899.5,-253 899.5,-291"/>
<text text-anchor="middle" x="827" y="-275.8" font-family="Helvetica,sans-Serif" font-size="14.00">RFC011</text>
<text text-anchor="middle" x="827" y="-260.8" font-family="Helvetica,sans-Serif" font-size="14.00">Verifiable Credentials</text>
</a>
</g>
</g>
<!-- RFC011&#45;&gt;RFC003 -->
<g id="edge14" class="edge">
<title>RFC011&#45;&gt;RFC003</title>
<path fill="none" stroke="black" d="M827,-252.83C827,-245.13 827,-235.97 827,-227.42"/>
<polygon fill="black" stroke="black" points="830.5,-227.41 827,-217.41 823.5,-227.41 830.5,-227.41"/>
</g>
<!-- RFC011&#45;&gt;RFC004 -->
<g id="edge15" class="edge">
<title>RFC011&#45;&gt;RFC004</title>
<path fill="none" stroke="black" d="M763.48,-252.92C728.15,-242.87 684,-230.31 647.22,-219.84"/>
<polygon fill="black" stroke="black" points="648.12,-216.45 637.54,-217.08 646.2,-223.19 648.12,-216.45"/>
</g>
<!-- RFC7779_EXT -->
<g id="node15" class="node">
<title>RFC7779_EXT</title>
<g id="a_node15"><a xlink:href="https://datatracker.ietf.org/doc/html/rfc7797" xlink:title="RFC7779\nJSON Web Signature (JWS) Unencoded Payload Option">
<polygon fill="#e0eeee" stroke="black" points="2103,-135.5 1745,-135.5 1745,-97.5 2103,-97.5 2103,-135.5"/>
<text text-anchor="middle" x="1924" y="-120.3" font-family="Helvetica,sans-Serif" font-size="14.00">RFC7779</text>
<text text-anchor="middle" x="1924" y="-105.3" font-family="Helvetica,sans-Serif" font-size="14.00">JSON Web Signature (JWS) Unencoded Payload Option</text>
</a>
</g>
</g>
<!-- RFC011&#45;&gt;RFC7779_EXT -->
<g id="edge16" class="edge">
<title>RFC011&#45;&gt;RFC7779_EXT</title>
<path fill="none" stroke="black" d="M899.62,-262.54C1053.93,-244.32 1425.72,-199.1 1736,-151 1762.44,-146.9 1790.88,-142.06 1817.45,-137.35"/>
<polygon fill="black" stroke="black" points="1818.3,-140.75 1827.53,-135.55 1817.07,-133.86 1818.3,-140.75"/>
</g>
<!-- VC_EXT -->
<g id="node20" class="node">
<title>VC_EXT</title>
<g id="a_node20"><a xlink:href="https://www.w3.org/TR/vc-data-model/" xlink:title="W3C VC\nVerifiable Credentials Data Model v1.1">
<polygon fill="#e0eeee" stroke="black" points="2621,-135.5 2373,-135.5 2373,-97.5 2621,-97.5 2621,-135.5"/>
<text text-anchor="middle" x="2497" y="-120.3" font-family="Helvetica,sans-Serif" font-size="14.00">W3C VC</text>
<text text-anchor="middle" x="2497" y="-105.3" font-family="Helvetica,sans-Serif" font-size="14.00">Verifiable Credentials Data Model v1.1</text>
</a>
</g>
</g>
<!-- RFC011&#45;&gt;VC_EXT -->
<g id="edge17" class="edge">
<title>RFC011&#45;&gt;VC_EXT</title>
<path fill="none" stroke="black" d="M899.54,-266.47C1037.68,-257.73 1348.01,-237.59 1609,-217 1799.38,-201.98 1846.75,-195.59 2037,-179 2182.31,-166.33 2220.14,-175.11 2364,-151 2383.79,-147.68 2404.96,-142.92 2424.46,-138.02"/>
<polygon fill="black" stroke="black" points="2425.36,-141.4 2434.18,-135.53 2423.63,-134.62 2425.36,-141.4"/>
</g>
<!-- RFC012 -->
<g id="node9" class="node">
<title>RFC012</title>
<g id="a_node9"><a xlink:href="rfc012-nuts-organization-credential" xlink:title="RFC012\nNuts Organization Credential">
<polygon fill="none" stroke="black" points="459.5,-365 268.5,-365 268.5,-327 459.5,-327 459.5,-365"/>
<text text-anchor="middle" x="364" y="-349.8" font-family="Helvetica,sans-Serif" font-size="14.00">RFC012</text>
<text text-anchor="middle" x="364" y="-334.8" font-family="Helvetica,sans-Serif" font-size="14.00">Nuts Organization Credential</text>
</a>
</g>
</g>
<!-- RFC012&#45;&gt;RFC003 -->
<g id="edge18" class="edge">
<title>RFC012&#45;&gt;RFC003</title>
<path fill="none" stroke="black" d="M459.57,-328.6C462.75,-328.06 465.9,-327.52 469,-327 564.96,-310.78 599.4,-337.3 685,-291 705.2,-280.08 701.68,-266.84 720,-253 736.19,-240.77 755.57,-230.02 773.36,-221.4"/>
<polygon fill="black" stroke="black" points="774.94,-224.53 782.49,-217.09 771.95,-218.2 774.94,-224.53"/>
</g>
<!-- RFC012&#45;&gt;RFC006 -->
<g id="edge19" class="edge">
<title>RFC012&#45;&gt;RFC006</title>
<path fill="none" stroke="black" d="M416.72,-326.92C445.55,-317.04 481.45,-304.73 511.66,-294.37"/>
<polygon fill="black" stroke="black" points="512.93,-297.64 521.26,-291.08 510.66,-291.02 512.93,-297.64"/>
</g>
<!-- RFC012&#45;&gt;RFC011 -->
<g id="edge20" class="edge">
<title>RFC012&#45;&gt;RFC011</title>
<path fill="none" stroke="black" d="M459.55,-328.51C462.74,-327.99 465.89,-327.49 469,-327 580.33,-309.48 608.65,-308.35 720,-291 727.87,-289.77 736.07,-288.46 744.26,-287.12"/>
<polygon fill="black" stroke="black" points="744.93,-290.56 754.23,-285.49 743.79,-283.65 744.93,-290.56"/>
</g>
<!-- RFC012&#45;&gt;VC_EXT -->
<g id="edge21" class="edge">
<title>RFC012&#45;&gt;VC_EXT</title>
<path fill="none" stroke="black" d="M459.52,-328.25C462.71,-327.81 465.88,-327.39 469,-327 506.83,-322.25 1799.08,-220.9 1837,-217 2071.82,-192.87 2132.01,-194.58 2364,-151 2383.03,-147.43 2403.39,-142.74 2422.32,-138.01"/>
<polygon fill="black" stroke="black" points="2423.24,-141.39 2432.07,-135.54 2421.52,-134.61 2423.24,-141.39"/>
</g>
<!-- RFC013 -->
<g id="node10" class="node">
<title>RFC013</title>
<g id="a_node10"><a xlink:href="rfc013-vc-irma-proof" xlink:title="RFC013\nVerifiable Credential IRMA Proof">
<polygon fill="none" stroke="black" points="900,-365 688,-365 688,-327 900,-327 900,-365"/>
<text text-anchor="middle" x="794" y="-349.8" font-family="Helvetica,sans-Serif" font-size="14.00">RFC013</text>
<text text-anchor="middle" x="794" y="-334.8" font-family="Helvetica,sans-Serif" font-size="14.00">Verifiable Credential IRMA Proof</text>
</a>
</g>
</g>
<!-- RFC013&#45;&gt;RFC011 -->
<g id="edge22" class="edge">
<title>RFC013&#45;&gt;RFC011</title>
<path fill="none" stroke="black" d="M802.33,-326.83C805.97,-318.88 810.33,-309.37 814.36,-300.57"/>
<polygon fill="black" stroke="black" points="817.58,-301.96 818.56,-291.41 811.21,-299.05 817.58,-301.96"/>
</g>
<!-- RFC013&#45;&gt;VC_EXT -->
<g id="edge23" class="edge">
<title>RFC013&#45;&gt;VC_EXT</title>
<path fill="none" stroke="black" d="M900.05,-343.23C1196.58,-337.95 2020.38,-320.75 2139,-291 2264.79,-259.46 2398.65,-180.85 2461.07,-141.18"/>
<polygon fill="black" stroke="black" points="2463.21,-143.97 2469.75,-135.63 2459.44,-138.07 2463.21,-143.97"/>
</g>
<!-- RFC014 -->
<g id="node11" class="node">
<title>RFC014</title>
<g id="a_node11"><a xlink:href="rfc014-authorization-credential" xlink:title="RFC014\nNuts Authorization Credential">
<polygon fill="none" stroke="black" points="670,-365 478,-365 478,-327 670,-327 670,-365"/>
<text text-anchor="middle" x="574" y="-349.8" font-family="Helvetica,sans-Serif" font-size="14.00">RFC014</text>
<text text-anchor="middle" x="574" y="-334.8" font-family="Helvetica,sans-Serif" font-size="14.00">Nuts Authorization Credential</text>
</a>
</g>
</g>
<!-- RFC014&#45;&gt;RFC001 -->
<g id="edge24" class="edge">
<title>RFC014&#45;&gt;RFC001</title>
<path fill="none" stroke="black" d="M638.17,-326.98C656.07,-318.85 673.7,-307.29 685,-291 738.2,-214.34 671.61,-169.13 705,-82 707.58,-75.27 711.43,-68.66 715.62,-62.64"/>
<polygon fill="black" stroke="black" points="718.68,-64.4 721.9,-54.3 713.09,-60.19 718.68,-64.4"/>
</g>
<!-- RFC014&#45;&gt;RFC003 -->
<g id="edge25" class="edge">
<title>RFC014&#45;&gt;RFC003</title>
<path fill="none" stroke="black" d="M649.46,-326.92C673.63,-318.66 699.44,-307.04 720,-291 736.13,-278.41 731.44,-267.38 746,-253 757.54,-241.6 771.81,-231.16 785.14,-222.56"/>
<polygon fill="black" stroke="black" points="787.11,-225.45 793.73,-217.18 783.4,-219.52 787.11,-225.45"/>
</g>
<!-- RFC014&#45;&gt;RFC011 -->
<g id="edge26" class="edge">
<title>RFC014&#45;&gt;RFC011</title>
<path fill="none" stroke="black" d="M637.52,-326.92C672.85,-316.87 717,-304.31 753.78,-293.84"/>
<polygon fill="black" stroke="black" points="754.8,-297.19 763.46,-291.08 752.88,-290.45 754.8,-297.19"/>
</g>
<!-- RFC014&#45;&gt;VC_EXT -->
<g id="edge27" class="edge">
<title>RFC014&#45;&gt;VC_EXT</title>
<path fill="none" stroke="black" d="M670.06,-327.96C673.07,-327.61 676.05,-327.29 679,-327 832.31,-311.95 1915.74,-329.14 2065,-291 2100.82,-281.85 2105.3,-268.2 2139,-253 2221.23,-215.9 2243.61,-210.87 2328,-179 2363.87,-165.45 2404.21,-150.75 2436.48,-139.12"/>
<polygon fill="black" stroke="black" points="2438,-142.3 2446.23,-135.62 2435.63,-135.71 2438,-142.3"/>
</g>
<!-- RFC015 -->
<g id="node12" class="node">
<title>RFC015</title>
<g id="a_node12"><a xlink:href="rfc015-node-identity" xlink:title="RFC015\nNode Identity">
<polygon fill="none" stroke="black" points="287,-439 191,-439 191,-401 287,-401 287,-439"/>
<text text-anchor="middle" x="239" y="-423.8" font-family="Helvetica,sans-Serif" font-size="14.00">RFC015</text>
<text text-anchor="middle" x="239" y="-408.8" font-family="Helvetica,sans-Serif" font-size="14.00">Node Identity</text>
</a>
</g>
</g>
<!-- RFC015&#45;&gt;RFC005 -->
<g id="edge28" class="edge">
<title>RFC015&#45;&gt;RFC005</title>
<path fill="none" stroke="black" d="M235.68,-400.86C233.06,-381.39 231.64,-350.14 244,-327 250.4,-315.03 260.74,-304.97 271.62,-296.89"/>
<polygon fill="black" stroke="black" points="273.75,-299.68 279.98,-291.11 269.77,-293.92 273.75,-299.68"/>
</g>
<!-- RFC015&#45;&gt;RFC006 -->
<g id="edge29" class="edge">
<title>RFC015&#45;&gt;RFC006</title>
<path fill="none" stroke="black" d="M240.55,-400.98C242.99,-377.15 248.55,-337 259,-327 260.91,-325.17 372.02,-306.41 461.74,-291.51"/>
<polygon fill="black" stroke="black" points="462.44,-294.94 471.73,-289.85 461.29,-288.03 462.44,-294.94"/>
</g>
<!-- RFC017 -->
<g id="node14" class="node">
<title>RFC017</title>
<g id="a_node14"><a xlink:href="rfc017-distributed-network-grpc-v2" xlink:title="RFC017\nV2 Network Protocol">
<polygon fill="none" stroke="black" points="210,-365 70,-365 70,-327 210,-327 210,-365"/>
<text text-anchor="middle" x="140" y="-349.8" font-family="Helvetica,sans-Serif" font-size="14.00">RFC017</text>
<text text-anchor="middle" x="140" y="-334.8" font-family="Helvetica,sans-Serif" font-size="14.00">V2 Network Protocol</text>
</a>
</g>
</g>
<!-- RFC015&#45;&gt;RFC017 -->
<g id="edge30" class="edge">
<title>RFC015&#45;&gt;RFC017</title>
<path fill="none" stroke="black" d="M208.07,-400.83C194.88,-391.88 179.71,-380.96 166.98,-371.3"/>
<polygon fill="black" stroke="black" points="169.08,-368.49 159.02,-365.16 164.81,-374.04 169.08,-368.49"/>
</g>
<!-- RFC015&#45;&gt;DID_EXT -->
<g id="edge31" class="edge">
<title>RFC015&#45;&gt;DID_EXT</title>
<path fill="none" stroke="black" d="M287.1,-416.71C397.4,-411.1 676.94,-394.92 909,-365 1447.6,-295.55 1581.79,-268.43 2112,-151 2129,-147.24 2147.15,-142.71 2164.24,-138.22"/>
<polygon fill="black" stroke="black" points="2165.39,-141.54 2174.15,-135.59 2163.59,-134.77 2165.39,-141.54"/>
</g>
<!-- RFC015&#45;&gt;VC_EXT -->
<g id="edge32" class="edge">
<title>RFC015&#45;&gt;VC_EXT</title>
<path fill="none" stroke="black" d="M287.36,-416.62C414.53,-410.2 768.84,-391.19 1063,-365 1648.38,-312.88 1836.21,-447.06 2377,-217 2416.16,-200.34 2452.48,-166.61 2474.68,-143.07"/>
<polygon fill="black" stroke="black" points="2477.44,-145.23 2481.65,-135.51 2472.3,-140.49 2477.44,-145.23"/>
</g>
<!-- RFC016 -->
<g id="node13" class="node">
<title>RFC016</title>
<g id="a_node13"><a xlink:href="rfc016-lamport-clock" xlink:title="RFC016\nLamport Clock">
<polygon fill="none" stroke="black" points="140,-291 36,-291 36,-253 140,-253 140,-291"/>
<text text-anchor="middle" x="88" y="-275.8" font-family="Helvetica,sans-Serif" font-size="14.00">RFC016</text>
<text text-anchor="middle" x="88" y="-260.8" font-family="Helvetica,sans-Serif" font-size="14.00">Lamport Clock</text>
</a>
</g>
</g>
<!-- RFC016&#45;&gt;RFC004 -->
<g id="edge33" class="edge">
<title>RFC016&#45;&gt;RFC004</title>
<path fill="none" stroke="black" d="M140.08,-256.08C144.77,-254.96 149.46,-253.91 154,-253 258.09,-232.22 378.36,-217.7 463.46,-208.99"/>
<polygon fill="black" stroke="black" points="464.06,-212.45 473.66,-207.96 463.35,-205.49 464.06,-212.45"/>
</g>
<!-- RFC017&#45;&gt;RFC004 -->
<g id="edge34" class="edge">
<title>RFC017&#45;&gt;RFC004</title>
<path fill="none" stroke="black" d="M143.34,-326.85C148.13,-302.87 157.65,-262.54 169,-253 212.35,-216.56 359.2,-204.57 463.56,-200.7"/>
<polygon fill="black" stroke="black" points="463.97,-204.19 473.84,-200.34 463.72,-197.2 463.97,-204.19"/>
</g>
<!-- RFC017&#45;&gt;RFC005 -->
<g id="edge35" class="edge">
<title>RFC017&#45;&gt;RFC005</title>
<path fill="none" stroke="black" d="M184.41,-326.83C208.16,-317.12 237.57,-305.08 262.57,-294.86"/>
<polygon fill="black" stroke="black" points="263.98,-298.06 271.91,-291.04 261.33,-291.58 263.98,-298.06"/>
</g>
<!-- RFC017&#45;&gt;RFC008 -->
<g id="edge36" class="edge">
<title>RFC017&#45;&gt;RFC008</title>
<path fill="none" stroke="black" d="M71.65,-326.94C54.12,-318.88 37.32,-307.37 27,-291 17.99,-276.71 17.02,-266.63 27,-253 68.68,-196.08 265.45,-151.9 377.12,-130.91"/>
<polygon fill="black" stroke="black" points="377.8,-134.34 386.99,-129.07 376.52,-127.46 377.8,-134.34"/>
</g>
<!-- RFC017&#45;&gt;RFC015 -->
<g id="edge37" class="edge">
<title>RFC017&#45;&gt;RFC015</title>
<path fill="none" stroke="black" d="M170.93,-365.16C184.11,-374.12 199.28,-385.04 212.01,-394.7"/>
<polygon fill="black" stroke="black" points="209.91,-397.5 219.97,-400.83 214.18,-391.96 209.91,-397.5"/>
</g>
<!-- RFC017&#45;&gt;RFC016 -->
<g id="edge38" class="edge">
<title>RFC017&#45;&gt;RFC016</title>
<path fill="none" stroke="black" d="M126.88,-326.83C120.95,-318.62 113.83,-308.76 107.31,-299.73"/>
<polygon fill="black" stroke="black" points="109.99,-297.47 101.3,-291.41 104.32,-301.57 109.99,-297.47"/>
</g>
</g>
</svg>
