<?xml version="1.0" encoding="UTF-8" standalone="no"?>
<!DOCTYPE svg PUBLIC "-//W3C//DTD SVG 1.1//EN"
 "http://www.w3.org/Graphics/SVG/1.1/DTD/svg11.dtd">
<!-- Generated by graphviz version 2.44.1 (20200629.0846)
 -->
<!-- Title: D Pages: 1 -->
<svg width="1637pt" height="256pt"
 viewBox="0.00 0.00 1637.00 256.00" xmlns="http://www.w3.org/2000/svg" xmlns:xlink="http://www.w3.org/1999/xlink">
<g id="graph0" class="graph" transform="scale(1 1) rotate(0) translate(4 252)">
<title>D</title>
<polygon fill="white" stroke="transparent" points="-4,4 -4,-252 1633,-252 1633,4 -4,4"/>
<g id="clust1" class="cluster">
<title>cluster_internal</title>
<polygon fill="none" stroke="black" points="8,-15.5 8,-240 794,-240 794,-15.5 8,-15.5"/>
</g>
<g id="clust2" class="cluster">
<title>cluster_external</title>
<polygon fill="none" stroke="black" points="802,-8 802,-77 1621,-77 1621,-8 802,-8"/>
</g>
<!-- RFC001 -->
<g id="node1" class="node">
<title>RFC001</title>
<g id="a_node1"><a xlink:href="rfc001-nuts-start-architecture" xlink:title="RFC001\nNuts Start Architecture">
<polygon fill="none" stroke="black" points="722,-61.5 570,-61.5 570,-23.5 722,-23.5 722,-61.5"/>
<text text-anchor="middle" x="646" y="-46.3" font-family="Helvetica,sans-Serif" font-size="14.00">RFC001</text>
<text text-anchor="middle" x="646" y="-31.3" font-family="Helvetica,sans-Serif" font-size="14.00">Nuts Start Architecture</text>
</a>
</g>
</g>
<!-- RFC002 -->
<g id="node2" class="node">
<title>RFC002</title>
<g id="a_node2"><a xlink:href="rfc002-authentication-token" xlink:title="RFC002\nAuthentication token">
<polygon fill="none" stroke="black" points="715.5,-143 576.5,-143 576.5,-105 715.5,-105 715.5,-143"/>
<text text-anchor="middle" x="646" y="-127.8" font-family="Helvetica,sans-Serif" font-size="14.00">RFC002</text>
<text text-anchor="middle" x="646" y="-112.8" font-family="Helvetica,sans-Serif" font-size="14.00">Authentication token</text>
</a>
</g>
</g>
<!-- RFC002&#45;&gt;RFC001 -->
<g id="edge1" class="edge">
<title>RFC002&#45;&gt;RFC001</title>
<path fill="none" stroke="black" d="M646,-104.96C646,-95.17 646,-82.85 646,-71.81"/>
<polygon fill="black" stroke="black" points="649.5,-71.74 646,-61.74 642.5,-71.74 649.5,-71.74"/>
</g>
<!-- RFC003 -->
<g id="node3" class="node">
<title>RFC003</title>
<g id="a_node3"><a xlink:href="rfc003-oauth2-authorization" xlink:title="RFC003\nOAuth2 Authorization">
<polygon fill="none" stroke="black" points="786,-224.5 640,-224.5 640,-186.5 786,-186.5 786,-224.5"/>
<text text-anchor="middle" x="713" y="-209.3" font-family="Helvetica,sans-Serif" font-size="14.00">RFC003</text>
<text text-anchor="middle" x="713" y="-194.3" font-family="Helvetica,sans-Serif" font-size="14.00">OAuth2 Authorization</text>
</a>
</g>
</g>
<!-- RFC003&#45;&gt;RFC001 -->
<g id="edge2" class="edge">
<title>RFC003&#45;&gt;RFC001</title>
<path fill="none" stroke="black" d="M720.97,-186.25C728.77,-165.49 737.76,-131.11 725,-105 717.48,-89.61 704.04,-76.96 690.36,-67.21"/>
<polygon fill="black" stroke="black" points="692.11,-64.18 681.85,-61.52 688.22,-69.99 692.11,-64.18"/>
</g>
<!-- RFC003&#45;&gt;RFC002 -->
<g id="edge3" class="edge">
<title>RFC003&#45;&gt;RFC002</title>
<path fill="none" stroke="black" d="M697.8,-186.46C688.95,-175.96 677.65,-162.55 667.86,-150.94"/>
<polygon fill="black" stroke="black" points="670.5,-148.63 661.38,-143.24 665.14,-153.15 670.5,-148.63"/>
</g>
<!-- RFC7662_EXT -->
<g id="node9" class="node">
<title>RFC7662_EXT</title>
<g id="a_node9"><a xlink:href="https://tools.ietf.org/html/rfc7662" xlink:title="RFC7662\nOAuth 2.0 Token Introspection">
<polygon fill="#e0eeee" stroke="black" points="1612.5,-61.5 1413.5,-61.5 1413.5,-23.5 1612.5,-23.5 1612.5,-61.5"/>
<text text-anchor="middle" x="1513" y="-46.3" font-family="Helvetica,sans-Serif" font-size="14.00">RFC7662</text>
<text text-anchor="middle" x="1513" y="-31.3" font-family="Helvetica,sans-Serif" font-size="14.00">OAuth 2.0 Token Introspection</text>
</a>
</g>
</g>
<!-- RFC003&#45;&gt;RFC7662_EXT -->
<g id="edge4" class="edge">
<title>RFC003&#45;&gt;RFC7662_EXT</title>
<path fill="none" stroke="black" d="M786.08,-193.95C912.97,-175 1181.85,-131.96 1405,-77 1419.48,-73.43 1434.88,-69.03 1449.37,-64.61"/>
<polygon fill="black" stroke="black" points="1450.72,-67.85 1459.24,-61.55 1448.65,-61.17 1450.72,-67.85"/>
</g>
<!-- RFC7523_EXT -->
<g id="node10" class="node">
<title>RFC7523_EXT</title>
<g id="a_node10"><a xlink:href="https://tools.ietf.org/html/rfc7523" xlink:title="RFC7523\nJSON Web Token (JWT) Profile\nfor OAuth 2.0 Client Authentication and Authorization Grants">
<polygon fill="#e0eeee" stroke="black" points="1395.5,-69 1016.5,-69 1016.5,-16 1395.5,-16 1395.5,-69"/>
<text text-anchor="middle" x="1206" y="-53.8" font-family="Helvetica,sans-Serif" font-size="14.00">RFC7523</text>
<text text-anchor="middle" x="1206" y="-38.8" font-family="Helvetica,sans-Serif" font-size="14.00">JSON Web Token (JWT) Profile</text>
<text text-anchor="middle" x="1206" y="-23.8" font-family="Helvetica,sans-Serif" font-size="14.00">for OAuth 2.0 Client Authentication and Authorization Grants</text>
</a>
</g>
</g>
<!-- RFC003&#45;&gt;RFC7523_EXT -->
<g id="edge5" class="edge">
<title>RFC003&#45;&gt;RFC7523_EXT</title>
<path fill="none" stroke="black" d="M768.12,-186.5C853.07,-158.76 1016.76,-105.3 1118.17,-72.18"/>
<polygon fill="black" stroke="black" points="1119.36,-75.48 1127.78,-69.04 1117.19,-68.82 1119.36,-75.48"/>
</g>
<!-- RFC7515_EXT -->
<g id="node11" class="node">
<title>RFC7515_EXT</title>
<g id="a_node11"><a xlink:href="https://tools.ietf.org/html/rfc7515" xlink:title="RFC7515\nJSON Web Signature (JWS)">
<polygon fill="#e0eeee" stroke="black" points="998,-61.5 810,-61.5 810,-23.5 998,-23.5 998,-61.5"/>
<text text-anchor="middle" x="904" y="-46.3" font-family="Helvetica,sans-Serif" font-size="14.00">RFC7515</text>
<text text-anchor="middle" x="904" y="-31.3" font-family="Helvetica,sans-Serif" font-size="14.00">JSON Web Signature (JWS)</text>
</a>
</g>
</g>
<!-- RFC003&#45;&gt;RFC7515_EXT -->
<g id="edge6" class="edge">
<title>RFC003&#45;&gt;RFC7515_EXT</title>
<path fill="none" stroke="black" d="M734.54,-186.34C768.88,-157.4 836.09,-100.75 874.75,-68.16"/>
<polygon fill="black" stroke="black" points="877.15,-70.71 882.54,-61.59 872.64,-65.36 877.15,-70.71"/>
</g>
<!-- RFC004 -->
<g id="node4" class="node">
<title>RFC004</title>
<g id="a_node4"><a xlink:href="rfc004-distributed-document-format" xlink:title="RFC004\nDistributed Document Format">
<polygon fill="none" stroke="black" points="558,-143 364,-143 364,-105 558,-105 558,-143"/>
<text text-anchor="middle" x="461" y="-127.8" font-family="Helvetica,sans-Serif" font-size="14.00">RFC004</text>
<text text-anchor="middle" x="461" y="-112.8" font-family="Helvetica,sans-Serif" font-size="14.00">Distributed Document Format</text>
</a>
</g>
</g>
<!-- RFC004&#45;&gt;RFC001 -->
<g id="edge7" class="edge">
<title>RFC004&#45;&gt;RFC001</title>
<path fill="none" stroke="black" d="M502.98,-104.96C530.09,-93.31 565.54,-78.08 594.37,-65.69"/>
<polygon fill="black" stroke="black" points="596.06,-68.77 603.87,-61.61 593.3,-62.34 596.06,-68.77"/>
</g>
<!-- RFC008 -->
<g id="node7" class="node">
<title>RFC008</title>
<g id="a_node7"><a xlink:href="rfc008-certificate-structure" xlink:title="RFC008\nCertificate Structure">
<polygon fill="none" stroke="black" points="471,-61.5 335,-61.5 335,-23.5 471,-23.5 471,-61.5"/>
<text text-anchor="middle" x="403" y="-46.3" font-family="Helvetica,sans-Serif" font-size="14.00">RFC008</text>
<text text-anchor="middle" x="403" y="-31.3" font-family="Helvetica,sans-Serif" font-size="14.00">Certificate Structure</text>
</a>
</g>
</g>
<!-- RFC004&#45;&gt;RFC008 -->
<g id="edge9" class="edge">
<title>RFC004&#45;&gt;RFC008</title>
<path fill="none" stroke="black" d="M447.84,-104.96C440.33,-94.67 430.77,-81.57 422.41,-70.11"/>
<polygon fill="black" stroke="black" points="425.03,-67.76 416.31,-61.74 419.38,-71.89 425.03,-67.76"/>
</g>
<!-- RFC004&#45;&gt;RFC7515_EXT -->
<g id="edge8" class="edge">
<title>RFC004&#45;&gt;RFC7515_EXT</title>
<path fill="none" stroke="black" d="M558.07,-106.47C561.42,-105.96 564.74,-105.47 568,-105 669.91,-90.23 697.36,-98.83 798,-77 813.09,-73.73 829.09,-69.23 843.97,-64.59"/>
<polygon fill="black" stroke="black" points="845.1,-67.91 853.56,-61.54 842.97,-61.24 845.1,-67.91"/>
</g>
<!-- RFC005 -->
<g id="node5" class="node">
<title>RFC005</title>
<g id="a_node5"><a xlink:href="rfc005-distributed-document-network-grpc" xlink:title="RFC005\nDistributed Document Network using gRPC\n(Planned)">
<polygon fill="none" stroke="black" points="622,-232 346,-232 346,-179 622,-179 622,-232"/>
<text text-anchor="middle" x="484" y="-216.8" font-family="Helvetica,sans-Serif" font-size="14.00">RFC005</text>
<text text-anchor="middle" x="484" y="-201.8" font-family="Helvetica,sans-Serif" font-size="14.00">Distributed Document Network using gRPC</text>
<text text-anchor="middle" x="484" y="-186.8" font-family="Helvetica,sans-Serif" font-size="14.00">(Planned)</text>
</a>
</g>
</g>
<!-- RFC005&#45;&gt;RFC004 -->
<g id="edge10" class="edge">
<title>RFC005&#45;&gt;RFC004</title>
<path fill="none" stroke="black" d="M476.6,-178.91C474.21,-170.65 471.54,-161.45 469.11,-153.02"/>
<polygon fill="black" stroke="black" points="472.42,-151.87 466.28,-143.24 465.69,-153.82 472.42,-151.87"/>
</g>
<!-- RFC006 -->
<g id="node6" class="node">
<title>RFC006</title>
<g id="a_node6"><a xlink:href="rfc006-distributed-registry" xlink:title="RFC006\nDistributed Registry">
<polygon fill="none" stroke="black" points="328,-224.5 194,-224.5 194,-186.5 328,-186.5 328,-224.5"/>
<text text-anchor="middle" x="261" y="-209.3" font-family="Helvetica,sans-Serif" font-size="14.00">RFC006</text>
<text text-anchor="middle" x="261" y="-194.3" font-family="Helvetica,sans-Serif" font-size="14.00">Distributed Registry</text>
</a>
</g>
</g>
<!-- RFC006&#45;&gt;RFC004 -->
<g id="edge11" class="edge">
<title>RFC006&#45;&gt;RFC004</title>
<path fill="none" stroke="black" d="M306.38,-186.46C335.94,-174.71 374.68,-159.31 405.99,-146.87"/>
<polygon fill="black" stroke="black" points="407.45,-150.05 415.45,-143.11 404.87,-143.55 407.45,-150.05"/>
</g>
<!-- RFC006&#45;&gt;RFC008 -->
<g id="edge12" class="edge">
<title>RFC006&#45;&gt;RFC008</title>
<path fill="none" stroke="black" d="M277.01,-186.34C302.15,-157.84 351,-102.46 379.93,-69.66"/>
<polygon fill="black" stroke="black" points="382.84,-71.65 386.83,-61.84 377.59,-67.02 382.84,-71.65"/>
</g>
<!-- RFC009 -->
<g id="node8" class="node">
<title>RFC009</title>
<g id="a_node8"><a xlink:href="rfc009-verifiable-presentations" xlink:title="RFC009\nVerifiable Presentations">
<polygon fill="none" stroke="black" points="175.5,-224.5 16.5,-224.5 16.5,-186.5 175.5,-186.5 175.5,-224.5"/>
<text text-anchor="middle" x="96" y="-209.3" font-family="Helvetica,sans-Serif" font-size="14.00">RFC009</text>
<text text-anchor="middle" x="96" y="-194.3" font-family="Helvetica,sans-Serif" font-size="14.00">Verifiable Presentations</text>
</a>
</g>
</g>
</g>
</svg>
