<?xml version="1.0" encoding="UTF-8" standalone="no"?>
<!DOCTYPE svg PUBLIC "-//W3C//DTD SVG 1.1//EN"
 "http://www.w3.org/Graphics/SVG/1.1/DTD/svg11.dtd">
<!-- Generated by graphviz version 2.46.1 (20210213.1702)
 -->
<!-- Title: D Pages: 1 -->
<svg width="1707pt" height="241pt"
 viewBox="0.00 0.00 1707.00 241.00" xmlns="http://www.w3.org/2000/svg" xmlns:xlink="http://www.w3.org/1999/xlink">
<g id="graph0" class="graph" transform="scale(1 1) rotate(0) translate(4 237)">
<title>D</title>
<polygon fill="white" stroke="transparent" points="-4,4 -4,-237 1703,-237 1703,4 -4,4"/>
<g id="clust1" class="cluster">
<title>cluster_internal</title>
<polygon fill="none" stroke="black" points="8,-15.5 8,-225 864,-225 864,-15.5 8,-15.5"/>
</g>
<g id="clust2" class="cluster">
<title>cluster_external</title>
<polygon fill="none" stroke="black" points="872,-8 872,-77 1691,-77 1691,-8 872,-8"/>
</g>
<!-- RFC001 -->
<g id="node1" class="node">
<title>RFC001</title>
<g id="a_node1"><a xlink:href="rfc001-nuts-start-architecture" xlink:title="RFC001\nNuts Start Architecture">
<polygon fill="none" stroke="black" points="794,-61.5 642,-61.5 642,-23.5 794,-23.5 794,-61.5"/>
<text text-anchor="middle" x="718" y="-46.3" font-family="Helvetica,sans-Serif" font-size="14.00">RFC001</text>
<text text-anchor="middle" x="718" y="-31.3" font-family="Helvetica,sans-Serif" font-size="14.00">Nuts Start Architecture</text>
</a>
</g>
</g>
<!-- RFC002 -->
<g id="node2" class="node">
<title>RFC002</title>
<g id="a_node2"><a xlink:href="rfc002-authentication-token" xlink:title="RFC002\nAuthentication token">
<polygon fill="none" stroke="black" points="787.5,-143 648.5,-143 648.5,-105 787.5,-105 787.5,-143"/>
<text text-anchor="middle" x="718" y="-127.8" font-family="Helvetica,sans-Serif" font-size="14.00">RFC002</text>
<text text-anchor="middle" x="718" y="-112.8" font-family="Helvetica,sans-Serif" font-size="14.00">Authentication token</text>
</a>
</g>
</g>
<!-- RFC002&#45;&gt;RFC001 -->
<g id="edge1" class="edge">
<title>RFC002&#45;&gt;RFC001</title>
<path fill="none" stroke="black" d="M718,-104.96C718,-95.17 718,-82.85 718,-71.81"/>
<polygon fill="black" stroke="black" points="721.5,-71.74 718,-61.74 714.5,-71.74 721.5,-71.74"/>
</g>
<!-- RFC003 -->
<g id="node3" class="node">
<title>RFC003</title>
<g id="a_node3"><a xlink:href="rfc003-oauth2-authorization" xlink:title="RFC003\nOAuth2 Authorization">
<polygon fill="none" stroke="black" points="856,-217 710,-217 710,-179 856,-179 856,-217"/>
<text text-anchor="middle" x="783" y="-201.8" font-family="Helvetica,sans-Serif" font-size="14.00">RFC003</text>
<text text-anchor="middle" x="783" y="-186.8" font-family="Helvetica,sans-Serif" font-size="14.00">OAuth2 Authorization</text>
</a>
</g>
</g>
<!-- RFC003&#45;&gt;RFC001 -->
<g id="edge2" class="edge">
<title>RFC003&#45;&gt;RFC001</title>
<path fill="none" stroke="black" d="M791.78,-178.76C799.73,-159.49 808.56,-128.66 797,-105 789.48,-89.61 776.04,-76.96 762.36,-67.21"/>
<polygon fill="black" stroke="black" points="764.11,-64.18 753.85,-61.52 760.22,-69.99 764.11,-64.18"/>
</g>
<!-- RFC003&#45;&gt;RFC002 -->
<g id="edge3" class="edge">
<title>RFC003&#45;&gt;RFC002</title>
<path fill="none" stroke="black" d="M766.6,-178.83C758.96,-170.37 749.73,-160.15 741.38,-150.9"/>
<polygon fill="black" stroke="black" points="743.92,-148.49 734.62,-143.41 738.73,-153.18 743.92,-148.49"/>
</g>
<!-- RFC7662_EXT -->
<g id="node9" class="node">
<title>RFC7662_EXT</title>
<g id="a_node9"><a xlink:href="https://tools.ietf.org/html/rfc7662" xlink:title="RFC7662\nOAuth 2.0 Token Introspection">
<polygon fill="#e0eeee" stroke="black" points="1682.5,-61.5 1483.5,-61.5 1483.5,-23.5 1682.5,-23.5 1682.5,-61.5"/>
<text text-anchor="middle" x="1583" y="-46.3" font-family="Helvetica,sans-Serif" font-size="14.00">RFC7662</text>
<text text-anchor="middle" x="1583" y="-31.3" font-family="Helvetica,sans-Serif" font-size="14.00">OAuth 2.0 Token Introspection</text>
</a>
</g>
</g>
<!-- RFC003&#45;&gt;RFC7662_EXT -->
<g id="edge4" class="edge">
<title>RFC003&#45;&gt;RFC7662_EXT</title>
<path fill="none" stroke="black" d="M856.11,-187.49C983.05,-170.27 1251.99,-130.69 1475,-77 1489.58,-73.49 1505.07,-69.09 1519.63,-64.65"/>
<polygon fill="black" stroke="black" points="1521.03,-67.88 1529.54,-61.58 1518.96,-61.2 1521.03,-67.88"/>
</g>
<!-- RFC7523_EXT -->
<g id="node10" class="node">
<title>RFC7523_EXT</title>
<g id="a_node10"><a xlink:href="https://tools.ietf.org/html/rfc7523" xlink:title="RFC7523\nJSON Web Token (JWT) Profile\nfor OAuth 2.0 Client Authentication and Authorization Grants">
<polygon fill="#e0eeee" stroke="black" points="1465.5,-69 1086.5,-69 1086.5,-16 1465.5,-16 1465.5,-69"/>
<text text-anchor="middle" x="1276" y="-53.8" font-family="Helvetica,sans-Serif" font-size="14.00">RFC7523</text>
<text text-anchor="middle" x="1276" y="-38.8" font-family="Helvetica,sans-Serif" font-size="14.00">JSON Web Token (JWT) Profile</text>
<text text-anchor="middle" x="1276" y="-23.8" font-family="Helvetica,sans-Serif" font-size="14.00">for OAuth 2.0 Client Authentication and Authorization Grants</text>
</a>
</g>
</g>
<!-- RFC003&#45;&gt;RFC7523_EXT -->
<g id="edge5" class="edge">
<title>RFC003&#45;&gt;RFC7523_EXT</title>
<path fill="none" stroke="black" d="M841,-178.94C925.62,-152.59 1083.73,-103.36 1184.23,-72.07"/>
<polygon fill="black" stroke="black" points="1185.57,-75.32 1194.08,-69.01 1183.49,-68.64 1185.57,-75.32"/>
</g>
<!-- RFC7515_EXT -->
<g id="node11" class="node">
<title>RFC7515_EXT</title>
<g id="a_node11"><a xlink:href="https://tools.ietf.org/html/rfc7515" xlink:title="RFC7515\nJSON Web Signature (JWS)">
<polygon fill="#e0eeee" stroke="black" points="1068,-61.5 880,-61.5 880,-23.5 1068,-23.5 1068,-61.5"/>
<text text-anchor="middle" x="974" y="-46.3" font-family="Helvetica,sans-Serif" font-size="14.00">RFC7515</text>
<text text-anchor="middle" x="974" y="-31.3" font-family="Helvetica,sans-Serif" font-size="14.00">JSON Web Signature (JWS)</text>
</a>
</g>
</g>
<!-- RFC003&#45;&gt;RFC7515_EXT -->
<g id="edge6" class="edge">
<title>RFC003&#45;&gt;RFC7515_EXT</title>
<path fill="none" stroke="black" d="M805.66,-178.79C839.84,-151.32 904.65,-99.23 943.12,-68.32"/>
<polygon fill="black" stroke="black" points="945.77,-70.68 951.37,-61.69 941.38,-65.22 945.77,-70.68"/>
</g>
<!-- RFC004 -->
<g id="node4" class="node">
<title>RFC004</title>
<g id="a_node4"><a xlink:href="rfc004-verifiable-transactional-graph" xlink:title="RFC004\nVerifiable Transactional Graph">
<polygon fill="none" stroke="black" points="630,-143 430,-143 430,-105 630,-105 630,-143"/>
<text text-anchor="middle" x="530" y="-127.8" font-family="Helvetica,sans-Serif" font-size="14.00">RFC004</text>
<text text-anchor="middle" x="530" y="-112.8" font-family="Helvetica,sans-Serif" font-size="14.00">Verifiable Transactional Graph</text>
</a>
</g>
</g>
<!-- RFC004&#45;&gt;RFC001 -->
<g id="edge7" class="edge">
<title>RFC004&#45;&gt;RFC001</title>
<path fill="none" stroke="black" d="M572.66,-104.96C600.33,-93.26 636.55,-77.94 665.91,-65.53"/>
<polygon fill="black" stroke="black" points="667.34,-68.72 675.18,-61.61 664.61,-62.28 667.34,-68.72"/>
</g>
<!-- RFC008 -->
<g id="node7" class="node">
<title>RFC008</title>
<g id="a_node7"><a xlink:href="rfc008-certificate-structure" xlink:title="RFC008\nCertificate Structure">
<polygon fill="none" stroke="black" points="539,-61.5 403,-61.5 403,-23.5 539,-23.5 539,-61.5"/>
<text text-anchor="middle" x="471" y="-46.3" font-family="Helvetica,sans-Serif" font-size="14.00">RFC008</text>
<text text-anchor="middle" x="471" y="-31.3" font-family="Helvetica,sans-Serif" font-size="14.00">Certificate Structure</text>
</a>
</g>
</g>
<!-- RFC004&#45;&gt;RFC008 -->
<g id="edge9" class="edge">
<title>RFC004&#45;&gt;RFC008</title>
<path fill="none" stroke="black" d="M516.61,-104.96C508.9,-94.56 499.06,-81.31 490.5,-69.77"/>
<polygon fill="black" stroke="black" points="493.31,-67.69 484.54,-61.74 487.69,-71.86 493.31,-67.69"/>
</g>
<!-- RFC004&#45;&gt;RFC7515_EXT -->
<g id="edge8" class="edge">
<title>RFC004&#45;&gt;RFC7515_EXT</title>
<path fill="none" stroke="black" d="M630.09,-106.45C633.43,-105.95 636.74,-105.47 640,-105 741.06,-90.53 768.24,-98.7 868,-77 883.08,-73.72 899.09,-69.22 913.97,-64.58"/>
<polygon fill="black" stroke="black" points="915.1,-67.89 923.56,-61.52 912.97,-61.23 915.1,-67.89"/>
</g>
<!-- RFC005 -->
<g id="node5" class="node">
<title>RFC005</title>
<g id="a_node5"><a xlink:href="rfc005-distributed-document-network-grpc" xlink:title="RFC005\nDistributed Document Network using gRPC">
<polygon fill="none" stroke="black" points="692,-217 416,-217 416,-179 692,-179 692,-217"/>
<text text-anchor="middle" x="554" y="-201.8" font-family="Helvetica,sans-Serif" font-size="14.00">RFC005</text>
<text text-anchor="middle" x="554" y="-186.8" font-family="Helvetica,sans-Serif" font-size="14.00">Distributed Document Network using gRPC</text>
</a>
</g>
</g>
<!-- RFC005&#45;&gt;RFC004 -->
<g id="edge10" class="edge">
<title>RFC005&#45;&gt;RFC004</title>
<path fill="none" stroke="black" d="M547.94,-178.83C545.35,-171.05 542.26,-161.77 539.38,-153.13"/>
<polygon fill="black" stroke="black" points="542.62,-151.79 536.14,-143.41 535.98,-154.01 542.62,-151.79"/>
</g>
<!-- RFC006 -->
<g id="node6" class="node">
<title>RFC006</title>
<g id="a_node6"><a xlink:href="rfc006-distributed-registry" xlink:title="RFC006\nDistributed Registry using DIDs">
<polygon fill="none" stroke="black" points="398,-217 194,-217 194,-179 398,-179 398,-217"/>
<text text-anchor="middle" x="296" y="-201.8" font-family="Helvetica,sans-Serif" font-size="14.00">RFC006</text>
<text text-anchor="middle" x="296" y="-186.8" font-family="Helvetica,sans-Serif" font-size="14.00">Distributed Registry using DIDs</text>
</a>
</g>
</g>
<!-- RFC006&#45;&gt;RFC004 -->
<g id="edge11" class="edge">
<title>RFC006&#45;&gt;RFC004</title>
<path fill="none" stroke="black" d="M354.75,-178.92C387.15,-168.95 427.56,-156.52 461.41,-146.1"/>
<polygon fill="black" stroke="black" points="462.7,-149.37 471.23,-143.08 460.64,-142.68 462.7,-149.37"/>
</g>
<!-- RFC006&#45;&gt;RFC008 -->
<g id="edge12" class="edge">
<title>RFC006&#45;&gt;RFC008</title>
<path fill="none" stroke="black" d="M316.76,-178.79C348.07,-151.32 407.46,-99.23 442.7,-68.32"/>
<polygon fill="black" stroke="black" points="445.06,-70.91 450.27,-61.69 440.44,-65.65 445.06,-70.91"/>
</g>
<!-- RFC009 -->
<g id="node8" class="node">
<title>RFC009</title>
<g id="a_node8"><a xlink:href="rfc009-verifiable-presentations" xlink:title="RFC009\nVerifiable Presentations">
<polygon fill="none" stroke="black" points="175.5,-217 16.5,-217 16.5,-179 175.5,-179 175.5,-217"/>
<text text-anchor="middle" x="96" y="-201.8" font-family="Helvetica,sans-Serif" font-size="14.00">RFC009</text>
<text text-anchor="middle" x="96" y="-186.8" font-family="Helvetica,sans-Serif" font-size="14.00">Verifiable Presentations</text>
</a>
</g>
</g>
</g>
</svg>
