<?xml version="1.0" encoding="UTF-8" standalone="no"?>
<!DOCTYPE svg PUBLIC "-//W3C//DTD SVG 1.1//EN"
 "http://www.w3.org/Graphics/SVG/1.1/DTD/svg11.dtd">
<!-- Generated by graphviz version 8.0.5 (20230430.1635)
 -->
<!-- Title: D Pages: 1 -->
<svg width="4679pt" height="463pt"
 viewBox="0.00 0.00 4679.00 463.00" xmlns="http://www.w3.org/2000/svg" xmlns:xlink="http://www.w3.org/1999/xlink">
<g id="graph0" class="graph" transform="scale(1 1) rotate(0) translate(4 459)">
<title>D</title>
<polygon fill="white" stroke="none" points="-4,4 -4,-459 4675,-459 4675,4 -4,4"/>
<g id="clust1" class="cluster">
<title>cluster_internal</title>
<polygon fill="none" stroke="black" points="8,-8 8,-447 972,-447 972,-8 8,-8"/>
</g>
<g id="clust2" class="cluster">
<title>cluster_external</title>
<polygon fill="none" stroke="black" points="980,-82 980,-151 4663,-151 4663,-82 980,-82"/>
</g>
<!-- RFC001 -->
<g id="node1" class="node">
<title>RFC001</title>
<g id="a_node1"><a xlink:href="rfc001-nuts-start-architecture" xlink:title="RFC001\nNuts Start Architecture">
<polygon fill="none" stroke="black" points="700.88,-54 549.12,-54 549.12,-16 700.88,-16 700.88,-54"/>
<text text-anchor="middle" x="625" y="-36.7" font-family="Helvetica,sans-Serif" font-size="14.00">RFC001</text>
<text text-anchor="middle" x="625" y="-21.7" font-family="Helvetica,sans-Serif" font-size="14.00">Nuts Start Architecture</text>
</a>
</g>
</g>
<!-- RFC002 -->
<g id="node2" class="node">
<title>RFC002</title>
<g id="a_node2"><a xlink:href="rfc002-authentication-token" xlink:title="RFC002\nAuthentication token">
<polygon fill="none" stroke="black" points="746.12,-135.5 607.88,-135.5 607.88,-97.5 746.12,-97.5 746.12,-135.5"/>
<text text-anchor="middle" x="677" y="-118.2" font-family="Helvetica,sans-Serif" font-size="14.00">RFC002</text>
<text text-anchor="middle" x="677" y="-103.2" font-family="Helvetica,sans-Serif" font-size="14.00">Authentication token</text>
</a>
</g>
</g>
<!-- RFC002&#45;&gt;RFC001 -->
<g id="edge1" class="edge">
<title>RFC002&#45;&gt;RFC001</title>
<path fill="none" stroke="black" d="M664.94,-97.06C658.38,-87.03 650.13,-74.42 642.84,-63.27"/>
<polygon fill="black" stroke="black" points="645.4,-61.79 637,-55.34 639.54,-65.62 645.4,-61.79"/>
</g>
<!-- RFC003 -->
<g id="node3" class="node">
<title>RFC003</title>
<g id="a_node3"><a xlink:href="rfc003-oauth2-authorization" xlink:title="RFC003\nOAuth2 Authorization">
<polygon fill="none" stroke="black" points="873.5,-217 728.5,-217 728.5,-179 873.5,-179 873.5,-217"/>
<text text-anchor="middle" x="801" y="-199.7" font-family="Helvetica,sans-Serif" font-size="14.00">RFC003</text>
<text text-anchor="middle" x="801" y="-184.7" font-family="Helvetica,sans-Serif" font-size="14.00">OAuth2 Authorization</text>
</a>
</g>
</g>
<!-- RFC003&#45;&gt;RFC001 -->
<g id="edge2" class="edge">
<title>RFC003&#45;&gt;RFC001</title>
<path fill="none" stroke="black" d="M798.48,-178.86C794.06,-153.75 782.61,-108.51 755,-82 742.7,-70.19 727.19,-61.39 711.19,-54.84"/>
<polygon fill="black" stroke="black" points="712.79,-51.32 702.2,-51.05 710.31,-57.87 712.79,-51.32"/>
</g>
<!-- RFC003&#45;&gt;RFC002 -->
<g id="edge3" class="edge">
<title>RFC003&#45;&gt;RFC002</title>
<path fill="none" stroke="black" d="M772.24,-178.56C755.1,-167.57 733.16,-153.5 714.65,-141.64"/>
<polygon fill="black" stroke="black" points="716.91,-138.29 706.6,-135.84 713.13,-144.18 716.91,-138.29"/>
</g>
<!-- RFC7662_EXT -->
<g id="node18" class="node">
<title>RFC7662_EXT</title>
<g id="a_node18"><a xlink:href="https://www.rfc-editor.org/info/rfc7662" xlink:title="OAuth 2.0 Token Introspection">
<polygon fill="#e0eeee" stroke="black" points="2164.12,-134.5 1965.88,-134.5 1965.88,-98.5 2164.12,-98.5 2164.12,-134.5"/>
<text text-anchor="middle" x="2065" y="-110.7" font-family="Helvetica,sans-Serif" font-size="14.00">OAuth 2.0 Token Introspection</text>
</a>
</g>
</g>
<!-- RFC003&#45;&gt;RFC7662_EXT -->
<g id="edge4" class="edge">
<title>RFC003&#45;&gt;RFC7662_EXT</title>
<path fill="none" stroke="black" d="M873.92,-195.2C1111,-189.21 1850.85,-169.25 1957,-151 1973.74,-148.12 1991.51,-143.36 2007.69,-138.32"/>
<polygon fill="black" stroke="black" points="2008.62,-141.37 2017.07,-134.98 2006.48,-134.71 2008.62,-141.37"/>
</g>
<!-- RFC7523_EXT -->
<g id="node19" class="node">
<title>RFC7523_EXT</title>
<g id="a_node19"><a xlink:href="https://tools.ietf.org/html/rfc7523" xlink:title="RFC7523\nJSON Web Token (JWT) Profile\nfor OAuth 2.0 Client Authentication and Authorization Grants">
<polygon fill="#e0eeee" stroke="black" points="1572.12,-143 1193.88,-143 1193.88,-90 1572.12,-90 1572.12,-143"/>
<text text-anchor="middle" x="1383" y="-125.7" font-family="Helvetica,sans-Serif" font-size="14.00">RFC7523</text>
<text text-anchor="middle" x="1383" y="-110.7" font-family="Helvetica,sans-Serif" font-size="14.00">JSON Web Token (JWT) Profile</text>
<text text-anchor="middle" x="1383" y="-95.7" font-family="Helvetica,sans-Serif" font-size="14.00">for OAuth 2.0 Client Authentication and Authorization Grants</text>
</a>
</g>
</g>
<!-- RFC003&#45;&gt;RFC7523_EXT -->
<g id="edge5" class="edge">
<title>RFC003&#45;&gt;RFC7523_EXT</title>
<path fill="none" stroke="black" d="M873.68,-189.35C951.01,-180.97 1076.85,-166.62 1185,-151 1197.59,-149.18 1210.62,-147.2 1223.7,-145.14"/>
<polygon fill="black" stroke="black" points="1223.87,-148.5 1233.19,-143.47 1222.77,-141.59 1223.87,-148.5"/>
</g>
<!-- RFC7515_EXT -->
<g id="node20" class="node">
<title>RFC7515_EXT</title>
<g id="a_node20"><a xlink:href="https://tools.ietf.org/html/rfc7515" xlink:title="RFC7515\nJSON Web Signature (JWS)">
<polygon fill="#e0eeee" stroke="black" points="1175.88,-135.5 988.12,-135.5 988.12,-97.5 1175.88,-97.5 1175.88,-135.5"/>
<text text-anchor="middle" x="1082" y="-118.2" font-family="Helvetica,sans-Serif" font-size="14.00">RFC7515</text>
<text text-anchor="middle" x="1082" y="-103.2" font-family="Helvetica,sans-Serif" font-size="14.00">JSON Web Signature (JWS)</text>
</a>
</g>
</g>
<!-- RFC003&#45;&gt;RFC7515_EXT -->
<g id="edge6" class="edge">
<title>RFC003&#45;&gt;RFC7515_EXT</title>
<path fill="none" stroke="black" d="M873.59,-178.77C905.15,-170.62 942.5,-160.69 976,-151 988.73,-147.32 1002.25,-143.2 1015.23,-139.15"/>
<polygon fill="black" stroke="black" points="1016,-142.26 1024.49,-135.92 1013.9,-135.58 1016,-142.26"/>
</g>
<!-- RFC004 -->
<g id="node4" class="node">
<title>RFC004</title>
<g id="a_node4"><a xlink:href="rfc004-verifiable-transactional-graph" xlink:title="RFC004\nVerifiable Transactional Graph">
<polygon fill="none" stroke="black" points="552.5,-217 353.5,-217 353.5,-179 552.5,-179 552.5,-217"/>
<text text-anchor="middle" x="453" y="-199.7" font-family="Helvetica,sans-Serif" font-size="14.00">RFC004</text>
<text text-anchor="middle" x="453" y="-184.7" font-family="Helvetica,sans-Serif" font-size="14.00">Verifiable Transactional Graph</text>
</a>
</g>
</g>
<!-- RFC004&#45;&gt;RFC001 -->
<g id="edge7" class="edge">
<title>RFC004&#45;&gt;RFC001</title>
<path fill="none" stroke="black" d="M469.97,-178.87C491.93,-155.69 531.67,-114.65 568,-82 575.71,-75.07 584.29,-67.89 592.4,-61.32"/>
<polygon fill="black" stroke="black" points="594.34,-63.45 599.96,-54.47 589.96,-57.99 594.34,-63.45"/>
</g>
<!-- RFC008 -->
<g id="node7" class="node">
<title>RFC008</title>
<g id="a_node7"><a xlink:href="rfc008-certificate-structure" xlink:title="RFC008\nCertificate Structure">
<polygon fill="none" stroke="black" points="401.62,-135.5 266.38,-135.5 266.38,-97.5 401.62,-97.5 401.62,-135.5"/>
<text text-anchor="middle" x="334" y="-118.2" font-family="Helvetica,sans-Serif" font-size="14.00">RFC008</text>
<text text-anchor="middle" x="334" y="-103.2" font-family="Helvetica,sans-Serif" font-size="14.00">Certificate Structure</text>
</a>
</g>
</g>
<!-- RFC004&#45;&gt;RFC008 -->
<g id="edge9" class="edge">
<title>RFC004&#45;&gt;RFC008</title>
<path fill="none" stroke="black" d="M425.4,-178.56C409.03,-167.62 388.08,-153.63 370.37,-141.8"/>
<polygon fill="black" stroke="black" points="372.71,-138.48 362.45,-135.84 368.82,-144.3 372.71,-138.48"/>
</g>
<!-- RFC004&#45;&gt;RFC7515_EXT -->
<g id="edge8" class="edge">
<title>RFC004&#45;&gt;RFC7515_EXT</title>
<path fill="none" stroke="black" d="M552.9,-190.82C681.49,-182.42 897.67,-166.63 976,-151 990.77,-148.05 1006.39,-143.79 1020.97,-139.28"/>
<polygon fill="black" stroke="black" points="1021.9,-142.34 1030.37,-135.98 1019.78,-135.67 1021.9,-142.34"/>
</g>
<!-- RFC005 -->
<g id="node5" class="node">
<title>RFC005</title>
<g id="a_node5"><a xlink:href="rfc005-distributed-document-network-grpc" xlink:title="RFC005\nDistributed Document Network using gRPC">
<polygon fill="none" stroke="black" points="331.75,-291 56.25,-291 56.25,-253 331.75,-253 331.75,-291"/>
<text text-anchor="middle" x="194" y="-273.7" font-family="Helvetica,sans-Serif" font-size="14.00">RFC005</text>
<text text-anchor="middle" x="194" y="-258.7" font-family="Helvetica,sans-Serif" font-size="14.00">Distributed Document Network using gRPC</text>
</a>
</g>
</g>
<!-- RFC005&#45;&gt;RFC004 -->
<g id="edge10" class="edge">
<title>RFC005&#45;&gt;RFC004</title>
<path fill="none" stroke="black" d="M260.36,-252.55C295.85,-242.69 339.7,-230.5 376.6,-220.24"/>
<polygon fill="black" stroke="black" points="377.11,-223.45 385.81,-217.4 375.24,-216.71 377.11,-223.45"/>
</g>
<!-- RFC006 -->
<g id="node6" class="node">
<title>RFC006</title>
<g id="a_node6"><a xlink:href="rfc006-distributed-registry" xlink:title="RFC006\nDistributed Registry using DIDs">
<polygon fill="none" stroke="black" points="553.75,-291 350.25,-291 350.25,-253 553.75,-253 553.75,-291"/>
<text text-anchor="middle" x="452" y="-273.7" font-family="Helvetica,sans-Serif" font-size="14.00">RFC006</text>
<text text-anchor="middle" x="452" y="-258.7" font-family="Helvetica,sans-Serif" font-size="14.00">Distributed Registry using DIDs</text>
</a>
</g>
</g>
<!-- RFC006&#45;&gt;RFC004 -->
<g id="edge11" class="edge">
<title>RFC006&#45;&gt;RFC004</title>
<path fill="none" stroke="black" d="M452.25,-252.83C452.36,-245.38 452.48,-236.58 452.59,-228.26"/>
<polygon fill="black" stroke="black" points="456.1,-228.46 452.74,-218.41 449.11,-228.36 456.1,-228.46"/>
</g>
<!-- RFC006&#45;&gt;RFC008 -->
<g id="edge12" class="edge">
<title>RFC006&#45;&gt;RFC008</title>
<path fill="none" stroke="black" d="M389.58,-252.59C372.16,-244.44 355.01,-232.96 344,-217 329.88,-196.52 328.43,-167.81 329.9,-146.48"/>
<polygon fill="black" stroke="black" points="333.45,-147.08 330.91,-136.79 326.48,-146.42 333.45,-147.08"/>
</g>
<!-- DID_EXT -->
<g id="node21" class="node">
<title>DID_EXT</title>
<g id="a_node21"><a xlink:href="https://www.w3.org/TR/2022/REC-did-core-20220719/" xlink:title="W3C DID\nDecentralized Identifiers (DIDs) v1.0">
<polygon fill="#e0eeee" stroke="black" points="2680.38,-135.5 2447.62,-135.5 2447.62,-97.5 2680.38,-97.5 2680.38,-135.5"/>
<text text-anchor="middle" x="2564" y="-118.2" font-family="Helvetica,sans-Serif" font-size="14.00">W3C DID</text>
<text text-anchor="middle" x="2564" y="-103.2" font-family="Helvetica,sans-Serif" font-size="14.00">Decentralized Identifiers (DIDs) v1.0</text>
</a>
</g>
</g>
<!-- RFC006&#45;&gt;DID_EXT -->
<g id="edge13" class="edge">
<title>RFC006&#45;&gt;DID_EXT</title>
<path fill="none" stroke="black" d="M554.17,-256.14C563.9,-254.97 573.63,-253.9 583,-253 685.79,-243.13 2337.03,-167.29 2439,-151 2457.27,-148.08 2476.72,-143.58 2494.7,-138.8"/>
<polygon fill="black" stroke="black" points="2495.36,-141.98 2504.09,-135.97 2493.52,-135.22 2495.36,-141.98"/>
</g>
<!-- RFC011 -->
<g id="node8" class="node">
<title>RFC011</title>
<g id="a_node8"><a xlink:href="rfc011-verifiable-credential" xlink:title="RFC011\nVerifiable Credentials">
<polygon fill="none" stroke="black" points="964.12,-291 819.88,-291 819.88,-253 964.12,-253 964.12,-291"/>
<text text-anchor="middle" x="892" y="-273.7" font-family="Helvetica,sans-Serif" font-size="14.00">RFC011</text>
<text text-anchor="middle" x="892" y="-258.7" font-family="Helvetica,sans-Serif" font-size="14.00">Verifiable Credentials</text>
</a>
</g>
</g>
<!-- RFC011&#45;&gt;RFC003 -->
<g id="edge14" class="edge">
<title>RFC011&#45;&gt;RFC003</title>
<path fill="none" stroke="black" d="M869.04,-252.83C858.02,-244.12 844.65,-233.53 832.68,-224.07"/>
<polygon fill="black" stroke="black" points="835.29,-220.87 825.27,-217.41 830.94,-226.36 835.29,-220.87"/>
</g>
<!-- RFC011&#45;&gt;RFC004 -->
<g id="edge15" class="edge">
<title>RFC011&#45;&gt;RFC004</title>
<path fill="none" stroke="black" d="M819.51,-259.11C749.82,-247.68 643.55,-230.25 563.35,-217.1"/>
<polygon fill="black" stroke="black" points="564.14,-213.52 553.71,-215.35 563.01,-220.43 564.14,-213.52"/>
</g>
<!-- RFC7779_EXT -->
<g id="node17" class="node">
<title>RFC7779_EXT</title>
<g id="a_node17"><a xlink:href="https://datatracker.ietf.org/doc/html/rfc7797" xlink:title="RFC7779\nJSON Web Signature (JWS) Unencoded Payload Option">
<polygon fill="#e0eeee" stroke="black" points="1947.62,-135.5 1590.38,-135.5 1590.38,-97.5 1947.62,-97.5 1947.62,-135.5"/>
<text text-anchor="middle" x="1769" y="-118.2" font-family="Helvetica,sans-Serif" font-size="14.00">RFC7779</text>
<text text-anchor="middle" x="1769" y="-103.2" font-family="Helvetica,sans-Serif" font-size="14.00">JSON Web Signature (JWS) Unencoded Payload Option</text>
</a>
</g>
</g>
<!-- RFC011&#45;&gt;RFC7779_EXT -->
<g id="edge16" class="edge">
<title>RFC011&#45;&gt;RFC7779_EXT</title>
<path fill="none" stroke="black" d="M964.43,-258.48C1089.99,-236.76 1356.19,-190.61 1581,-151 1605.03,-146.77 1630.79,-142.2 1655.29,-137.84"/>
<polygon fill="black" stroke="black" points="1655.84,-141.11 1665.07,-135.92 1654.61,-134.22 1655.84,-141.11"/>
</g>
<!-- VC_EXT -->
<g id="node22" class="node">
<title>VC_EXT</title>
<g id="a_node22"><a xlink:href="https://www.w3.org/TR/2022/REC-vc-data-model-20220303/" xlink:title="W3C VC\nVerifiable Credentials Data Model v1.1">
<polygon fill="#e0eeee" stroke="black" points="2429.5,-135.5 2182.5,-135.5 2182.5,-97.5 2429.5,-97.5 2429.5,-135.5"/>
<text text-anchor="middle" x="2306" y="-118.2" font-family="Helvetica,sans-Serif" font-size="14.00">W3C VC</text>
<text text-anchor="middle" x="2306" y="-103.2" font-family="Helvetica,sans-Serif" font-size="14.00">Verifiable Credentials Data Model v1.1</text>
</a>
</g>
</g>
<!-- RFC011&#45;&gt;VC_EXT -->
<g id="edge17" class="edge">
<title>RFC011&#45;&gt;VC_EXT</title>
<path fill="none" stroke="black" d="M964.55,-267.63C1086.36,-261.4 1339.56,-245.99 1552,-217 1640.78,-204.88 1661.13,-190.43 1750,-179 1936.87,-154.98 1986.89,-180.35 2173,-151 2192.35,-147.95 2213,-143.4 2232.11,-138.63"/>
<polygon fill="black" stroke="black" points="2232.73,-141.83 2241.55,-135.96 2231,-135.05 2232.73,-141.83"/>
</g>
<!-- RFC012 -->
<g id="node9" class="node">
<title>RFC012</title>
<g id="a_node9"><a xlink:href="rfc012-nuts-organization-credential" xlink:title="RFC012\nNuts Organization Credential">
<polygon fill="none" stroke="black" points="734,-365 544,-365 544,-327 734,-327 734,-365"/>
<text text-anchor="middle" x="639" y="-347.7" font-family="Helvetica,sans-Serif" font-size="14.00">RFC012</text>
<text text-anchor="middle" x="639" y="-332.7" font-family="Helvetica,sans-Serif" font-size="14.00">Nuts Organization Credential</text>
</a>
</g>
</g>
<!-- RFC012&#45;&gt;RFC003 -->
<g id="edge18" class="edge">
<title>RFC012&#45;&gt;RFC003</title>
<path fill="none" stroke="black" d="M734.17,-326.55C753.82,-318.61 772.58,-307.25 786,-291 800.3,-273.68 803.5,-248.11 803.44,-228.32"/>
<polygon fill="black" stroke="black" points="806.91,-228.32 803.08,-218.44 799.91,-228.55 806.91,-228.32"/>
</g>
<!-- RFC012&#45;&gt;RFC006 -->
<g id="edge19" class="edge">
<title>RFC012&#45;&gt;RFC006</title>
<path fill="none" stroke="black" d="M591.33,-326.65C566.59,-317.12 536.16,-305.4 510.05,-295.35"/>
<polygon fill="black" stroke="black" points="511.5,-291.77 500.91,-291.45 508.98,-298.31 511.5,-291.77"/>
</g>
<!-- RFC012&#45;&gt;RFC011 -->
<g id="edge20" class="edge">
<title>RFC012&#45;&gt;RFC011</title>
<path fill="none" stroke="black" d="M703.83,-326.55C738.34,-316.73 780.96,-304.6 816.91,-294.37"/>
<polygon fill="black" stroke="black" points="817.68,-297.5 826.34,-291.4 815.77,-290.77 817.68,-297.5"/>
</g>
<!-- RFC012&#45;&gt;VC_EXT -->
<g id="edge21" class="edge">
<title>RFC012&#45;&gt;VC_EXT</title>
<path fill="none" stroke="black" d="M734.42,-327.96C737.31,-327.62 740.17,-327.29 743,-327 857.46,-315.16 1673.45,-339.07 1778,-291 1808.72,-276.87 1850.72,-194.05 1881,-179 1939.37,-149.98 2108.77,-162.1 2173,-151 2191.82,-147.75 2211.9,-143.24 2230.61,-138.59"/>
<polygon fill="black" stroke="black" points="2231.31,-141.77 2240.14,-135.92 2229.59,-134.99 2231.31,-141.77"/>
</g>
<!-- RFC013 -->
<g id="node10" class="node">
<title>RFC013</title>
<g id="a_node10"><a xlink:href="rfc013-vc-irma-proof" xlink:title="RFC013\nVerifiable Credential IRMA Proof">
<polygon fill="none" stroke="black" points="963.88,-365 752.12,-365 752.12,-327 963.88,-327 963.88,-365"/>
<text text-anchor="middle" x="858" y="-347.7" font-family="Helvetica,sans-Serif" font-size="14.00">RFC013</text>
<text text-anchor="middle" x="858" y="-332.7" font-family="Helvetica,sans-Serif" font-size="14.00">Verifiable Credential IRMA Proof</text>
</a>
</g>
</g>
<!-- RFC013&#45;&gt;RFC011 -->
<g id="edge22" class="edge">
<title>RFC013&#45;&gt;RFC011</title>
<path fill="none" stroke="black" d="M866.58,-326.83C870.26,-319.05 874.64,-309.77 878.71,-301.13"/>
<polygon fill="black" stroke="black" points="882.2,-302.95 883.3,-292.41 875.87,-299.96 882.2,-302.95"/>
</g>
<!-- RFC013&#45;&gt;VC_EXT -->
<g id="edge23" class="edge">
<title>RFC013&#45;&gt;VC_EXT</title>
<path fill="none" stroke="black" d="M964.35,-343.31C1198.09,-338.97 1741.85,-325.29 1818,-291 1881.9,-262.23 1865.96,-209.61 1929,-179 2027.19,-131.32 2065.62,-170.6 2173,-151 2191.41,-147.64 2211.04,-143.19 2229.42,-138.63"/>
<polygon fill="black" stroke="black" points="2230.24,-141.78 2239.08,-135.94 2228.53,-134.99 2230.24,-141.78"/>
</g>
<!-- RFC014 -->
<g id="node11" class="node">
<title>RFC014</title>
<g id="a_node11"><a xlink:href="rfc014-authorization-credential" xlink:title="RFC014\nNuts Authorization Credential">
<polygon fill="none" stroke="black" points="525.75,-365 334.25,-365 334.25,-327 525.75,-327 525.75,-365"/>
<text text-anchor="middle" x="430" y="-347.7" font-family="Helvetica,sans-Serif" font-size="14.00">RFC014</text>
<text text-anchor="middle" x="430" y="-332.7" font-family="Helvetica,sans-Serif" font-size="14.00">Nuts Authorization Credential</text>
</a>
</g>
</g>
<!-- RFC014&#45;&gt;RFC001 -->
<g id="edge24" class="edge">
<title>RFC014&#45;&gt;RFC001</title>
<path fill="none" stroke="black" d="M512.01,-326.57C531.26,-318.59 549.95,-307.21 563,-291 592.55,-254.29 583.17,-126.39 599,-82 601.21,-75.8 604.22,-69.46 607.42,-63.55"/>
<polygon fill="black" stroke="black" points="610.9,-65.52 612.85,-55.1 604.83,-62.03 610.9,-65.52"/>
</g>
<!-- RFC014&#45;&gt;RFC003 -->
<g id="edge25" class="edge">
<title>RFC014&#45;&gt;RFC003</title>
<path fill="none" stroke="black" d="M526.12,-328.45C529.11,-327.96 532.08,-327.47 535,-327 587.15,-318.54 729.55,-324.99 770,-291 775.08,-286.73 785.64,-252.89 793.02,-227.48"/>
<polygon fill="black" stroke="black" points="796.57,-228.8 795.96,-218.22 789.84,-226.87 796.57,-228.8"/>
</g>
<!-- RFC014&#45;&gt;RFC011 -->
<g id="edge26" class="edge">
<title>RFC014&#45;&gt;RFC011</title>
<path fill="none" stroke="black" d="M526.11,-328.42C529.11,-327.93 532.08,-327.46 535,-327 646.33,-309.48 674.66,-308.44 786,-291 793.48,-289.83 801.25,-288.58 809.03,-287.3"/>
<polygon fill="black" stroke="black" points="809.33,-290.63 818.63,-285.55 808.19,-283.73 809.33,-290.63"/>
</g>
<!-- RFC014&#45;&gt;VC_EXT -->
<g id="edge27" class="edge">
<title>RFC014&#45;&gt;VC_EXT</title>
<path fill="none" stroke="black" d="M526.08,-328.18C529.09,-327.77 532.06,-327.37 535,-327 728.78,-302.48 778.54,-309.39 973,-291 1280.94,-261.88 1359.68,-266.51 1665,-217 1743.14,-204.33 1760.72,-190.78 1839,-179 1986.31,-156.84 2026.06,-175.5 2173,-151 2191.94,-147.84 2212.14,-143.35 2230.93,-138.68"/>
<polygon fill="black" stroke="black" points="2231.67,-141.85 2240.51,-136 2229.95,-135.06 2231.67,-141.85"/>
</g>
<!-- RFC015 -->
<g id="node12" class="node">
<title>RFC015</title>
<g id="a_node12"><a xlink:href="rfc015-node-identity" xlink:title="RFC015\nNode Identity">
<polygon fill="none" stroke="black" points="300.75,-439 205.25,-439 205.25,-401 300.75,-401 300.75,-439"/>
<text text-anchor="middle" x="253" y="-421.7" font-family="Helvetica,sans-Serif" font-size="14.00">RFC015</text>
<text text-anchor="middle" x="253" y="-406.7" font-family="Helvetica,sans-Serif" font-size="14.00">Node Identity</text>
</a>
</g>
</g>
<!-- RFC015&#45;&gt;RFC005 -->
<g id="edge28" class="edge">
<title>RFC015&#45;&gt;RFC005</title>
<path fill="none" stroke="black" d="M253.96,-400.51C254.26,-381.29 252.69,-350.76 242,-327 237.44,-316.88 230.3,-307.3 222.91,-299.1"/>
<polygon fill="black" stroke="black" points="225.96,-297.18 216.51,-292.39 220.91,-302.03 225.96,-297.18"/>
</g>
<!-- RFC015&#45;&gt;RFC006 -->
<g id="edge29" class="edge">
<title>RFC015&#45;&gt;RFC006</title>
<path fill="none" stroke="black" d="M260.1,-400.61C268.91,-380.03 285.79,-346.97 310,-327 326.45,-313.43 346.67,-303.05 366.64,-295.19"/>
<polygon fill="black" stroke="black" points="367.58,-298.2 375.72,-291.42 365.13,-291.64 367.58,-298.2"/>
</g>
<!-- RFC017 -->
<g id="node13" class="node">
<title>RFC017</title>
<g id="a_node13"><a xlink:href="rfc017-distributed-network-grpc-v2" xlink:title="RFC017\nV2 Network Protocol">
<polygon fill="none" stroke="black" points="233.5,-365 94.5,-365 94.5,-327 233.5,-327 233.5,-365"/>
<text text-anchor="middle" x="164" y="-347.7" font-family="Helvetica,sans-Serif" font-size="14.00">RFC017</text>
<text text-anchor="middle" x="164" y="-332.7" font-family="Helvetica,sans-Serif" font-size="14.00">V2 Network Protocol</text>
</a>
</g>
</g>
<!-- RFC015&#45;&gt;RFC017 -->
<g id="edge30" class="edge">
<title>RFC015&#45;&gt;RFC017</title>
<path fill="none" stroke="black" d="M224.59,-400.83C213.08,-392.2 199.97,-381.74 188.85,-372.34"/>
<polygon fill="black" stroke="black" points="191.65,-369.28 181.78,-365.41 187.09,-374.59 191.65,-369.28"/>
</g>
<!-- RFC015&#45;&gt;DID_EXT -->
<g id="edge31" class="edge">
<title>RFC015&#45;&gt;DID_EXT</title>
<path fill="none" stroke="black" d="M301.05,-402.62C303.72,-402 306.38,-401.46 309,-401 540.1,-360.72 1130.27,-384.95 1364,-365 1605.37,-344.4 1674.65,-368.96 1904,-291 1998.99,-258.71 2004.17,-208.72 2100,-179 2244.39,-134.21 2290.05,-176.89 2439,-151 2456.86,-147.9 2475.87,-143.42 2493.54,-138.75"/>
<polygon fill="black" stroke="black" points="2494.03,-141.97 2502.77,-135.98 2492.2,-135.21 2494.03,-141.97"/>
</g>
<!-- RFC015&#45;&gt;VC_EXT -->
<g id="edge32" class="edge">
<title>RFC015&#45;&gt;VC_EXT</title>
<path fill="none" stroke="black" d="M301.06,-402.69C303.73,-402.05 306.39,-401.48 309,-401 599.63,-347.34 678.16,-385.37 973,-365 1365,-337.92 1480.14,-411.95 1854,-291 1945.81,-261.3 1950.2,-214.32 2040,-179 2096.21,-156.89 2114.14,-164.6 2173,-151 2189.71,-147.14 2207.56,-142.8 2224.56,-138.55"/>
<polygon fill="black" stroke="black" points="2225.18,-141.75 2234.03,-135.92 2223.48,-134.96 2225.18,-141.75"/>
</g>
<!-- RFC017&#45;&gt;RFC004 -->
<g id="edge33" class="edge">
<title>RFC017&#45;&gt;RFC004</title>
<path fill="none" stroke="black" d="M94.21,-327.86C75.73,-319.8 57.91,-308.05 47,-291 37.9,-276.77 35.87,-265.71 47,-253 66.29,-230.98 228.78,-214.94 342.25,-206.3"/>
<polygon fill="black" stroke="black" points="342.36,-209.73 352.07,-205.49 341.84,-202.75 342.36,-209.73"/>
</g>
<!-- RFC017&#45;&gt;RFC005 -->
<g id="edge34" class="edge">
<title>RFC017&#45;&gt;RFC005</title>
<path fill="none" stroke="black" d="M171.57,-326.83C174.78,-319.13 178.59,-309.97 182.16,-301.42"/>
<polygon fill="black" stroke="black" points="185.71,-302.99 186.33,-292.41 179.25,-300.3 185.71,-302.99"/>
</g>
<!-- RFC017&#45;&gt;RFC008 -->
<g id="edge35" class="edge">
<title>RFC017&#45;&gt;RFC008</title>
<path fill="none" stroke="black" d="M94.19,-331.67C71.78,-323.73 49.33,-311.1 36,-291 26.66,-276.93 26.86,-267.2 36,-253 84.07,-178.34 184.45,-144.34 255.39,-129.18"/>
<polygon fill="black" stroke="black" points="255.98,-132.43 265.08,-126.99 254.58,-125.57 255.98,-132.43"/>
</g>
<!-- RFC017&#45;&gt;RFC015 -->
<g id="edge36" class="edge">
<title>RFC017&#45;&gt;RFC015</title>
<path fill="none" stroke="black" d="M192.74,-365.41C204.28,-374.08 217.38,-384.55 228.47,-393.92"/>
<polygon fill="black" stroke="black" points="225.63,-396.96 235.49,-400.83 230.2,-391.66 225.63,-396.96"/>
</g>
<!-- RFC019 -->
<g id="node14" class="node">
<title>RFC019</title>
<g id="a_node14"><a xlink:href="rfc019-employee-identity-means" xlink:title="RFC019\nEmployee Identity Means">
<polygon fill="none" stroke="black" points="761.5,-291 592.5,-291 592.5,-253 761.5,-253 761.5,-291"/>
<text text-anchor="middle" x="677" y="-273.7" font-family="Helvetica,sans-Serif" font-size="14.00">RFC019</text>
<text text-anchor="middle" x="677" y="-258.7" font-family="Helvetica,sans-Serif" font-size="14.00">Employee Identity Means</text>
</a>
</g>
</g>
<!-- RFC019&#45;&gt;RFC002 -->
<g id="edge38" class="edge">
<title>RFC019&#45;&gt;RFC002</title>
<path fill="none" stroke="black" d="M677,-252.79C677,-226.48 677,-177.57 677,-146.32"/>
<polygon fill="black" stroke="black" points="680.5,-146.69 677,-136.69 673.5,-146.69 680.5,-146.69"/>
</g>
<!-- RFC019&#45;&gt;RFC003 -->
<g id="edge39" class="edge">
<title>RFC019&#45;&gt;RFC003</title>
<path fill="none" stroke="black" d="M708.61,-252.65C724.35,-243.51 743.57,-232.35 760.39,-222.58"/>
<polygon fill="black" stroke="black" points="761.56,-225.37 768.45,-217.32 758.04,-219.32 761.56,-225.37"/>
</g>
<!-- RFC019&#45;&gt;VC_EXT -->
<g id="edge37" class="edge">
<title>RFC019&#45;&gt;VC_EXT</title>
<path fill="none" stroke="black" d="M761.65,-259.19C778.01,-257.03 795.03,-254.87 811,-253 1139.73,-214.52 1221.89,-202.91 1552,-179 1827.56,-159.04 1899.66,-191.17 2173,-151 2192.68,-148.11 2213.68,-143.54 2233.04,-138.69"/>
<polygon fill="black" stroke="black" points="2233.79,-141.85 2242.6,-135.98 2232.05,-135.07 2233.79,-141.85"/>
</g>
<!-- RFC020 -->
<g id="node15" class="node">
<title>RFC020</title>
<g id="a_node15"><a xlink:href="rfc020-authorization-credential-extension" xlink:title="RFC020\nAuthorization Credential Extension">
<polygon fill="none" stroke="black" points="541.5,-439 318.5,-439 318.5,-401 541.5,-401 541.5,-439"/>
<text text-anchor="middle" x="430" y="-421.7" font-family="Helvetica,sans-Serif" font-size="14.00">RFC020</text>
<text text-anchor="middle" x="430" y="-406.7" font-family="Helvetica,sans-Serif" font-size="14.00">Authorization Credential Extension</text>
</a>
</g>
</g>
<!-- RFC020&#45;&gt;RFC014 -->
<g id="edge40" class="edge">
<title>RFC020&#45;&gt;RFC014</title>
<path fill="none" stroke="black" d="M430,-400.83C430,-393.38 430,-384.58 430,-376.26"/>
<polygon fill="black" stroke="black" points="433.5,-376.41 430,-366.41 426.5,-376.41 433.5,-376.41"/>
</g>
<!-- RFC020&#45;&gt;RFC019 -->
<g id="edge41" class="edge">
<title>RFC020&#45;&gt;RFC019</title>
<path fill="none" stroke="black" d="M367.75,-400.6C350.97,-392.47 334.77,-381.01 325,-365 316.2,-350.58 313.99,-339.8 325,-327 359.88,-286.45 510.14,-299.17 563,-291 569.03,-290.07 575.23,-289.1 581.48,-288.13"/>
<polygon fill="black" stroke="black" points="581.7,-291.48 591.04,-286.48 580.61,-284.57 581.7,-291.48"/>
</g>
<!-- RFC021 -->
<g id="node16" class="node">
<title>RFC021</title>
<g id="a_node16"><a xlink:href="rfc021-nuts-vp-token-grant-type" xlink:title="RFC021\nVP Token Grant Type">
<polygon fill="none" stroke="black" points="963.88,-439 818.12,-439 818.12,-401 963.88,-401 963.88,-439"/>
<text text-anchor="middle" x="891" y="-421.7" font-family="Helvetica,sans-Serif" font-size="14.00">RFC021</text>
<text text-anchor="middle" x="891" y="-406.7" font-family="Helvetica,sans-Serif" font-size="14.00">VP Token Grant Type</text>
</a>
</g>
</g>
<!-- RFC021&#45;&gt;RFC7662_EXT -->
<g id="edge51" class="edge">
<title>RFC021&#45;&gt;RFC7662_EXT</title>
<path fill="none" stroke="black" d="M964.06,-402.08C1137.27,-361.66 1586.09,-255.07 1957,-151 1971.15,-147.03 1986.25,-142.52 2000.54,-138.12"/>
<polygon fill="black" stroke="black" points="2001.27,-141.25 2009.78,-134.95 1999.2,-134.57 2001.27,-141.25"/>
</g>
<!-- RFC021&#45;&gt;DID_EXT -->
<g id="edge42" class="edge">
<title>RFC021&#45;&gt;DID_EXT</title>
<path fill="none" stroke="black" d="M964.24,-417.87C1109.97,-414.82 1446.32,-403.82 1726,-365 1881.33,-343.44 1945.37,-384.86 2071,-291 2116.41,-257.07 2084.63,-210.13 2132,-179 2189.25,-141.37 2371.56,-163.02 2439,-151 2456.75,-147.84 2475.66,-143.36 2493.25,-138.71"/>
<polygon fill="black" stroke="black" points="2493.69,-141.95 2502.43,-135.96 2491.87,-135.19 2493.69,-141.95"/>
</g>
<!-- RFC021&#45;&gt;VC_EXT -->
<g id="edge43" class="edge">
<title>RFC021&#45;&gt;VC_EXT</title>
<path fill="none" stroke="black" d="M964.08,-415.56C1174.29,-404.84 1776.95,-368.02 1957,-291 2028.99,-260.2 2023.73,-215.51 2093,-179 2115.33,-167.23 2170.66,-151.39 2219.34,-138.73"/>
<polygon fill="black" stroke="black" points="2220.12,-141.88 2228.93,-135.99 2218.37,-135.1 2220.12,-141.88"/>
</g>
<!-- RFC6749_EXT -->
<g id="node23" class="node">
<title>RFC6749_EXT</title>
<g id="a_node23"><a xlink:href="https://www.rfc-editor.org/info/rfc6749" xlink:title="The OAuth 2.0 Authorization Framework">
<polygon fill="#e0eeee" stroke="black" points="2957.5,-134.5 2698.5,-134.5 2698.5,-98.5 2957.5,-98.5 2957.5,-134.5"/>
<text text-anchor="middle" x="2828" y="-110.7" font-family="Helvetica,sans-Serif" font-size="14.00">The OAuth 2.0 Authorization Framework</text>
</a>
</g>
</g>
<!-- RFC021&#45;&gt;RFC6749_EXT -->
<g id="edge44" class="edge">
<title>RFC021&#45;&gt;RFC6749_EXT</title>
<path fill="none" stroke="black" d="M964.34,-417.65C1162.77,-413.58 1707.08,-399.5 1883,-365 1981.76,-345.63 2017.69,-352.94 2097,-291 2143.83,-254.43 2118.54,-208.71 2170,-179 2220.02,-150.13 2631.86,-159.36 2689,-151 2710.85,-147.8 2734.3,-142.78 2755.6,-137.59"/>
<polygon fill="black" stroke="black" points="2756.34,-140.77 2765.2,-134.96 2754.65,-133.98 2756.34,-140.77"/>
</g>
<!-- RFC7521_EXT -->
<g id="node24" class="node">
<title>RFC7521_EXT</title>
<g id="a_node24"><a xlink:href="https://www.rfc-editor.org/info/rfc7521" xlink:title="Assertion Framework for OAuth 2.0 Client Authentication and Authorization Grants">
<polygon fill="#e0eeee" stroke="black" points="3486.12,-134.5 2975.88,-134.5 2975.88,-98.5 3486.12,-98.5 3486.12,-134.5"/>
<text text-anchor="middle" x="3231" y="-110.7" font-family="Helvetica,sans-Serif" font-size="14.00">Assertion Framework for OAuth 2.0 Client Authentication and Authorization Grants</text>
</a>
</g>
</g>
<!-- RFC021&#45;&gt;RFC7521_EXT -->
<g id="edge45" class="edge">
<title>RFC021&#45;&gt;RFC7521_EXT</title>
<path fill="none" stroke="black" d="M964.12,-419.24C1175.32,-419.31 1783.34,-415.04 1975,-365 2046.54,-346.32 2067.17,-338.3 2124,-291 2171.82,-251.2 2152.87,-207.85 2208,-179 2282.77,-139.87 2882.89,-157.87 2967,-151 3010.62,-147.44 3058.1,-141.92 3100.62,-136.39"/>
<polygon fill="black" stroke="black" points="3100.86,-139.76 3110.31,-134.98 3099.94,-132.82 3100.86,-139.76"/>
</g>
<!-- JWT_EXT -->
<g id="node25" class="node">
<title>JWT_EXT</title>
<g id="a_node25"><a xlink:href="https://www.rfc-editor.org/info/rfc7519" xlink:title="JSON Web Token (JWT)">
<polygon fill="#e0eeee" stroke="black" points="3669.62,-134.5 3504.38,-134.5 3504.38,-98.5 3669.62,-98.5 3669.62,-134.5"/>
<text text-anchor="middle" x="3587" y="-110.7" font-family="Helvetica,sans-Serif" font-size="14.00">JSON Web Token (JWT)</text>
</a>
</g>
</g>
<!-- RFC021&#45;&gt;JWT_EXT -->
<g id="edge46" class="edge">
<title>RFC021&#45;&gt;JWT_EXT</title>
<path fill="none" stroke="black" d="M964.11,-417.8C1200.89,-413.59 1937.28,-397.97 2039,-365 2096.11,-346.49 2106.51,-330.17 2152,-291 2202.57,-247.46 2191.41,-206.95 2252,-179 2377.44,-121.13 3359.23,-176.53 3495,-151 3509.24,-148.32 3524.21,-143.71 3537.83,-138.75"/>
<polygon fill="black" stroke="black" points="3538.84,-141.73 3546.95,-134.92 3536.36,-135.19 3538.84,-141.73"/>
</g>
<!-- PE_EXT -->
<g id="node26" class="node">
<title>PE_EXT</title>
<g id="a_node26"><a xlink:href="https://identity.foundation/presentation-exchange/spec/v2.0.0/" xlink:title="Presentation Exchange 2.0.0">
<polygon fill="#e0eeee" stroke="black" points="3876.62,-134.5 3687.38,-134.5 3687.38,-98.5 3876.62,-98.5 3876.62,-134.5"/>
<text text-anchor="middle" x="3782" y="-110.7" font-family="Helvetica,sans-Serif" font-size="14.00">Presentation Exchange 2.0.0</text>
</a>
</g>
</g>
<!-- RFC021&#45;&gt;PE_EXT -->
<g id="edge47" class="edge">
<title>RFC021&#45;&gt;PE_EXT</title>
<path fill="none" stroke="black" d="M964.37,-418.32C1208.38,-415.68 1983.18,-404.29 2088,-365 2137.46,-346.46 2141.59,-326.18 2181,-291 2207.26,-267.56 2260.62,-192.8 2293,-179 2363.85,-148.81 3603.06,-163.83 3679,-151 3695.27,-148.25 3712.5,-143.45 3728.11,-138.33"/>
<polygon fill="black" stroke="black" points="3728.76,-141.46 3737.1,-134.93 3726.51,-134.83 3728.76,-141.46"/>
</g>
<!-- JSONWebSignature2020_EXT -->
<g id="node27" class="node">
<title>JSONWebSignature2020_EXT</title>
<g id="a_node27"><a xlink:href="https://w3c-ccg.github.io/lds-jws2020/" xlink:title="JSON Web Signature 2020">
<polygon fill="#e0eeee" stroke="black" points="4073.75,-134.5 3894.25,-134.5 3894.25,-98.5 4073.75,-98.5 4073.75,-134.5"/>
<text text-anchor="middle" x="3984" y="-110.7" font-family="Helvetica,sans-Serif" font-size="14.00">JSON Web Signature 2020</text>
</a>
</g>
</g>
<!-- RFC021&#45;&gt;JSONWebSignature2020_EXT -->
<g id="edge48" class="edge">
<title>RFC021&#45;&gt;JSONWebSignature2020_EXT</title>
<path fill="none" stroke="black" d="M964.09,-417.8C1155.7,-414.21 1688.24,-401.49 2130,-365 2154.49,-362.98 3862.05,-156.49 3886,-151 3900.38,-147.7 3915.62,-143.08 3929.68,-138.31"/>
<polygon fill="black" stroke="black" points="3930.39,-141.42 3938.68,-134.83 3928.09,-134.81 3930.39,-141.42"/>
</g>
<!-- OpenID4VP_EXT -->
<g id="node28" class="node">
<title>OpenID4VP_EXT</title>
<g id="a_node28"><a xlink:href="https://openid.net/specs/openid-4-verifiable-presentations-1_0.html" xlink:title="OpenID for Verifiable Presentations Draft 18">
<polygon fill="#e0eeee" stroke="black" points="4372.38,-134.5 4091.62,-134.5 4091.62,-98.5 4372.38,-98.5 4372.38,-134.5"/>
<text text-anchor="middle" x="4232" y="-110.7" font-family="Helvetica,sans-Serif" font-size="14.00">OpenID for Verifiable Presentations Draft 18</text>
</a>
</g>
</g>
<!-- RFC021&#45;&gt;OpenID4VP_EXT -->
<g id="edge49" class="edge">
<title>RFC021&#45;&gt;OpenID4VP_EXT</title>
<path fill="none" stroke="black" d="M964.14,-418.29C1173.06,-415.82 1790.3,-405.38 2301,-365 3096.21,-302.13 3296.85,-286.22 4083,-151 4105.01,-147.21 4128.66,-142.29 4150.49,-137.4"/>
<polygon fill="black" stroke="black" points="4151.08,-140.63 4160.05,-135 4149.52,-133.8 4151.08,-140.63"/>
</g>
<!-- RFC8414_EXT -->
<g id="node29" class="node">
<title>RFC8414_EXT</title>
<g id="a_node29"><a xlink:href="https://www.rfc-editor.org/info/rfc8414" xlink:title="OAuth 2.0 Authorization Server Metadata">
<polygon fill="#e0eeee" stroke="black" points="4655.12,-134.5 4390.88,-134.5 4390.88,-98.5 4655.12,-98.5 4655.12,-134.5"/>
<text text-anchor="middle" x="4523" y="-110.7" font-family="Helvetica,sans-Serif" font-size="14.00">OAuth 2.0 Authorization Server Metadata</text>
</a>
</g>
</g>
<!-- RFC021&#45;&gt;RFC8414_EXT -->
<g id="edge50" class="edge">
<title>RFC021&#45;&gt;RFC8414_EXT</title>
<path fill="none" stroke="black" d="M964.31,-418.28C1196.01,-415.66 1933.15,-404.56 2542,-365 2880.66,-343 2964.79,-329.28 3302,-291 3782.49,-236.45 3905.27,-237.74 4381,-151 4401.8,-147.21 4424.12,-142.33 4444.77,-137.47"/>
<polygon fill="black" stroke="black" points="4445.49,-140.66 4454.4,-134.94 4443.86,-133.85 4445.49,-140.66"/>
</g>
</g>
</svg>
