<?xml version="1.0" encoding="UTF-8" standalone="no"?>
<!DOCTYPE svg PUBLIC "-//W3C//DTD SVG 1.1//EN"
 "http://www.w3.org/Graphics/SVG/1.1/DTD/svg11.dtd">
<!-- Generated by graphviz version 2.44.1 (20200629.0846)
 -->
<!-- Title: D Pages: 1 -->
<svg width="1707pt" height="256pt"
 viewBox="0.00 0.00 1707.00 256.00" xmlns="http://www.w3.org/2000/svg" xmlns:xlink="http://www.w3.org/1999/xlink">
<g id="graph0" class="graph" transform="scale(1 1) rotate(0) translate(4 252)">
<title>D</title>
<polygon fill="white" stroke="transparent" points="-4,4 -4,-252 1703,-252 1703,4 -4,4"/>
<g id="clust1" class="cluster">
<title>cluster_internal</title>
<polygon fill="none" stroke="black" points="8,-15.5 8,-240 864,-240 864,-15.5 8,-15.5"/>
</g>
<g id="clust2" class="cluster">
<title>cluster_external</title>
<polygon fill="none" stroke="black" points="872,-8 872,-77 1691,-77 1691,-8 872,-8"/>
</g>
<!-- RFC001 -->
<g id="node1" class="node">
<title>RFC001</title>
<g id="a_node1"><a xlink:href="rfc001-nuts-start-architecture" xlink:title="RFC001\nNuts Start Architecture">
<polygon fill="none" stroke="black" points="792,-61.5 640,-61.5 640,-23.5 792,-23.5 792,-61.5"/>
<text text-anchor="middle" x="716" y="-46.3" font-family="Helvetica,sans-Serif" font-size="14.00">RFC001</text>
<text text-anchor="middle" x="716" y="-31.3" font-family="Helvetica,sans-Serif" font-size="14.00">Nuts Start Architecture</text>
</a>
</g>
</g>
<!-- RFC002 -->
<g id="node2" class="node">
<title>RFC002</title>
<g id="a_node2"><a xlink:href="rfc002-authentication-token" xlink:title="RFC002\nAuthentication token">
<polygon fill="none" stroke="black" points="785.5,-143 646.5,-143 646.5,-105 785.5,-105 785.5,-143"/>
<text text-anchor="middle" x="716" y="-127.8" font-family="Helvetica,sans-Serif" font-size="14.00">RFC002</text>
<text text-anchor="middle" x="716" y="-112.8" font-family="Helvetica,sans-Serif" font-size="14.00">Authentication token</text>
</a>
</g>
</g>
<!-- RFC002&#45;&gt;RFC001 -->
<g id="edge1" class="edge">
<title>RFC002&#45;&gt;RFC001</title>
<path fill="none" stroke="black" d="M716,-104.96C716,-95.17 716,-82.85 716,-71.81"/>
<polygon fill="black" stroke="black" points="719.5,-71.74 716,-61.74 712.5,-71.74 719.5,-71.74"/>
</g>
<!-- RFC003 -->
<g id="node3" class="node">
<title>RFC003</title>
<g id="a_node3"><a xlink:href="rfc003-oauth2-authorization" xlink:title="RFC003\nOAuth2 Authorization">
<polygon fill="none" stroke="black" points="856,-224.5 710,-224.5 710,-186.5 856,-186.5 856,-224.5"/>
<text text-anchor="middle" x="783" y="-209.3" font-family="Helvetica,sans-Serif" font-size="14.00">RFC003</text>
<text text-anchor="middle" x="783" y="-194.3" font-family="Helvetica,sans-Serif" font-size="14.00">OAuth2 Authorization</text>
</a>
</g>
</g>
<!-- RFC003&#45;&gt;RFC001 -->
<g id="edge2" class="edge">
<title>RFC003&#45;&gt;RFC001</title>
<path fill="none" stroke="black" d="M790.97,-186.25C798.77,-165.49 807.76,-131.11 795,-105 787.48,-89.61 774.04,-76.96 760.36,-67.21"/>
<polygon fill="black" stroke="black" points="762.11,-64.18 751.85,-61.52 758.22,-69.99 762.11,-64.18"/>
</g>
<!-- RFC003&#45;&gt;RFC002 -->
<g id="edge3" class="edge">
<title>RFC003&#45;&gt;RFC002</title>
<path fill="none" stroke="black" d="M767.8,-186.46C758.95,-175.96 747.65,-162.55 737.86,-150.94"/>
<polygon fill="black" stroke="black" points="740.5,-148.63 731.38,-143.24 735.14,-153.15 740.5,-148.63"/>
</g>
<!-- RFC7662_EXT -->
<g id="node9" class="node">
<title>RFC7662_EXT</title>
<g id="a_node9"><a xlink:href="https://tools.ietf.org/html/rfc7662" xlink:title="RFC7662\nOAuth 2.0 Token Introspection">
<polygon fill="#e0eeee" stroke="black" points="1682.5,-61.5 1483.5,-61.5 1483.5,-23.5 1682.5,-23.5 1682.5,-61.5"/>
<text text-anchor="middle" x="1583" y="-46.3" font-family="Helvetica,sans-Serif" font-size="14.00">RFC7662</text>
<text text-anchor="middle" x="1583" y="-31.3" font-family="Helvetica,sans-Serif" font-size="14.00">OAuth 2.0 Token Introspection</text>
</a>
</g>
</g>
<!-- RFC003&#45;&gt;RFC7662_EXT -->
<g id="edge4" class="edge">
<title>RFC003&#45;&gt;RFC7662_EXT</title>
<path fill="none" stroke="black" d="M856.08,-193.95C982.97,-175 1251.85,-131.96 1475,-77 1489.48,-73.43 1504.88,-69.03 1519.37,-64.61"/>
<polygon fill="black" stroke="black" points="1520.72,-67.85 1529.24,-61.55 1518.65,-61.17 1520.72,-67.85"/>
</g>
<!-- RFC7523_EXT -->
<g id="node10" class="node">
<title>RFC7523_EXT</title>
<g id="a_node10"><a xlink:href="https://tools.ietf.org/html/rfc7523" xlink:title="RFC7523\nJSON Web Token (JWT) Profile\nfor OAuth 2.0 Client Authentication and Authorization Grants">
<polygon fill="#e0eeee" stroke="black" points="1465.5,-69 1086.5,-69 1086.5,-16 1465.5,-16 1465.5,-69"/>
<text text-anchor="middle" x="1276" y="-53.8" font-family="Helvetica,sans-Serif" font-size="14.00">RFC7523</text>
<text text-anchor="middle" x="1276" y="-38.8" font-family="Helvetica,sans-Serif" font-size="14.00">JSON Web Token (JWT) Profile</text>
<text text-anchor="middle" x="1276" y="-23.8" font-family="Helvetica,sans-Serif" font-size="14.00">for OAuth 2.0 Client Authentication and Authorization Grants</text>
</a>
</g>
</g>
<!-- RFC003&#45;&gt;RFC7523_EXT -->
<g id="edge5" class="edge">
<title>RFC003&#45;&gt;RFC7523_EXT</title>
<path fill="none" stroke="black" d="M838.12,-186.5C923.07,-158.76 1086.76,-105.3 1188.17,-72.18"/>
<polygon fill="black" stroke="black" points="1189.36,-75.48 1197.78,-69.04 1187.19,-68.82 1189.36,-75.48"/>
</g>
<!-- RFC7515_EXT -->
<g id="node11" class="node">
<title>RFC7515_EXT</title>
<g id="a_node11"><a xlink:href="https://tools.ietf.org/html/rfc7515" xlink:title="RFC7515\nJSON Web Signature (JWS)">
<polygon fill="#e0eeee" stroke="black" points="1068,-61.5 880,-61.5 880,-23.5 1068,-23.5 1068,-61.5"/>
<text text-anchor="middle" x="974" y="-46.3" font-family="Helvetica,sans-Serif" font-size="14.00">RFC7515</text>
<text text-anchor="middle" x="974" y="-31.3" font-family="Helvetica,sans-Serif" font-size="14.00">JSON Web Signature (JWS)</text>
</a>
</g>
</g>
<!-- RFC003&#45;&gt;RFC7515_EXT -->
<g id="edge6" class="edge">
<title>RFC003&#45;&gt;RFC7515_EXT</title>
<path fill="none" stroke="black" d="M804.54,-186.34C838.88,-157.4 906.09,-100.75 944.75,-68.16"/>
<polygon fill="black" stroke="black" points="947.15,-70.71 952.54,-61.59 942.64,-65.36 947.15,-70.71"/>
</g>
<!-- RFC004 -->
<g id="node4" class="node">
<title>RFC004</title>
<g id="a_node4"><a xlink:href="rfc004-distributed-document-format" xlink:title="RFC004\nDistributed Document Format">
<polygon fill="none" stroke="black" points="628,-143 434,-143 434,-105 628,-105 628,-143"/>
<text text-anchor="middle" x="531" y="-127.8" font-family="Helvetica,sans-Serif" font-size="14.00">RFC004</text>
<text text-anchor="middle" x="531" y="-112.8" font-family="Helvetica,sans-Serif" font-size="14.00">Distributed Document Format</text>
</a>
</g>
</g>
<!-- RFC004&#45;&gt;RFC001 -->
<g id="edge7" class="edge">
<title>RFC004&#45;&gt;RFC001</title>
<path fill="none" stroke="black" d="M572.98,-104.96C600.09,-93.31 635.54,-78.08 664.37,-65.69"/>
<polygon fill="black" stroke="black" points="666.06,-68.77 673.87,-61.61 663.3,-62.34 666.06,-68.77"/>
</g>
<!-- RFC008 -->
<g id="node7" class="node">
<title>RFC008</title>
<g id="a_node7"><a xlink:href="rfc008-certificate-structure" xlink:title="RFC008\nCertificate Structure">
<polygon fill="none" stroke="black" points="541,-61.5 405,-61.5 405,-23.5 541,-23.5 541,-61.5"/>
<text text-anchor="middle" x="473" y="-46.3" font-family="Helvetica,sans-Serif" font-size="14.00">RFC008</text>
<text text-anchor="middle" x="473" y="-31.3" font-family="Helvetica,sans-Serif" font-size="14.00">Certificate Structure</text>
</a>
</g>
</g>
<!-- RFC004&#45;&gt;RFC008 -->
<g id="edge9" class="edge">
<title>RFC004&#45;&gt;RFC008</title>
<path fill="none" stroke="black" d="M517.84,-104.96C510.33,-94.67 500.77,-81.57 492.41,-70.11"/>
<polygon fill="black" stroke="black" points="495.03,-67.76 486.31,-61.74 489.38,-71.89 495.03,-67.76"/>
</g>
<!-- RFC004&#45;&gt;RFC7515_EXT -->
<g id="edge8" class="edge">
<title>RFC004&#45;&gt;RFC7515_EXT</title>
<path fill="none" stroke="black" d="M628.07,-106.47C631.42,-105.96 634.74,-105.47 638,-105 739.91,-90.23 767.36,-98.83 868,-77 883.09,-73.73 899.09,-69.23 913.97,-64.59"/>
<polygon fill="black" stroke="black" points="915.1,-67.91 923.56,-61.54 912.97,-61.24 915.1,-67.91"/>
</g>
<!-- RFC005 -->
<g id="node5" class="node">
<title>RFC005</title>
<g id="a_node5"><a xlink:href="rfc005-distributed-document-network-grpc" xlink:title="RFC005\nDistributed Document Network using gRPC\n(Planned)">
<polygon fill="none" stroke="black" points="692,-232 416,-232 416,-179 692,-179 692,-232"/>
<text text-anchor="middle" x="554" y="-216.8" font-family="Helvetica,sans-Serif" font-size="14.00">RFC005</text>
<text text-anchor="middle" x="554" y="-201.8" font-family="Helvetica,sans-Serif" font-size="14.00">Distributed Document Network using gRPC</text>
<text text-anchor="middle" x="554" y="-186.8" font-family="Helvetica,sans-Serif" font-size="14.00">(Planned)</text>
</a>
</g>
</g>
<!-- RFC005&#45;&gt;RFC004 -->
<g id="edge10" class="edge">
<title>RFC005&#45;&gt;RFC004</title>
<path fill="none" stroke="black" d="M546.6,-178.91C544.21,-170.65 541.54,-161.45 539.11,-153.02"/>
<polygon fill="black" stroke="black" points="542.42,-151.87 536.28,-143.24 535.69,-153.82 542.42,-151.87"/>
</g>
<!-- RFC006 -->
<g id="node6" class="node">
<title>RFC006</title>
<g id="a_node6"><a xlink:href="rfc006-distributed-registry" xlink:title="RFC006\nDistributed Registry using DIDs">
<polygon fill="none" stroke="black" points="398,-224.5 194,-224.5 194,-186.5 398,-186.5 398,-224.5"/>
<text text-anchor="middle" x="296" y="-209.3" font-family="Helvetica,sans-Serif" font-size="14.00">RFC006</text>
<text text-anchor="middle" x="296" y="-194.3" font-family="Helvetica,sans-Serif" font-size="14.00">Distributed Registry using DIDs</text>
</a>
</g>
</g>
<!-- RFC006&#45;&gt;RFC004 -->
<g id="edge11" class="edge">
<title>RFC006&#45;&gt;RFC004</title>
<path fill="none" stroke="black" d="M349.33,-186.46C384.51,-174.56 430.76,-158.91 467.79,-146.38"/>
<polygon fill="black" stroke="black" points="469.13,-149.63 477.48,-143.11 466.89,-143 469.13,-149.63"/>
</g>
<!-- RFC006&#45;&gt;RFC008 -->
<g id="edge12" class="edge">
<title>RFC006&#45;&gt;RFC008</title>
<path fill="none" stroke="black" d="M315.96,-186.34C347.65,-157.52 409.54,-101.22 445.44,-68.57"/>
<polygon fill="black" stroke="black" points="448.07,-70.91 453.11,-61.59 443.36,-65.73 448.07,-70.91"/>
</g>
<!-- RFC009 -->
<g id="node8" class="node">
<title>RFC009</title>
<g id="a_node8"><a xlink:href="rfc009-verifiable-presentations" xlink:title="RFC009\nVerifiable Presentations">
<polygon fill="none" stroke="black" points="175.5,-224.5 16.5,-224.5 16.5,-186.5 175.5,-186.5 175.5,-224.5"/>
<text text-anchor="middle" x="96" y="-209.3" font-family="Helvetica,sans-Serif" font-size="14.00">RFC009</text>
<text text-anchor="middle" x="96" y="-194.3" font-family="Helvetica,sans-Serif" font-size="14.00">Verifiable Presentations</text>
</a>
</g>
</g>
</g>
</svg>
