<?xml version="1.0" encoding="UTF-8" standalone="no"?>
<!DOCTYPE svg PUBLIC "-//W3C//DTD SVG 1.1//EN"
 "http://www.w3.org/Graphics/SVG/1.1/DTD/svg11.dtd">
<!-- Generated by graphviz version 2.44.1 (20200629.0846)
 -->
<!-- Title: D Pages: 1 -->
<svg width="1459pt" height="256pt"
 viewBox="0.00 0.00 1459.00 256.00" xmlns="http://www.w3.org/2000/svg" xmlns:xlink="http://www.w3.org/1999/xlink">
<g id="graph0" class="graph" transform="scale(1 1) rotate(0) translate(4 252)">
<title>D</title>
<polygon fill="white" stroke="transparent" points="-4,4 -4,-252 1455,-252 1455,4 -4,4"/>
<g id="clust1" class="cluster">
<title>cluster_internal</title>
<polygon fill="none" stroke="black" points="8,-8 8,-240 616,-240 616,-8 8,-8"/>
</g>
<g id="clust2" class="cluster">
<title>cluster_external</title>
<polygon fill="none" stroke="black" points="624,-82 624,-151 1443,-151 1443,-82 624,-82"/>
</g>
<!-- RFC001 -->
<g id="node1" class="node">
<title>RFC001</title>
<g id="a_node1"><a xlink:href="rfc001-nuts-start-architecture" xlink:title="RFC001\nNuts Start Architecture">
<polygon fill="none" stroke="black" points="522,-54 370,-54 370,-16 522,-16 522,-54"/>
<text text-anchor="middle" x="446" y="-38.8" font-family="Helvetica,sans-Serif" font-size="14.00">RFC001</text>
<text text-anchor="middle" x="446" y="-23.8" font-family="Helvetica,sans-Serif" font-size="14.00">Nuts Start Architecture</text>
</a>
</g>
</g>
<!-- RFC002 -->
<g id="node2" class="node">
<title>RFC002</title>
<g id="a_node2"><a xlink:href="rfc002-authentication-token" xlink:title="RFC002\nAuthentication token">
<polygon fill="none" stroke="black" points="604.5,-135.5 465.5,-135.5 465.5,-97.5 604.5,-97.5 604.5,-135.5"/>
<text text-anchor="middle" x="535" y="-120.3" font-family="Helvetica,sans-Serif" font-size="14.00">RFC002</text>
<text text-anchor="middle" x="535" y="-105.3" font-family="Helvetica,sans-Serif" font-size="14.00">Authentication token</text>
</a>
</g>
</g>
<!-- RFC002&#45;&gt;RFC001 -->
<g id="edge1" class="edge">
<title>RFC002&#45;&gt;RFC001</title>
<path fill="none" stroke="black" d="M514.8,-97.46C502.71,-86.66 487.17,-72.78 473.92,-60.94"/>
<polygon fill="black" stroke="black" points="476.21,-58.3 466.42,-54.24 471.55,-63.52 476.21,-58.3"/>
</g>
<!-- RFC003 -->
<g id="node3" class="node">
<title>RFC003</title>
<g id="a_node3"><a xlink:href="rfc003-oauth2-authorization" xlink:title="RFC003\nOAuth2 Authorization">
<polygon fill="none" stroke="black" points="608,-224.5 462,-224.5 462,-186.5 608,-186.5 608,-224.5"/>
<text text-anchor="middle" x="535" y="-209.3" font-family="Helvetica,sans-Serif" font-size="14.00">RFC003</text>
<text text-anchor="middle" x="535" y="-194.3" font-family="Helvetica,sans-Serif" font-size="14.00">OAuth2 Authorization</text>
</a>
</g>
</g>
<!-- RFC003&#45;&gt;RFC001 -->
<g id="edge2" class="edge">
<title>RFC003&#45;&gt;RFC001</title>
<path fill="none" stroke="black" d="M495.15,-186.37C480.73,-177.75 465.84,-166 457,-151 441.48,-124.66 440.54,-88.91 442.32,-64.3"/>
<polygon fill="black" stroke="black" points="445.82,-64.45 443.26,-54.17 438.85,-63.81 445.82,-64.45"/>
</g>
<!-- RFC003&#45;&gt;RFC002 -->
<g id="edge3" class="edge">
<title>RFC003&#45;&gt;RFC002</title>
<path fill="none" stroke="black" d="M535,-186.47C535,-174.69 535,-159.06 535,-145.66"/>
<polygon fill="black" stroke="black" points="538.5,-145.5 535,-135.5 531.5,-145.5 538.5,-145.5"/>
</g>
<!-- RFC7662_EXT -->
<g id="node8" class="node">
<title>RFC7662_EXT</title>
<g id="a_node8"><a xlink:href="https://tools.ietf.org/html/rfc7662" xlink:title="RFC7662\nOAuth 2.0 Token Introspection">
<polygon fill="#e0eeee" stroke="black" points="1434.5,-135.5 1235.5,-135.5 1235.5,-97.5 1434.5,-97.5 1434.5,-135.5"/>
<text text-anchor="middle" x="1335" y="-120.3" font-family="Helvetica,sans-Serif" font-size="14.00">RFC7662</text>
<text text-anchor="middle" x="1335" y="-105.3" font-family="Helvetica,sans-Serif" font-size="14.00">OAuth 2.0 Token Introspection</text>
</a>
</g>
</g>
<!-- RFC003&#45;&gt;RFC7662_EXT -->
<g id="edge4" class="edge">
<title>RFC003&#45;&gt;RFC7662_EXT</title>
<path fill="none" stroke="black" d="M608.19,-204.19C735.24,-202.47 1004.35,-193.58 1227,-151 1242.82,-147.97 1259.59,-143.45 1275.07,-138.69"/>
<polygon fill="black" stroke="black" points="1276.56,-141.9 1285.04,-135.55 1274.45,-135.22 1276.56,-141.9"/>
</g>
<!-- RFC7523_EXT -->
<g id="node9" class="node">
<title>RFC7523_EXT</title>
<g id="a_node9"><a xlink:href="https://tools.ietf.org/html/rfc7523" xlink:title="RFC7523\nJSON Web Token (JWT) Profile\nfor OAuth 2.0 Client Authentication and Authorization Grants">
<polygon fill="#e0eeee" stroke="black" points="1217.5,-143 838.5,-143 838.5,-90 1217.5,-90 1217.5,-143"/>
<text text-anchor="middle" x="1028" y="-127.8" font-family="Helvetica,sans-Serif" font-size="14.00">RFC7523</text>
<text text-anchor="middle" x="1028" y="-112.8" font-family="Helvetica,sans-Serif" font-size="14.00">JSON Web Token (JWT) Profile</text>
<text text-anchor="middle" x="1028" y="-97.8" font-family="Helvetica,sans-Serif" font-size="14.00">for OAuth 2.0 Client Authentication and Authorization Grants</text>
</a>
</g>
</g>
<!-- RFC003&#45;&gt;RFC7523_EXT -->
<g id="edge5" class="edge">
<title>RFC003&#45;&gt;RFC7523_EXT</title>
<path fill="none" stroke="black" d="M608.01,-191.62C677.7,-179.32 784.92,-160.4 873.58,-144.75"/>
<polygon fill="black" stroke="black" points="874.23,-148.19 883.47,-143.01 873.01,-141.3 874.23,-148.19"/>
</g>
<!-- RFC7515_EXT -->
<g id="node10" class="node">
<title>RFC7515_EXT</title>
<g id="a_node10"><a xlink:href="https://tools.ietf.org/html/rfc7515" xlink:title="RFC7515\nJSON Web Signature (JWS)">
<polygon fill="#e0eeee" stroke="black" points="820,-135.5 632,-135.5 632,-97.5 820,-97.5 820,-135.5"/>
<text text-anchor="middle" x="726" y="-120.3" font-family="Helvetica,sans-Serif" font-size="14.00">RFC7515</text>
<text text-anchor="middle" x="726" y="-105.3" font-family="Helvetica,sans-Serif" font-size="14.00">JSON Web Signature (JWS)</text>
</a>
</g>
</g>
<!-- RFC003&#45;&gt;RFC7515_EXT -->
<g id="edge6" class="edge">
<title>RFC003&#45;&gt;RFC7515_EXT</title>
<path fill="none" stroke="black" d="M574.58,-186.47C604.41,-172.88 645.49,-154.17 677.33,-139.67"/>
<polygon fill="black" stroke="black" points="678.83,-142.83 686.48,-135.5 675.92,-136.46 678.83,-142.83"/>
</g>
<!-- RFC004 -->
<g id="node4" class="node">
<title>RFC004</title>
<g id="a_node4"><a xlink:href="rfc004-distributed-document-format" xlink:title="RFC004\nDistributed Document Format\n(Planned)">
<polygon fill="none" stroke="black" points="403,-143 209,-143 209,-90 403,-90 403,-143"/>
<text text-anchor="middle" x="306" y="-127.8" font-family="Helvetica,sans-Serif" font-size="14.00">RFC004</text>
<text text-anchor="middle" x="306" y="-112.8" font-family="Helvetica,sans-Serif" font-size="14.00">Distributed Document Format</text>
<text text-anchor="middle" x="306" y="-97.8" font-family="Helvetica,sans-Serif" font-size="14.00">(Planned)</text>
</a>
</g>
</g>
<!-- RFC004&#45;&gt;RFC001 -->
<g id="edge7" class="edge">
<title>RFC004&#45;&gt;RFC001</title>
<path fill="none" stroke="black" d="M351.07,-89.91C368.33,-80.1 387.93,-68.98 404.81,-59.39"/>
<polygon fill="black" stroke="black" points="406.91,-62.22 413.88,-54.24 403.46,-56.13 406.91,-62.22"/>
</g>
<!-- RFC005 -->
<g id="node5" class="node">
<title>RFC005</title>
<g id="a_node5"><a xlink:href="rfc005-distributed-document-network-grpc" xlink:title="RFC005\nDistributed Document Network using gRPC\n(Planned)">
<polygon fill="none" stroke="black" points="444,-232 168,-232 168,-179 444,-179 444,-232"/>
<text text-anchor="middle" x="306" y="-216.8" font-family="Helvetica,sans-Serif" font-size="14.00">RFC005</text>
<text text-anchor="middle" x="306" y="-201.8" font-family="Helvetica,sans-Serif" font-size="14.00">Distributed Document Network using gRPC</text>
<text text-anchor="middle" x="306" y="-186.8" font-family="Helvetica,sans-Serif" font-size="14.00">(Planned)</text>
</a>
</g>
</g>
<!-- RFC005&#45;&gt;RFC004 -->
<g id="edge8" class="edge">
<title>RFC005&#45;&gt;RFC004</title>
<path fill="none" stroke="black" d="M306,-178.87C306,-170.89 306,-161.93 306,-153.38"/>
<polygon fill="black" stroke="black" points="309.5,-153.25 306,-143.25 302.5,-153.25 309.5,-153.25"/>
</g>
<!-- RFC006 -->
<g id="node6" class="node">
<title>RFC006</title>
<g id="a_node6"><a xlink:href="rfc006-distributed-registry" xlink:title="RFC006\nDistributed Registry">
<polygon fill="none" stroke="black" points="150,-224.5 16,-224.5 16,-186.5 150,-186.5 150,-224.5"/>
<text text-anchor="middle" x="83" y="-209.3" font-family="Helvetica,sans-Serif" font-size="14.00">RFC006</text>
<text text-anchor="middle" x="83" y="-194.3" font-family="Helvetica,sans-Serif" font-size="14.00">Distributed Registry</text>
</a>
</g>
</g>
<!-- RFC006&#45;&gt;RFC004 -->
<g id="edge9" class="edge">
<title>RFC006&#45;&gt;RFC004</title>
<path fill="none" stroke="black" d="M129.21,-186.47C158.59,-175.01 197.32,-159.9 231.04,-146.75"/>
<polygon fill="black" stroke="black" points="232.36,-149.99 240.4,-143.09 229.81,-143.47 232.36,-149.99"/>
</g>
<!-- RFC008 -->
<g id="node7" class="node">
<title>RFC008</title>
<g id="a_node7"><a xlink:href="rfc008-certificate-structure" xlink:title="RFC008\nCertificate Structure">
<polygon fill="none" stroke="black" points="152,-135.5 16,-135.5 16,-97.5 152,-97.5 152,-135.5"/>
<text text-anchor="middle" x="84" y="-120.3" font-family="Helvetica,sans-Serif" font-size="14.00">RFC008</text>
<text text-anchor="middle" x="84" y="-105.3" font-family="Helvetica,sans-Serif" font-size="14.00">Certificate Structure</text>
</a>
</g>
</g>
<!-- RFC006&#45;&gt;RFC008 -->
<g id="edge10" class="edge">
<title>RFC006&#45;&gt;RFC008</title>
<path fill="none" stroke="black" d="M83.21,-186.47C83.34,-174.69 83.52,-159.06 83.68,-145.66"/>
<polygon fill="black" stroke="black" points="87.18,-145.54 83.79,-135.5 80.18,-145.46 87.18,-145.54"/>
</g>
</g>
</svg>
