<?xml version="1.0" encoding="UTF-8" standalone="no"?>
<!DOCTYPE svg PUBLIC "-//W3C//DTD SVG 1.1//EN"
 "http://www.w3.org/Graphics/SVG/1.1/DTD/svg11.dtd">
<!-- Generated by graphviz version 2.44.1 (20200629.0846)
 -->
<!-- Title: D Pages: 1 -->
<svg width="847pt" height="497pt"
 viewBox="0.00 0.00 846.73 497.22" xmlns="http://www.w3.org/2000/svg" xmlns:xlink="http://www.w3.org/1999/xlink">
<g id="graph0" class="graph" transform="scale(1 1) rotate(0) translate(4 493.22)">
<title>D</title>
<polygon fill="white" stroke="transparent" points="-4,4 -4,-493.22 842.73,-493.22 842.73,4 -4,4"/>
<!-- RFC001 -->
<g id="node1" class="node">
<title>RFC001</title>
<g id="a_node1"><a xlink:href="rfc001-nuts-start-architecture" xlink:title="RFC001\nNuts Start Architecture">
<ellipse fill="none" stroke="black" cx="465.68" cy="-320.73" rx="100.32" ry="26.74"/>
<text text-anchor="middle" x="465.68" y="-324.53" font-family="Times,serif" font-size="14.00">RFC001</text>
<text text-anchor="middle" x="465.68" y="-309.53" font-family="Times,serif" font-size="14.00">Nuts Start Architecture</text>
</a>
</g>
</g>
<!-- RFC002 -->
<g id="node2" class="node">
<title>RFC002</title>
<g id="a_node2"><a xlink:href="rfc002-authentication-token" xlink:title="RFC002\nAuthentication token">
<ellipse fill="none" stroke="black" cx="607.31" cy="-462.35" rx="92.76" ry="26.74"/>
<text text-anchor="middle" x="607.31" y="-466.15" font-family="Times,serif" font-size="14.00">RFC002</text>
<text text-anchor="middle" x="607.31" y="-451.15" font-family="Times,serif" font-size="14.00">Authentication token</text>
</a>
</g>
</g>
<!-- RFC002&#45;&gt;RFC001 -->
<g id="edge1" class="edge">
<title>RFC002&#45;&gt;RFC001</title>
<path fill="none" stroke="black" d="M581.33,-436.37C558.22,-413.26 524.28,-379.32 499.14,-354.18"/>
<polygon fill="black" stroke="black" points="501.52,-351.61 491.97,-347.02 496.57,-356.56 501.52,-351.61"/>
<text text-anchor="middle" x="517.24" y="-399.08" font-family="Times,serif" font-size="14.00">refers to</text>
</g>
<!-- RFC003 -->
<g id="node3" class="node">
<title>RFC003</title>
<g id="a_node3"><a xlink:href="rfc003-oauth2-authorization" xlink:title="RFC003\nOAuth2 Authorization">
<ellipse fill="none" stroke="black" cx="324.06" cy="-462.35" rx="97.66" ry="26.74"/>
<text text-anchor="middle" x="324.06" y="-466.15" font-family="Times,serif" font-size="14.00">RFC003</text>
<text text-anchor="middle" x="324.06" y="-451.15" font-family="Times,serif" font-size="14.00">OAuth2 Authorization</text>
</a>
</g>
</g>
<!-- RFC003&#45;&gt;RFC001 -->
<g id="edge2" class="edge">
<title>RFC003&#45;&gt;RFC001</title>
<path fill="none" stroke="black" d="M350.03,-436.37C373.15,-413.26 407.08,-379.32 432.22,-354.18"/>
<polygon fill="black" stroke="black" points="434.79,-356.56 439.39,-347.02 429.85,-351.61 434.79,-356.56"/>
<text text-anchor="middle" x="368.13" y="-399.08" font-family="Times,serif" font-size="14.00">refers to</text>
</g>
<!-- RFC003&#45;&gt;RFC002 -->
<g id="edge3" class="edge">
<title>RFC003&#45;&gt;RFC002</title>
<path fill="none" stroke="black" d="M421.93,-462.35C448.59,-462.35 477.54,-462.35 504.46,-462.35"/>
<polygon fill="black" stroke="black" points="504.67,-465.85 514.67,-462.35 504.67,-458.85 504.67,-465.85"/>
<text text-anchor="middle" x="463.2" y="-451.15" font-family="Times,serif" font-size="14.00">token spec&#45;ed by</text>
</g>
<!-- RFC004 -->
<g id="node4" class="node">
<title>RFC004</title>
<g id="a_node4"><a xlink:href="rfc004-distributed-document-format" xlink:title="RFC004\nDistributed Document Format\n(Planned)">
<ellipse fill="none" stroke="black" cx="465.68" cy="-120.44" rx="128.89" ry="37.45"/>
<text text-anchor="middle" x="465.68" y="-131.74" font-family="Times,serif" font-size="14.00">RFC004</text>
<text text-anchor="middle" x="465.68" y="-116.74" font-family="Times,serif" font-size="14.00">Distributed Document Format</text>
<text text-anchor="middle" x="465.68" y="-101.74" font-family="Times,serif" font-size="14.00">(Planned)</text>
</a>
</g>
</g>
<!-- RFC004&#45;&gt;RFC001 -->
<g id="edge4" class="edge">
<title>RFC004&#45;&gt;RFC001</title>
<path fill="none" stroke="black" d="M465.68,-158.11C465.68,-194.11 465.68,-248.03 465.68,-283.78"/>
<polygon fill="black" stroke="black" points="462.18,-283.8 465.68,-293.8 469.18,-283.8 462.18,-283.8"/>
<text text-anchor="middle" x="442.68" y="-224.74" font-family="Times,serif" font-size="14.00">refers to</text>
</g>
<!-- RFC005 -->
<g id="node5" class="node">
<title>RFC005</title>
<g id="a_node5"><a xlink:href="rfc005-distributed-document-network-grpc" xlink:title="RFC005\nDistributed Document Network using gRPC\n(Planned)">
<ellipse fill="none" stroke="black" cx="182.43" cy="-37.48" rx="182.37" ry="37.45"/>
<text text-anchor="middle" x="182.43" y="-48.78" font-family="Times,serif" font-size="14.00">RFC005</text>
<text text-anchor="middle" x="182.43" y="-33.78" font-family="Times,serif" font-size="14.00">Distributed Document Network using gRPC</text>
<text text-anchor="middle" x="182.43" y="-18.78" font-family="Times,serif" font-size="14.00">(Planned)</text>
</a>
</g>
</g>
<!-- RFC005&#45;&gt;RFC004 -->
<g id="edge5" class="edge">
<title>RFC005&#45;&gt;RFC004</title>
<path fill="none" stroke="black" d="M287.5,-68.25C312.8,-75.66 339.77,-83.56 364.86,-90.91"/>
<polygon fill="black" stroke="black" points="364.17,-94.35 374.75,-93.8 366.14,-87.64 364.17,-94.35"/>
<text text-anchor="middle" x="247.68" y="-83.38" font-family="Times,serif" font-size="14.00">document format spec&#45;ed by</text>
</g>
<!-- RFC006 -->
<g id="node6" class="node">
<title>RFC006</title>
<g id="a_node6"><a xlink:href="rfc006-distributed-registry" xlink:title="RFC006\nDistributed Registry\n(Planned)">
<ellipse fill="none" stroke="black" cx="748.93" cy="-37.48" rx="89.61" ry="37.45"/>
<text text-anchor="middle" x="748.93" y="-48.78" font-family="Times,serif" font-size="14.00">RFC006</text>
<text text-anchor="middle" x="748.93" y="-33.78" font-family="Times,serif" font-size="14.00">Distributed Registry</text>
<text text-anchor="middle" x="748.93" y="-18.78" font-family="Times,serif" font-size="14.00">(Planned)</text>
</a>
</g>
</g>
<!-- RFC006&#45;&gt;RFC004 -->
<g id="edge6" class="edge">
<title>RFC006&#45;&gt;RFC004</title>
<path fill="none" stroke="black" d="M675.25,-59.06C642.06,-68.78 602.35,-80.41 566.47,-90.92"/>
<polygon fill="black" stroke="black" points="565.07,-87.68 556.46,-93.85 567.04,-94.4 565.07,-87.68"/>
<text text-anchor="middle" x="542.36" y="-63.79" font-family="Times,serif" font-size="14.00">document format spec&#45;ed by</text>
</g>
<!-- RFC006&#45;&gt;RFC005 -->
<g id="edge7" class="edge">
<title>RFC006&#45;&gt;RFC005</title>
<path fill="none" stroke="black" d="M658.85,-37.48C582.8,-37.48 471.25,-37.48 375.21,-37.48"/>
<polygon fill="black" stroke="black" points="375.07,-33.98 365.07,-37.48 375.07,-40.98 375.07,-33.98"/>
<text text-anchor="middle" x="461.53" y="-41.28" font-family="Times,serif" font-size="14.00">transport spec&#45;ed by</text>
</g>
</g>
</svg>
