<?xml version="1.0" encoding="UTF-8" standalone="no"?>
<!DOCTYPE svg PUBLIC "-//W3C//DTD SVG 1.1//EN"
 "http://www.w3.org/Graphics/SVG/1.1/DTD/svg11.dtd">
<!-- Generated by graphviz version 2.44.1 (20200629.0846)
 -->
<!-- Title: D Pages: 1 -->
<svg width="969pt" height="763pt"
 viewBox="0.00 0.00 969.41 762.96" xmlns="http://www.w3.org/2000/svg" xmlns:xlink="http://www.w3.org/1999/xlink">
<g id="graph0" class="graph" transform="scale(1 1) rotate(0) translate(4 758.96)">
<title>D</title>
<polygon fill="white" stroke="transparent" points="-4,4 -4,-758.96 965.41,-758.96 965.41,4 -4,4"/>
<!-- RFC001 -->
<g id="node1" class="node">
<title>RFC001</title>
<g id="a_node1"><a xlink:href="rfc001-nuts-start-architecture" xlink:title="RFC001\nNuts Start Architecture">
<polygon fill="none" stroke="black" points="666.2,-400.23 460.2,-400.23 460.2,-362.23 666.2,-362.23 666.2,-400.23"/>
<text text-anchor="middle" x="563.2" y="-385.03" font-family="Courier,monospace" font-size="14.00">RFC001</text>
<text text-anchor="middle" x="563.2" y="-370.03" font-family="Courier,monospace" font-size="14.00">Nuts Start Architecture</text>
</a>
</g>
</g>
<!-- RFC002 -->
<g id="node2" class="node">
<title>RFC002</title>
<g id="a_node2"><a xlink:href="rfc002-authentication-token" xlink:title="RFC002\nAuthentication token">
<polygon fill="none" stroke="black" points="807.81,-488.91 625.81,-488.91 625.81,-450.91 807.81,-450.91 807.81,-488.91"/>
<text text-anchor="middle" x="716.81" y="-473.71" font-family="Courier,monospace" font-size="14.00">RFC002</text>
<text text-anchor="middle" x="716.81" y="-458.71" font-family="Courier,monospace" font-size="14.00">Authentication token</text>
</a>
</g>
</g>
<!-- RFC002&#45;&gt;RFC001 -->
<g id="edge1" class="edge">
<title>RFC002&#45;&gt;RFC001</title>
<path fill="none" stroke="black" d="M683.85,-450.89C660.85,-437.61 629.96,-419.77 605.19,-405.47"/>
<polygon fill="black" stroke="black" points="606.78,-402.34 596.37,-400.37 603.28,-408.41 606.78,-402.34"/>
<text text-anchor="middle" x="607.02" y="-431.98" font-family="Courier,monospace" font-size="14.00">refers to</text>
</g>
<!-- RFC003 -->
<g id="node3" class="node">
<title>RFC003</title>
<g id="a_node3"><a xlink:href="rfc003-oauth2-authorization" xlink:title="RFC003\nOAuth2 Authorization">
<polygon fill="none" stroke="black" points="500.6,-488.91 318.6,-488.91 318.6,-450.91 500.6,-450.91 500.6,-488.91"/>
<text text-anchor="middle" x="409.6" y="-473.71" font-family="Courier,monospace" font-size="14.00">RFC003</text>
<text text-anchor="middle" x="409.6" y="-458.71" font-family="Courier,monospace" font-size="14.00">OAuth2 Authorization</text>
</a>
</g>
</g>
<!-- RFC003&#45;&gt;RFC001 -->
<g id="edge2" class="edge">
<title>RFC003&#45;&gt;RFC001</title>
<path fill="none" stroke="black" d="M442.55,-450.89C465.56,-437.61 496.45,-419.77 521.22,-405.47"/>
<polygon fill="black" stroke="black" points="523.13,-408.41 530.04,-400.37 519.63,-402.34 523.13,-408.41"/>
<text text-anchor="middle" x="444.39" y="-431.98" font-family="Courier,monospace" font-size="14.00">refers to</text>
</g>
<!-- RFC003&#45;&gt;RFC002 -->
<g id="edge3" class="edge">
<title>RFC003&#45;&gt;RFC002</title>
<path fill="none" stroke="black" d="M500.94,-469.91C536.91,-469.91 578.37,-469.91 615.27,-469.91"/>
<polygon fill="black" stroke="black" points="615.55,-473.41 625.55,-469.91 615.55,-466.41 615.55,-473.41"/>
<text text-anchor="middle" x="558.11" y="-458.71" font-family="Courier,monospace" font-size="14.00">token spec&#45;ed by</text>
</g>
<!-- RFC7662_EXT -->
<g id="node7" class="node">
<title>RFC7662_EXT</title>
<g id="a_node7"><a xlink:href="https://tools.ietf.org/html/rfc7662" xlink:title="RFC7662\nOAuth 2.0 Token Introspection">
<polygon fill="#e0eeee" stroke="black" points="691.2,-754.96 435.2,-754.96 435.2,-716.96 691.2,-716.96 691.2,-754.96"/>
<text text-anchor="middle" x="563.2" y="-739.76" font-family="Courier,monospace" font-size="14.00">RFC7662</text>
<text text-anchor="middle" x="563.2" y="-724.76" font-family="Courier,monospace" font-size="14.00">OAuth 2.0 Token Introspection</text>
</a>
</g>
</g>
<!-- RFC003&#45;&gt;RFC7662_EXT -->
<g id="edge4" class="edge">
<title>RFC003&#45;&gt;RFC7662_EXT</title>
<path fill="none" stroke="black" d="M420.65,-489.04C447.37,-535.33 515.63,-653.55 546.99,-707.88"/>
<polygon fill="black" stroke="black" points="544.02,-709.73 552.05,-716.64 550.08,-706.23 544.02,-709.73"/>
</g>
<!-- RFC7523_EXT -->
<g id="node8" class="node">
<title>RFC7523_EXT</title>
<g id="a_node8"><a xlink:href="https://tools.ietf.org/html/rfc7523" xlink:title="RFC7523\nJSON Web Token (JWT) Profile\nfor OAuth 2.0 Client Authentication and Authorization Grants">
<polygon fill="#e0eeee" stroke="black" points="512,-585.09 0,-585.09 0,-532.09 512,-532.09 512,-585.09"/>
<text text-anchor="middle" x="256" y="-569.89" font-family="Courier,monospace" font-size="14.00">RFC7523</text>
<text text-anchor="middle" x="256" y="-554.89" font-family="Courier,monospace" font-size="14.00">JSON Web Token (JWT) Profile</text>
<text text-anchor="middle" x="256" y="-539.89" font-family="Courier,monospace" font-size="14.00">for OAuth 2.0 Client Authentication and Authorization Grants</text>
</a>
</g>
</g>
<!-- RFC003&#45;&gt;RFC7523_EXT -->
<g id="edge5" class="edge">
<title>RFC003&#45;&gt;RFC7523_EXT</title>
<path fill="none" stroke="black" d="M376.65,-488.94C357.51,-499.98 332.91,-514.19 310.93,-526.88"/>
<polygon fill="black" stroke="black" points="308.92,-524 302.01,-532.03 312.42,-530.06 308.92,-524"/>
</g>
<!-- RFC7515_EXT -->
<g id="node9" class="node">
<title>RFC7515_EXT</title>
<g id="a_node9"><a xlink:href="https://tools.ietf.org/html/rfc7515" xlink:title="RFC7515\nJSON Web Signature (JWS)">
<polygon fill="#e0eeee" stroke="black" points="363.5,-222.86 148.5,-222.86 148.5,-184.86 363.5,-184.86 363.5,-222.86"/>
<text text-anchor="middle" x="256" y="-207.66" font-family="Courier,monospace" font-size="14.00">RFC7515</text>
<text text-anchor="middle" x="256" y="-192.66" font-family="Courier,monospace" font-size="14.00">JSON Web Signature (JWS)</text>
</a>
</g>
</g>
<!-- RFC003&#45;&gt;RFC7515_EXT -->
<g id="edge6" class="edge">
<title>RFC003&#45;&gt;RFC7515_EXT</title>
<path fill="none" stroke="black" d="M398.56,-450.78C371.83,-404.49 303.58,-286.27 272.21,-231.94"/>
<polygon fill="black" stroke="black" points="275.18,-230.09 267.15,-223.18 269.12,-233.59 275.18,-230.09"/>
</g>
<!-- RFC004 -->
<g id="node4" class="node">
<title>RFC004</title>
<g id="a_node4"><a xlink:href="rfc004-distributed-document-format" xlink:title="RFC004\nDistributed Document Format\n(Planned)">
<polygon fill="none" stroke="black" points="771.39,-254.13 532.39,-254.13 532.39,-201.13 771.39,-201.13 771.39,-254.13"/>
<text text-anchor="middle" x="651.89" y="-238.93" font-family="Courier,monospace" font-size="14.00">RFC004</text>
<text text-anchor="middle" x="651.89" y="-223.93" font-family="Courier,monospace" font-size="14.00">Distributed Document Format</text>
<text text-anchor="middle" x="651.89" y="-208.93" font-family="Courier,monospace" font-size="14.00">(Planned)</text>
</a>
</g>
</g>
<!-- RFC004&#45;&gt;RFC001 -->
<g id="edge7" class="edge">
<title>RFC004&#45;&gt;RFC001</title>
<path fill="none" stroke="black" d="M636.44,-254.38C620.48,-282.03 595.67,-325 579.43,-353.13"/>
<polygon fill="black" stroke="black" points="576.24,-351.65 574.27,-362.06 582.3,-355.15 576.24,-351.65"/>
<text text-anchor="middle" x="570.43" y="-307.56" font-family="Courier,monospace" font-size="14.00">refers to</text>
</g>
<!-- RFC005 -->
<g id="node5" class="node">
<title>RFC005</title>
<g id="a_node5"><a xlink:href="rfc005-distributed-document-network-grpc" xlink:title="RFC005\nDistributed Document Network using gRPC\n(Planned)">
<polygon fill="none" stroke="black" points="732.2,-53 394.2,-53 394.2,0 732.2,0 732.2,-53"/>
<text text-anchor="middle" x="563.2" y="-37.8" font-family="Courier,monospace" font-size="14.00">RFC005</text>
<text text-anchor="middle" x="563.2" y="-22.8" font-family="Courier,monospace" font-size="14.00">Distributed Document Network using gRPC</text>
<text text-anchor="middle" x="563.2" y="-7.8" font-family="Courier,monospace" font-size="14.00">(Planned)</text>
</a>
</g>
</g>
<!-- RFC005&#45;&gt;RFC004 -->
<g id="edge8" class="edge">
<title>RFC005&#45;&gt;RFC004</title>
<path fill="none" stroke="black" d="M574.98,-53.21C590.65,-88.75 618.41,-151.71 635.95,-191.47"/>
<polygon fill="black" stroke="black" points="632.82,-193.07 640.06,-200.81 639.23,-190.25 632.82,-193.07"/>
<text text-anchor="middle" x="497.96" y="-126.14" font-family="Courier,monospace" font-size="14.00">document format spec&#45;ed by</text>
</g>
<!-- RFC006 -->
<g id="node6" class="node">
<title>RFC006</title>
<g id="a_node6"><a xlink:href="rfc006-distributed-registry" xlink:title="RFC006\nDistributed Registry\n(Planned)">
<polygon fill="none" stroke="black" points="961.41,-230.36 779.41,-230.36 779.41,-177.36 961.41,-177.36 961.41,-230.36"/>
<text text-anchor="middle" x="870.41" y="-215.16" font-family="Courier,monospace" font-size="14.00">RFC006</text>
<text text-anchor="middle" x="870.41" y="-200.16" font-family="Courier,monospace" font-size="14.00">Distributed Registry</text>
<text text-anchor="middle" x="870.41" y="-185.16" font-family="Courier,monospace" font-size="14.00">(Planned)</text>
</a>
</g>
</g>
<!-- RFC006&#45;&gt;RFC004 -->
<g id="edge9" class="edge">
<title>RFC006&#45;&gt;RFC004</title>
<path fill="none" stroke="black" d="M779.32,-213.77C779.16,-213.79 779,-213.8 778.83,-213.82"/>
<polygon fill="black" stroke="black" points="781.12,-210.05 771.55,-214.61 781.87,-217.01 781.12,-210.05"/>
<text text-anchor="middle" x="671.58" y="-202.6" font-family="Courier,monospace" font-size="14.00">document format spec&#45;ed by</text>
</g>
<!-- RFC006&#45;&gt;RFC005 -->
<g id="edge10" class="edge">
<title>RFC006&#45;&gt;RFC005</title>
<path fill="none" stroke="black" d="M824.42,-177.31C769.25,-145.46 676.87,-92.12 618.04,-58.16"/>
<polygon fill="black" stroke="black" points="619.67,-55.06 609.26,-53.09 616.17,-61.12 619.67,-55.06"/>
<text text-anchor="middle" x="638.23" y="-106.54" font-family="Courier,monospace" font-size="14.00">transport spec&#45;ed by</text>
</g>
</g>
</svg>
